<svg width="180" height="180" viewBox="0 0 180 180" fill="none" xmlns="http://www.w3.org/2000/svg">
<path d="M34.3295 127.278C32.3192 126.015 30.0454 125.232 27.6839 124.988C26.6039 124.877 25.4123 124.909 24.5411 125.568C24.4399 125.625 24.3561 125.708 24.299 125.809C24.2419 125.91 24.2135 126.024 24.2171 126.14C24.2665 126.305 24.3757 126.445 24.5231 126.533C27.2267 128.596 31.3199 128.858 34.3295 127.278" fill="#E0E0E0"/>
<path d="M34.1603 127.08C32.6249 125.953 31.1925 124.691 29.8799 123.311C28.5565 121.92 27.6271 120.201 27.1871 118.332C27.0719 117.767 27.0359 117.119 27.3995 116.669C30.8231 119.34 33.5195 122.789 34.1711 127.087" fill="#E0E0E0"/>
<path d="M34.2971 127.249C34.0379 125.377 33.9371 123.455 34.3763 121.615C34.8155 119.776 35.8163 118.015 37.3787 116.964C37.9691 118.346 37.7135 119.938 37.2995 121.381C36.6525 123.618 35.647 125.734 34.3223 127.649" fill="#E0E0E0"/>
<path d="M37.6487 133.261C35.6147 133.51 33.8399 134.582 32.3207 135.961C30.7896 137.35 29.7247 139.178 29.2715 141.196C31.2695 141.07 32.9615 139.662 34.1927 138.082C35.4239 136.501 36.2735 134.77 37.6235 133.294" fill="#E0E0E0"/>
<path d="M38.3798 134.222C37.5773 132.187 37.296 129.984 37.5613 127.812C37.8266 125.641 38.6302 123.57 39.899 121.788C41.0582 125.914 40.619 130.576 38.3798 134.222Z" fill="#E0E0E0"/>
<path d="M42.8113 139.5C40.9512 139.383 39.0978 139.815 37.4816 140.743C35.8654 141.672 34.5577 143.054 33.7213 144.72C33.6097 144.943 33.5089 145.231 33.6601 145.44C33.7394 145.516 33.8357 145.571 33.941 145.602C34.0462 145.633 34.1573 145.638 34.2649 145.616C36.0649 145.501 37.6417 144.421 38.9449 143.197C40.2481 141.973 41.3965 140.551 42.8437 139.489" fill="#E0E0E0"/>
<path d="M42.6708 139.216C41.7165 136.143 41.6578 132.863 42.5016 129.758C42.8328 128.538 43.3944 127.256 44.5176 126.688C44.5625 126.657 44.6133 126.637 44.6666 126.628C44.72 126.618 44.7747 126.62 44.8272 126.634C44.9193 126.681 44.9892 126.762 45.0216 126.86C45.4012 127.711 45.5656 128.642 45.5004 129.571C45.4328 130.497 45.2907 131.415 45.0756 132.318C44.7156 133.999 44.532 135.803 43.6104 137.25C43.3924 137.597 43.1964 137.958 43.0236 138.33C42.8508 138.69 42.8508 138.827 42.6888 139.118" fill="#E0E0E0"/>
<path d="M54.4032 140.962C53.5356 137.657 54.4572 133.646 56.5416 130.936C56.6928 130.738 56.9016 130.522 57.1464 130.547C57.5316 130.583 57.6324 131.094 57.6144 131.479C57.4558 134.879 56.3429 138.165 54.4032 140.962" fill="#E0E0E0"/>
<path d="M55.4614 141.685C59.479 142.729 64.1014 141.714 67.4278 139.252C65.4247 138.245 63.1349 137.964 60.9478 138.456C58.7878 138.953 56.8078 139.921 55.4614 141.696" fill="#E0E0E0"/>
<path d="M56.3545 139.482C58.6045 135.814 62.9173 133.42 67.2157 133.204C66.7189 134.95 65.2825 136.31 63.6625 137.131C62.0425 137.952 60.2317 138.308 58.4497 138.654C57.7549 138.791 56.8045 138.938 56.3545 139.482" fill="#E0E0E0"/>
<path d="M54.6264 128.801C55.2348 126.713 55.8468 124.607 56.016 122.44C56.1852 120.272 55.8756 118.008 54.7488 116.147C52.6464 120.215 52.434 124.967 54.5652 129.017" fill="#E0E0E0"/>
<path d="M61.7041 125.222C64.1593 120.758 69.1741 117.191 74.2465 116.69C72.2917 121.561 66.9529 125.33 61.7041 125.222Z" fill="#E0E0E0"/>
<path d="M60.1562 126.101C63.821 126.659 66.9458 128.999 70.3694 130.421C71.0882 130.767 71.8848 130.92 72.6806 130.864C73.052 130.863 73.414 130.747 73.7169 130.532C74.0199 130.317 74.249 130.014 74.3728 129.664C74.4966 129.314 74.509 128.934 74.4085 128.576C74.3079 128.219 74.0992 127.901 73.811 127.667C73.3262 127.218 72.7555 126.871 72.1334 126.648C68.4002 125.093 64.4006 125.053 60.4802 126" fill="#E0E0E0"/>
<path d="M58.0358 128.671C58.8638 128.909 59.1482 129.337 59.807 129.895C62.0476 131.8 64.6975 133.163 67.5506 133.877C67.8458 133.949 68.2346 133.978 68.3822 133.711C68.5298 133.445 68.3462 133.196 68.1806 132.991C66.9351 131.531 65.3181 130.434 63.5006 129.816C61.7006 129.15 60.1634 128.347 58.0322 128.52" fill="#E0E0E0"/>
<path d="M55.6416 113.144C57.1444 114.53 58.9203 115.585 60.8552 116.244C62.7901 116.902 64.8414 117.149 66.8772 116.968C67.0654 116.971 67.2483 116.905 67.392 116.784C67.6728 116.474 67.3344 115.999 67.0032 115.744C63.702 113.166 59.6988 112.1 55.6416 113.144Z" fill="#E0E0E0"/>
<path d="M58.4785 112.104C60.4685 110.642 62.7762 109.67 65.2131 109.27C67.6501 108.87 70.1472 109.051 72.5005 109.8C70.7365 111.539 68.2849 112.475 65.8189 112.73C63.3547 112.957 60.8699 112.748 58.4785 112.111" fill="#E0E0E0"/>
<path d="M57.3518 104.969C57.0278 101.671 57.2366 99.0684 57.0098 95.7564C56.9918 95.49 56.9342 95.1732 56.6858 95.076C56.3258 94.9464 56.0522 95.3676 55.9406 95.7204C55.46 97.256 55.337 98.8812 55.581 100.472C55.8249 102.062 56.4294 103.576 57.3482 104.897" fill="#E0E0E0"/>
<path d="M57.1143 105.336C59.3499 103.954 61.0275 102.146 62.5755 100.026C63.6555 98.55 64.5663 96.786 64.3215 94.968C62.8059 94.9392 61.3659 95.7744 60.3795 96.9264C59.3931 98.0784 58.8099 99.5148 58.3707 100.966C57.9315 102.416 57.6291 103.907 57.1143 105.336" fill="#E0E0E0"/>
<path d="M62.4816 103.842C67.3989 102.025 71.9515 99.3427 75.924 95.922C74.3184 95.2776 72.4788 95.6628 70.884 96.3108C67.2192 97.794 64.2204 100.292 62.4204 103.813" fill="#E0E0E0"/>
<path d="M58.6226 107.14C61.1066 107.41 63.6266 107.586 66.089 107.176C68.5514 106.765 70.7942 105.811 73.0586 104.861C73.2548 104.803 73.4228 104.675 73.5302 104.501C73.5658 104.396 73.5688 104.282 73.5386 104.176C73.5083 104.069 73.4464 103.974 73.361 103.903C73.1869 103.766 72.9836 103.671 72.767 103.626C70.3082 102.938 67.655 103.266 65.2358 104.076C62.9304 104.863 60.7139 105.89 58.6226 107.14" fill="#E0E0E0"/>
<path d="M44.4528 113.256C42.7608 109.84 42.8688 105.851 44.334 102.326C45.3636 103.896 45.4896 105.894 45.2988 107.762C45.108 109.631 44.5428 111.55 44.5068 113.425" fill="#E0E0E0"/>
<path d="M37.6884 109.843C35.5686 109.816 33.4665 110.231 31.5164 111.062C29.5662 111.894 27.811 113.123 26.3628 114.671C28.4724 115.002 30.6468 114.458 32.5656 113.519C34.4844 112.579 36.1908 111.269 37.8792 109.962" fill="#E0E0E0"/>
<path d="M33.1418 108.324C31.0754 108.155 29.0846 107.899 27.0974 108.511C25.1102 109.123 23.2994 110.52 22.4858 112.417C24.4385 112.573 26.397 112.2 28.1558 111.337C29.9036 110.478 31.5721 109.466 33.1418 108.313" fill="#E0E0E0"/>
<path d="M39.8736 108.392C38.016 107.176 36.1044 105.934 33.9372 105.43C31.77 104.926 29.2572 105.296 27.7524 106.931C29.5056 107.957 31.6332 108.079 33.6636 108.079C35.694 108.079 38.1888 108.054 40.1076 108.731" fill="#E0E0E0"/>
<path d="M39.8844 108.493C36.7056 105.368 35.4996 99.7596 36.7776 95.49C39.2895 99.3331 40.3877 103.93 39.8844 108.493" fill="#E0E0E0"/>
<path d="M48.6323 99.6444C49.2299 98.2476 49.6547 96.786 50.1911 95.364C50.6832 93.9295 51.4376 92.5989 52.4159 91.44C53.4101 90.2693 54.8246 89.5362 56.3543 89.3988C55.8646 91.5504 54.9316 93.5764 53.6151 95.3473C52.2985 97.1182 50.6273 98.5952 48.7079 99.684" fill="#E0E0E0"/>
<path d="M47.0483 101.488C46.0547 100.12 44.9099 98.2476 43.5635 97.2468C42.2171 96.246 40.4639 95.6088 38.8223 96.0012C39.6728 97.492 40.8591 98.764 42.287 99.7164C43.7149 100.669 45.3451 101.275 47.0483 101.488" fill="#E0E0E0"/>
<path d="M47.3653 99.756C46.7137 98.1036 46.0585 96.4332 45.7957 94.6764C45.5329 92.9196 45.6949 91.0404 46.5913 89.5104C48.3373 92.808 48.8989 96.3504 47.4553 99.7956" fill="#E0E0E0"/>
<path d="M48.647 89.5104C49.637 86.238 52.6322 83.8296 55.865 82.7244C56.266 82.5603 56.7006 82.4949 57.1322 82.5336C57.3476 82.5548 57.5517 82.6403 57.718 82.779C57.8842 82.9176 58.005 83.1031 58.0646 83.3112C58.1834 83.8692 57.7226 84.366 57.2906 84.7512C54.7621 86.9089 51.8231 88.5327 48.6506 89.5248" fill="#E0E0E0"/>
<path d="M48.6827 86.832C48.8087 84.7224 48.9419 82.584 49.6259 80.586C50.3099 78.588 51.6347 76.7124 53.5571 75.8376C53.8847 77.9688 52.9451 80.0856 51.8111 81.9216C50.6771 83.7576 49.3127 85.4856 48.6323 87.5304" fill="#E0E0E0"/>
<path d="M48.6326 88.2864C47.8154 85.8996 47.729 82.8864 46.3034 80.7948C45.3026 79.3548 43.7042 78.354 42.8474 76.8168C42.3267 78.2918 42.3977 79.9111 43.0454 81.3348C43.6955 82.7413 44.5902 84.0211 45.6878 85.1148C46.7462 86.2416 47.6498 87.0912 48.6326 88.2864Z" fill="#E0E0E0"/>
<path d="M48.647 158.501C48.5858 158.501 48.5282 142.596 48.5246 122.98C48.521 103.363 48.5678 87.4548 48.6326 87.4548C48.6974 87.4548 48.7514 103.356 48.755 122.98C48.7586 142.603 48.7118 158.501 48.647 158.501Z" fill="#E0E0E0"/>
<path d="M62.5463 110.855C62.3557 110.951 62.1554 111.027 61.9487 111.082L60.3035 111.636C58.9139 112.108 57.0095 112.792 54.9395 113.641C52.8695 114.491 50.9579 115.232 49.8599 116.186C49.4211 116.553 49.0715 117.015 48.8375 117.536C48.6791 117.896 48.6539 118.138 48.6323 118.134C48.6213 118.079 48.6213 118.023 48.6323 117.968C48.6553 117.81 48.6939 117.655 48.7475 117.504C48.9563 116.949 49.2988 116.455 49.7447 116.064C50.4078 115.502 51.1502 115.041 51.9479 114.696C52.8299 114.286 53.8091 113.854 54.8459 113.429C56.9195 112.579 58.8419 111.917 60.2459 111.481C60.9479 111.262 61.5203 111.1 61.9163 110.995C62.1216 110.929 62.3325 110.882 62.5463 110.855V110.855Z" fill="#E0E0E0"/>
<path d="M67.1039 99.666C67.0529 99.7297 66.9963 99.7887 66.9347 99.8424L66.4235 100.325L64.5191 102.053L58.1759 107.701C55.7027 109.904 53.5643 112.021 52.0811 113.594C51.3395 114.386 50.7527 115.034 50.3531 115.502L49.8923 116.028C49.8438 116.093 49.7869 116.151 49.7231 116.201C49.7582 116.128 49.8031 116.06 49.8563 115.999C49.9535 115.87 50.0939 115.679 50.2847 115.445C50.6447 114.966 51.2315 114.293 51.9623 113.486C53.8762 111.394 55.8998 109.406 58.0247 107.528C60.5087 105.332 62.7695 103.356 64.4111 101.934L66.3659 100.256L66.9059 99.81C67.0283 99.72 67.0967 99.6588 67.1039 99.666Z" fill="#E0E0E0"/>
<path d="M55.505 109.94C55.4402 109.912 55.9586 108.72 56.4734 107.208C56.9882 105.696 57.2366 104.425 57.305 104.436C57.3734 104.447 57.2186 105.754 56.6894 107.284C56.468 107.934 56.212 108.572 55.9226 109.195C55.8212 109.463 55.6805 109.714 55.505 109.94Z" fill="#E0E0E0"/>
<path d="M48.6613 119.57C48.5216 119.434 48.3939 119.286 48.2797 119.128L47.3041 117.871C46.4833 116.813 45.3493 115.351 44.0641 113.746C42.7789 112.14 41.6233 110.704 40.7773 109.663L39.7765 108.428C39.6379 108.285 39.517 108.126 39.4165 107.953C39.5651 108.079 39.7025 108.218 39.8269 108.367C40.0825 108.644 40.4425 109.051 40.8817 109.559C41.7637 110.574 42.9517 111.996 44.2261 113.602C45.5005 115.207 46.6165 116.687 47.4049 117.774C47.7973 118.318 48.1249 118.76 48.3229 119.074C48.4548 119.225 48.5683 119.392 48.6613 119.57V119.57Z" fill="#E0E0E0"/>
<path d="M45.6158 115.657C45.5762 115.697 44.7626 114.732 44.3378 113.267C44.0986 112.486 44.0011 111.67 44.0498 110.855H44.1506C44.1038 111.038 44.0714 111.136 44.0534 111.132C44.0354 111.128 44.0354 111.028 44.0534 110.837H44.1542C44.2036 111.632 44.34 112.419 44.561 113.184C44.9678 114.62 45.677 115.618 45.6158 115.657Z" fill="#E0E0E0"/>
<path d="M41.6807 110.707C41.4062 110.497 41.1062 110.323 40.7879 110.189C39.9865 109.95 39.1439 109.883 38.3147 109.991C37.4734 110.056 36.6389 110.191 35.8199 110.394C35.4842 110.5 35.1414 110.582 34.7939 110.639C35.1012 110.46 35.432 110.326 35.7767 110.239C36.5958 109.985 37.4413 109.826 38.2967 109.764C39.1572 109.649 40.0327 109.743 40.8491 110.038C41.1947 110.159 41.4883 110.395 41.6807 110.707V110.707Z" fill="#E0E0E0"/>
<path d="M40.7486 109.508C40.7486 109.544 40.2266 109.3 39.3806 109.012C38.2792 108.636 37.1351 108.401 35.975 108.31C34.8142 108.225 33.6474 108.285 32.501 108.486C31.619 108.644 31.0862 108.806 31.061 108.77C31.1724 108.701 31.2938 108.649 31.421 108.616C31.7584 108.496 32.1036 108.4 32.4542 108.328C33.6104 108.072 34.798 107.988 35.9786 108.079C37.1588 108.169 38.3194 108.431 39.4238 108.857C39.7577 108.985 40.0835 109.132 40.3994 109.3C40.5259 109.351 40.6437 109.421 40.7486 109.508V109.508Z" fill="#E0E0E0"/>
<path d="M48.6322 104.436C48.571 104.436 48.1246 102.902 47.635 100.976C47.1454 99.0504 46.7998 97.4736 46.861 97.4592C46.9222 97.4448 47.3686 98.9928 47.8582 100.919C48.3478 102.845 48.6934 104.418 48.6322 104.436Z" fill="#E0E0E0"/>
<path d="M48.6936 104.436C48.6252 104.458 48.3336 103.421 47.592 102.362C47.124 101.737 46.5771 101.174 45.9648 100.688C46.1977 100.743 46.4139 100.853 46.5948 101.009C47.0549 101.348 47.4551 101.762 47.7792 102.233C48.5568 103.32 48.7512 104.432 48.6936 104.436Z" fill="#E0E0E0"/>
<path d="M48.647 150.023C48.6218 150.023 48.575 149.638 48.395 148.964C48.1281 148.013 47.7663 147.09 47.315 146.21C46.235 143.964 44.219 141.116 41.6774 138.265C40.4174 136.825 39.197 135.468 38.1602 134.172C37.228 133.029 36.3855 131.816 35.6402 130.543C35.1402 129.684 34.715 128.783 34.3694 127.85C34.2542 127.519 34.1678 127.26 34.121 127.08C34.0891 126.992 34.0674 126.9 34.0562 126.806C34.0778 126.806 34.193 127.166 34.4558 127.818C34.8295 128.731 35.2724 129.615 35.7806 130.46C36.5403 131.713 37.3897 132.909 38.3222 134.039C39.3626 135.324 40.5866 136.674 41.8466 138.114C44.3954 140.972 46.3898 143.874 47.459 146.138C47.8919 147.035 48.2285 147.975 48.4634 148.943C48.5354 149.303 48.5858 149.555 48.6038 149.738C48.6279 149.831 48.6424 149.927 48.647 150.023V150.023Z" fill="#E0E0E0"/>
<path d="M61.1999 135.835C60.9877 135.968 60.7677 136.089 60.5411 136.195C59.9459 136.529 59.3756 136.906 58.8347 137.322C58.0355 137.945 57.2857 138.629 56.5919 139.367C55.8035 140.198 54.9935 141.167 54.1655 142.2C52.5131 144.274 50.9651 146.11 50.0399 147.578C49.5683 148.298 49.2263 148.918 49.0031 149.35C48.8983 149.578 48.778 149.8 48.6431 150.012C48.6538 149.947 48.6744 149.884 48.7043 149.825C48.7547 149.706 48.8195 149.53 48.9275 149.31C49.2146 148.689 49.5417 148.088 49.9067 147.51C50.8031 146.009 52.3403 144.144 53.9927 142.074C54.8207 141.037 55.6415 140.069 56.4443 139.237C57.1518 138.499 57.9201 137.821 58.7411 137.21C59.2961 136.799 59.8864 136.438 60.5051 136.13C60.7211 136.019 60.9011 135.95 61.0163 135.9C61.0738 135.869 61.1357 135.847 61.1999 135.835V135.835Z" fill="#E0E0E0"/>
<path d="M61.4521 140.436C60.9951 140.541 60.5304 140.608 60.0625 140.638C58.9445 140.754 57.8395 140.972 56.7613 141.289C55.6963 141.635 54.6981 142.16 53.8093 142.841C53.1253 143.366 52.8049 143.802 52.7725 143.777C52.8233 143.659 52.8939 143.551 52.9813 143.456C53.1957 143.186 53.4369 142.937 53.7013 142.715C54.5827 141.98 55.5971 141.422 56.6893 141.07C57.7802 140.745 58.9047 140.547 60.0409 140.479C60.509 140.422 60.9813 140.408 61.4521 140.436V140.436Z" fill="#E0E0E0"/>
<path d="M53.179 143.28C53.107 143.24 53.7334 142.283 54.2194 140.994C54.7054 139.705 54.7846 138.553 54.8674 138.568C54.8994 138.816 54.8909 139.067 54.8422 139.313C54.7733 139.913 54.6369 140.504 54.4354 141.073C54.2249 141.638 53.9545 142.179 53.629 142.686C53.3806 143.064 53.2042 143.28 53.179 143.28Z" fill="#E0E0E0"/>
<path d="M65.275 123.48C65.2051 123.527 65.1303 123.567 65.0518 123.599L64.4002 123.894C64.1122 124.016 63.763 124.175 63.3742 124.38C62.9854 124.585 62.521 124.79 62.0422 125.078L61.2826 125.51C61.0198 125.662 60.7606 125.842 60.4834 126.014C59.9254 126.353 59.3638 126.77 58.7662 127.199C56.2025 129.104 53.9664 131.414 52.1458 134.039C51.7426 134.651 51.343 135.227 51.0226 135.799C50.857 136.08 50.6878 136.346 50.5438 136.616L50.1406 137.39C49.8706 137.876 49.6762 138.341 49.489 138.74C49.3018 139.14 49.1506 139.493 49.039 139.784C48.9274 140.076 48.8338 140.27 48.7618 140.447C48.7335 140.526 48.6974 140.602 48.6538 140.674C48.665 140.591 48.6868 140.51 48.7186 140.432L48.9526 139.752C49.0534 139.453 49.1866 139.097 49.3702 138.672C49.5538 138.247 49.7302 137.794 49.9966 137.297L50.389 136.512C50.5294 136.242 50.695 135.972 50.857 135.684C51.1738 135.104 51.577 134.521 51.973 133.884C53.7862 131.222 56.0411 128.889 58.6402 126.986C59.245 126.562 59.8138 126.144 60.3826 125.809C60.6634 125.64 60.9262 125.449 61.1962 125.312L61.9666 124.891C62.4526 124.614 62.917 124.412 63.3166 124.222C63.658 124.053 64.0077 123.902 64.3642 123.768L65.0338 123.512C65.1126 123.492 65.1936 123.481 65.275 123.48V123.48Z" fill="#E0E0E0"/>
<path d="M55.3354 130.14C55.4272 129.818 55.6188 129.533 55.8826 129.326C56.4934 128.794 57.2723 128.495 58.0822 128.48C58.8775 128.476 59.6657 128.63 60.4006 128.934C60.7124 129.033 61.0083 129.176 61.279 129.359C60.9604 129.297 60.6483 129.205 60.3466 129.085C59.6191 128.842 58.8565 128.721 58.0894 128.725C57.328 128.741 56.5914 129 55.987 129.463C55.7538 129.673 55.536 129.899 55.3354 130.14Z" fill="#E0E0E0"/>
<path d="M53.8489 131.674C53.7877 131.638 54.3457 130.817 54.4753 129.636C54.6049 128.455 54.2665 127.534 54.3349 127.516C54.4684 127.688 54.5574 127.891 54.5941 128.106C54.8602 129.132 54.7318 130.22 54.2341 131.155C54.0433 131.508 53.8705 131.688 53.8489 131.674Z" fill="#E0E0E0"/>
<path d="M37.6631 152.302C38.0051 158.378 39.8231 164.56 42.6527 170.809H54.8927C57.5783 164.624 59.2847 158.45 59.5727 152.302H37.6631Z" fill="#E0E0E0"/>
<path d="M57.6001 162.137C57.6001 162.202 53.5681 162.252 48.6001 162.252C43.6321 162.252 39.6001 162.202 39.6001 162.137C39.6001 162.072 43.6321 162.022 48.6001 162.022C53.5681 162.022 57.6001 162.072 57.6001 162.137Z" fill="#FAFAFA"/>
<path d="M57.3409 164.34C57.3409 164.401 53.5609 164.452 48.8953 164.452C44.2297 164.452 40.4497 164.401 40.4497 164.34C40.4497 164.279 44.2297 164.225 48.8953 164.225C53.5609 164.225 57.3409 164.275 57.3409 164.34Z" fill="#FAFAFA"/>
<path d="M42.8398 156.29C42.9046 156.29 42.955 157.554 42.955 159.113C42.955 160.672 42.9046 161.935 42.8398 161.935C42.775 161.935 42.7246 160.672 42.7246 159.113C42.7246 157.554 42.7894 156.29 42.8398 156.29Z" fill="#FAFAFA"/>
<path d="M49.4174 156.29C49.4786 156.29 49.5326 157.601 49.5326 159.214C49.5326 160.826 49.4786 162.137 49.4174 162.137C49.3562 162.137 49.3022 160.826 49.3022 159.214C49.3022 157.601 49.3526 156.29 49.4174 156.29Z" fill="#FAFAFA"/>
<path d="M55.5769 156.24C55.6417 156.24 55.6921 157.572 55.6921 159.217C55.6921 160.862 55.6417 162.198 55.5769 162.198C55.5121 162.198 55.4653 160.866 55.4653 159.217C55.4653 157.568 55.5157 156.24 55.5769 156.24Z" fill="#FAFAFA"/>
<path d="M59.2127 156.29C59.2127 156.355 54.4787 156.406 48.6468 156.406C42.8148 156.406 38.0771 156.355 38.0771 156.29C38.0771 156.226 42.8076 156.175 48.6468 156.175C54.4859 156.175 59.2127 156.24 59.2127 156.29Z" fill="#FAFAFA"/>
<path d="M47.6714 19.7856H18.7778V49.9032H47.6714V19.7856Z" fill="#E0E0E0"/>
<path d="M45.7129 19.7856H16.8193V49.9032H45.7129V19.7856Z" fill="#FAFAFA"/>
<path d="M45.72 49.914H16.812V19.7784H45.72V49.914ZM16.8264 49.896H45.72V19.8H16.83L16.8264 49.896Z" fill="#E0E0E0"/>
<path d="M41.8284 23.8356H20.7036V45.8568H41.8284V23.8356Z" fill="white"/>
<path d="M20.7037 46.0044C20.5537 46.2255 20.3785 46.4284 20.1817 46.6092C19.8469 46.9692 19.3717 47.448 18.8389 47.97C18.3061 48.492 17.8201 48.96 17.4601 49.2912C17.2782 49.4853 17.0726 49.6559 16.8481 49.7988C16.9979 49.5785 17.1731 49.3767 17.3701 49.1976C17.7049 48.8376 18.1801 48.3552 18.7129 47.8332C19.2457 47.3112 19.7353 46.8396 20.0953 46.5084C20.2765 46.3159 20.4809 46.1466 20.7037 46.0044V46.0044Z" fill="#E0E0E0"/>
<path d="M41.8286 45.9468C42.05 46.098 42.254 46.273 42.437 46.4688C42.797 46.8072 43.2722 47.2824 43.7978 47.8116C44.3234 48.3408 44.7878 48.834 45.119 49.194C45.3115 49.3762 45.4819 49.5804 45.6266 49.8024C45.405 49.6545 45.2019 49.4805 45.0218 49.284C44.6618 48.9492 44.183 48.4704 43.6574 47.9376C43.1318 47.4048 42.6674 46.9152 42.3362 46.5552C42.1437 46.3731 41.9734 46.1689 41.8286 45.9468V45.9468Z" fill="#E0E0E0"/>
<path d="M41.7603 23.8932C41.9118 23.6732 42.0868 23.4705 42.2823 23.2884C42.6207 22.9284 43.0923 22.4496 43.6251 21.9276C44.1579 21.4056 44.6403 20.9376 45.0003 20.6064C45.1819 20.4119 45.3875 20.2414 45.6123 20.0988C45.4636 20.3188 45.2896 20.5206 45.0939 20.7C44.7555 21.06 44.2803 21.5388 43.7475 22.0644C43.2147 22.59 42.7251 23.058 42.3651 23.3892C42.1859 23.5825 41.9827 23.7519 41.7603 23.8932V23.8932Z" fill="#E0E0E0"/>
<path d="M20.646 23.9472C20.4249 23.7971 20.2219 23.622 20.0412 23.4252C19.6812 23.0904 19.2024 22.6152 18.6804 22.0824C18.1584 21.5496 17.6904 21.0636 17.3592 20.7036C17.1653 20.5227 16.9948 20.3183 16.8516 20.0952C17.0727 20.2424 17.2746 20.4166 17.4528 20.6136C17.8128 20.9484 18.2916 21.4236 18.8172 21.9564C19.3428 22.4892 19.8 22.9788 20.16 23.3388C20.3452 23.5219 20.5083 23.7261 20.646 23.9472V23.9472Z" fill="#E0E0E0"/>
<path d="M41.7602 45.8568C41.7602 45.8568 41.7602 45.8172 41.7602 45.7488C41.7602 45.6804 41.7602 45.5724 41.7602 45.4428C41.7602 45.1644 41.7602 44.7684 41.7602 44.2548C41.7602 43.2108 41.7602 41.6916 41.7386 39.7656C41.7386 35.91 41.7134 30.4056 41.699 23.8356L41.7782 23.9184H20.7146L20.8082 23.8248C20.8082 31.9068 20.8082 39.4668 20.8082 45.846L20.7254 45.7668L35.9786 45.8064L40.2662 45.828H41.4002H41.6918H41.4002H40.2842L36.0182 45.8496L20.711 45.8892H20.6318V45.81C20.6318 39.4308 20.6318 31.8708 20.6318 23.7888V23.76H20.729H41.7602H41.843V23.8428C41.825 30.4416 41.8106 35.9568 41.7998 39.8232C41.7998 41.742 41.7998 43.254 41.7782 44.2944C41.7782 44.802 41.7782 45.1944 41.7782 45.468C41.7782 45.594 41.7782 45.6912 41.7782 45.7668C41.775 45.7973 41.769 45.8274 41.7602 45.8568V45.8568Z" fill="#E0E0E0"/>
<path d="M34.7905 31.32H27.7417V38.3688H34.7905V31.32Z" fill="#EBEBEB"/>
<path d="M159.275 13.3271H117.292V74.178H159.275V13.3271Z" fill="#E0E0E0"/>
<path d="M157.169 13.3271H115.186V74.178H157.169V13.3271Z" fill="#F5F5F5"/>
<path d="M151.952 19.9152H120.402V67.5864H151.952V19.9152Z" fill="white"/>
<path d="M151.952 67.5865C151.952 67.5865 151.952 67.5036 151.952 67.3524C151.952 67.2012 151.952 66.9709 151.952 66.6757C151.952 66.0781 151.952 65.1996 151.952 64.062C151.952 61.776 151.952 58.4496 151.923 54.2412C151.923 45.8352 151.895 33.9336 151.873 19.9152L151.977 20.0196H120.431L120.546 19.9044C120.546 37.8865 120.546 54.4645 120.521 67.5757L120.431 67.4857L143.395 67.5324L149.742 67.554H151.405H151.981H151.423H149.778L143.453 67.5793L120.431 67.6261H120.341V67.5361C120.341 54.4285 120.341 37.8468 120.315 19.8648V19.8H120.434H151.981H152.085V19.9044C152.064 33.9444 152.046 45.8785 152.035 54.2989C152.035 58.4965 152.013 61.8156 152.006 64.0944C152.006 65.2248 152.006 66.0961 152.006 66.6901C152.006 66.9781 152.006 67.2012 152.006 67.3524C152.006 67.5036 151.952 67.5865 151.952 67.5865Z" fill="#E0E0E0"/>
<path d="M157.288 13.32C157.068 13.6997 156.817 14.0609 156.539 14.4C156.049 15.0516 155.358 15.9372 154.57 16.8984C153.781 17.8596 153.04 18.6984 152.492 19.3104C152.211 19.6556 151.899 19.9748 151.56 20.2644C151.797 19.8934 152.064 19.5429 152.359 19.2168C152.924 18.5364 153.616 17.694 154.382 16.7652L156.402 14.3136C156.667 13.9568 156.964 13.6243 157.288 13.32V13.32Z" fill="#E0E0E0"/>
<path d="M152.114 67.4316C153.683 69.9258 155.528 72.2348 157.615 74.3148Z" fill="white"/>
<path d="M157.615 74.3148C157.267 74.0564 156.946 73.7633 156.657 73.44C155.192 71.9515 153.884 70.3156 152.755 68.5584C152.502 68.2064 152.288 67.8287 152.114 67.4316C152.397 67.758 152.656 68.1045 152.888 68.4684C153.349 69.12 154.001 70.0092 154.76 70.956C155.52 71.9028 156.243 72.756 156.773 73.332C157.079 73.637 157.36 73.9656 157.615 74.3148V74.3148Z" fill="#E0E0E0"/>
<path d="M115.2 74.1276L120.697 67.3452Z" fill="white"/>
<path d="M120.679 67.3452C120.73 67.3848 119.538 68.9328 118.019 70.8084C116.5 72.684 115.229 74.1672 115.182 74.1276C115.135 74.088 116.323 72.5364 117.842 70.6644C119.362 68.7924 120.632 67.32 120.679 67.3452Z" fill="#E0E0E0"/>
<path d="M115.2 13.32C115.251 13.2804 116.446 14.706 117.871 16.5096C119.297 18.3132 120.409 19.8036 120.359 19.8432C119.414 18.8265 118.524 17.7606 117.691 16.65C116.803 15.585 115.971 14.4734 115.2 13.32V13.32Z" fill="#E0E0E0"/>
<path d="M142.121 29.5956H131.559V59.5908H142.121V29.5956Z" fill="#E0E0E0"/>
<path d="M134.726 137.88C134.69 137.92 134.406 137.75 134.085 137.495C133.765 137.239 133.538 136.998 133.57 136.955C133.603 136.912 133.891 137.084 134.211 137.34C134.532 137.596 134.758 137.83 134.726 137.88Z" fill="#263238"/>
<path d="M143.409 124.888C143.463 123.674 143.496 122.432 143.114 121.288C142.733 120.143 141.843 119.074 140.655 118.829C139.298 118.548 137.909 119.405 137.145 120.564C136.382 121.723 136.127 123.127 135.9 124.495C134.353 133.926 133.782 143.492 134.197 153.04L139.752 153.817C142.2 143.845 142.967 135.137 143.409 124.888Z" fill="#455A64"/>
<path d="M139.885 118.778C139.885 118.778 139.885 118.811 139.86 118.868C139.835 118.926 139.802 119.016 139.766 119.12C139.676 119.354 139.554 119.675 139.406 120.078C139.331 120.287 139.226 120.514 139.143 120.773L138.873 121.612C138.776 121.914 138.675 122.238 138.564 122.58L138.276 123.678C137.81 125.488 137.45 127.324 137.196 129.175C136.897 131.263 136.699 133.574 136.544 136.015C136.26 140.882 136.217 145.296 136.091 148.489C136.033 150.088 135.979 151.369 135.918 152.273C135.885 152.705 135.864 153.047 135.846 153.299L135.824 153.565C135.828 153.595 135.828 153.625 135.824 153.655C135.819 153.625 135.819 153.595 135.824 153.565C135.824 153.493 135.824 153.403 135.824 153.295C135.824 153.043 135.835 152.701 135.857 152.269C135.896 151.376 135.929 150.084 135.968 148.486C136.058 145.292 136.08 140.879 136.364 136.004C136.519 133.571 136.724 131.252 137.034 129.164C137.294 127.307 137.668 125.468 138.153 123.656L138.452 122.558L138.78 121.594L139.068 120.755C139.154 120.496 139.262 120.272 139.345 120.064C139.518 119.664 139.651 119.344 139.752 119.117L139.86 118.872C139.864 118.84 139.872 118.808 139.885 118.778V118.778Z" fill="#263238"/>
<path d="M140.4 118.8C140.69 119.142 140.92 119.53 141.08 119.948C141.506 121.098 141.68 122.326 141.588 123.548C141.44 126.616 141.163 130.842 140.799 135.511C140.436 140.18 140.04 144.36 139.68 147.427C139.514 148.95 139.374 150.185 139.269 151.027C139.215 151.438 139.172 151.765 139.143 152.006C139.143 152.107 139.114 152.19 139.104 152.258C139.103 152.288 139.097 152.317 139.086 152.345C139.081 152.316 139.081 152.287 139.086 152.258L139.104 152.003C139.125 151.758 139.154 151.43 139.194 151.016C139.276 150.145 139.395 148.914 139.554 147.416C139.845 144.364 140.23 140.141 140.598 135.475C140.965 130.81 141.26 126.58 141.444 123.52C141.547 122.316 141.398 121.105 141.004 119.963C140.84 119.557 140.637 119.168 140.4 118.8V118.8Z" fill="#263238"/>
<path d="M144.248 133.153C143.884 133.125 143.528 133.032 143.197 132.88C142.843 132.787 142.509 132.632 142.21 132.422C142.575 132.446 142.931 132.538 143.262 132.692C143.616 132.784 143.95 132.94 144.248 133.153V133.153Z" fill="#263238"/>
<path d="M144.918 127.494C144.281 127.921 143.576 128.236 142.833 128.426C143.468 127.995 144.174 127.68 144.918 127.494V127.494Z" fill="#263238"/>
<path d="M144.568 122.875C144.299 122.953 144.016 122.967 143.74 122.918C143.287 122.886 142.923 122.818 142.927 122.76C143.196 122.683 143.479 122.669 143.755 122.72C144.034 122.707 144.313 122.76 144.568 122.875V122.875Z" fill="#263238"/>
<path d="M138.841 119.916C138.794 119.945 138.549 119.642 138.297 119.239C138.045 118.836 137.876 118.487 137.937 118.458C137.999 118.429 138.225 118.732 138.477 119.135C138.729 119.538 138.888 119.88 138.841 119.916Z" fill="#263238"/>
<path d="M136.947 122.71C136.695 122.799 136.424 122.826 136.159 122.789C135.892 122.816 135.622 122.776 135.374 122.674C135.626 122.583 135.897 122.555 136.162 122.591C136.594 122.602 136.947 122.652 136.947 122.71Z" fill="#263238"/>
<path d="M135.586 128.297C135.297 128.285 135.014 128.207 134.758 128.07C134.319 127.894 133.981 127.71 134.002 127.656C134.292 127.668 134.575 127.746 134.83 127.883C135.27 128.059 135.608 128.246 135.586 128.297Z" fill="#263238"/>
<path d="M135.443 132.995C135.443 133.049 135.137 133.16 134.723 133.247C134.309 133.333 134.003 133.355 133.974 133.301C133.945 133.247 134.28 133.135 134.694 133.052C135.108 132.97 135.432 132.941 135.443 132.995Z" fill="#263238"/>
<path d="M134.802 140.684C134.574 140.821 134.318 140.901 134.053 140.918C133.628 140.994 133.275 141.012 133.268 140.958C133.261 140.904 133.592 140.8 134.017 140.724C134.271 140.647 134.541 140.633 134.802 140.684V140.684Z" fill="#263238"/>
<path d="M134.377 144.925C134.402 144.976 134.121 145.174 133.75 145.368C133.38 145.562 133.059 145.685 133.03 145.638C133.002 145.591 133.282 145.39 133.657 145.195C134.031 145.001 134.352 144.878 134.377 144.925Z" fill="#263238"/>
<path d="M137.844 149.76C137.793 149.789 137.552 149.45 137.297 149.008C137.118 148.753 136.995 148.463 136.937 148.158C136.983 148.129 137.228 148.468 137.48 148.91C137.657 149.166 137.781 149.455 137.844 149.76V149.76Z" fill="#263238"/>
<path d="M138.841 141.739C138.881 141.779 138.607 142.099 138.236 142.459C137.865 142.819 137.516 143.089 137.488 143.05C137.459 143.01 137.722 142.69 138.096 142.33C138.47 141.97 138.805 141.7 138.841 141.739Z" fill="#263238"/>
<path d="M138.621 137.538C138.582 137.578 138.33 137.369 138.056 137.077C137.783 136.786 137.599 136.519 137.639 136.48C137.678 136.44 137.934 136.649 138.204 136.944C138.474 137.239 138.661 137.52 138.621 137.538Z" fill="#263238"/>
<path d="M139.32 132.174C139.36 132.21 139.133 132.534 138.812 132.894C138.492 133.254 138.2 133.513 138.161 133.474C138.121 133.434 138.344 133.114 138.665 132.754C138.985 132.394 139.266 132.138 139.32 132.174Z" fill="#263238"/>
<path d="M139.68 128.279C139.644 128.318 139.32 128.07 138.96 127.724C138.6 127.379 138.355 127.066 138.395 127.026C138.434 126.986 138.755 127.238 139.115 127.584C139.475 127.93 139.734 128.239 139.68 128.279Z" fill="#263238"/>
<path d="M140.454 123.016C140.395 123.302 140.272 123.571 140.094 123.804C139.849 124.211 139.615 124.524 139.568 124.488C139.628 124.202 139.751 123.932 139.928 123.7C140.173 123.293 140.4 122.987 140.454 123.016Z" fill="#263238"/>
<path d="M141.887 118.138C141.842 118.42 141.735 118.69 141.574 118.926C141.35 119.336 141.131 119.646 141.084 119.621C141.128 119.338 141.235 119.068 141.397 118.832C141.62 118.44 141.84 118.112 141.887 118.138Z" fill="#263238"/>
<path d="M143.507 120.352C143.532 120.402 143.309 120.557 143.013 120.712C142.718 120.866 142.455 120.928 142.43 120.877C142.405 120.827 142.628 120.676 142.927 120.517C143.226 120.359 143.485 120.305 143.507 120.352Z" fill="#263238"/>
<path d="M143.546 137.88C143.17 137.883 142.799 137.793 142.466 137.617C142.106 137.499 141.783 137.291 141.526 137.012C141.879 137.12 142.22 137.261 142.545 137.434C142.894 137.547 143.229 137.696 143.546 137.88V137.88Z" fill="#263238"/>
<path d="M142.884 141.581C142.884 141.635 142.56 141.746 142.135 141.829C141.71 141.912 141.361 141.934 141.354 141.88C141.346 141.826 141.678 141.714 142.099 141.631C142.353 141.554 142.622 141.536 142.884 141.581V141.581Z" fill="#263238"/>
<path d="M142.07 147.96C141.728 147.792 141.436 147.536 141.224 147.218C140.963 146.94 140.779 146.597 140.691 146.225C140.946 146.493 141.176 146.784 141.379 147.092C141.633 147.362 141.864 147.652 142.07 147.96V147.96Z" fill="#263238"/>
<path d="M133.142 150.84C133.106 150.8 133.333 150.548 133.646 150.278C133.96 150.008 134.244 149.828 134.28 149.868C134.316 149.908 134.089 150.16 133.776 150.43C133.463 150.7 133.178 150.898 133.142 150.84Z" fill="#263238"/>
<path d="M130.579 136.969C130.219 135.839 129.539 134.525 128.354 134.507C128.002 134.526 127.661 134.639 127.367 134.836C127.074 135.032 126.839 135.304 126.687 135.623C126.363 136.253 126.208 136.956 126.237 137.664C126.384 142.69 127.241 147.67 128.783 152.456H133.103C133.058 147.195 132.207 141.972 130.579 136.969Z" fill="#455A64"/>
<path d="M122.738 129.863C122.13 127.44 120.323 126.133 118.224 126.011C116.309 126.346 115.563 128.232 115.344 130.165C115.124 132.098 115.704 134.021 116.309 135.875C118.209 141.822 120.109 147.77 122.007 153.72L127.407 153.13C125.694 145.163 124.715 137.772 122.738 129.863Z" fill="#455A64"/>
<path d="M128.354 134.507C128.217 134.701 128.096 134.907 127.994 135.122C127.77 135.734 127.7 136.392 127.789 137.038C127.876 137.862 127.969 138.838 128.106 139.943C128.243 141.048 128.444 142.225 128.689 143.467C129.179 145.958 129.73 148.194 130.082 149.825C130.259 150.638 130.392 151.297 130.478 151.758C130.514 151.967 130.543 152.143 130.568 152.287C130.583 152.348 130.589 152.411 130.586 152.474C130.56 152.417 130.54 152.357 130.529 152.294C130.493 152.154 130.453 151.981 130.403 151.772L129.946 149.854C129.56 148.234 128.984 146.005 128.506 143.507C128.264 142.258 128.07 141.059 127.94 139.964C127.872 139.417 127.825 138.884 127.782 138.406C127.739 137.927 127.688 137.466 127.663 137.048C127.587 136.383 127.681 135.709 127.937 135.09C128.033 134.868 128.176 134.67 128.354 134.507V134.507Z" fill="#263238"/>
<path d="M118.303 125.856C118.064 126.131 117.846 126.423 117.652 126.731C117.152 127.591 116.869 128.559 116.827 129.553C116.804 131.028 117.03 132.496 117.497 133.895C117.968 135.5 118.49 137.264 119.034 139.111L121.795 148.601C122.137 149.803 122.411 150.782 122.612 151.481C122.699 151.805 122.771 152.068 122.821 152.266C122.851 152.356 122.871 152.449 122.882 152.543C122.841 152.457 122.809 152.368 122.785 152.276C122.72 152.082 122.641 151.823 122.537 151.502C122.324 150.804 122.026 149.832 121.662 148.622L118.843 139.151C118.303 137.3 117.788 135.551 117.32 133.927C116.852 132.304 116.6 130.806 116.69 129.528C116.745 128.517 117.052 127.535 117.583 126.673C117.777 126.364 118.021 126.088 118.303 125.856V125.856Z" fill="#263238"/>
<path d="M126.226 152.557C126.176 152.476 126.135 152.389 126.104 152.298C126.032 152.125 125.917 151.873 125.794 151.538C125.539 150.876 125.208 149.9 124.869 148.676C124.531 147.452 124.189 145.973 123.865 144.328C123.541 142.682 123.206 140.864 122.846 138.96C122.486 137.056 122.054 135.266 121.572 133.661C121.152 132.239 120.626 130.85 119.998 129.506C119.578 128.602 119.097 127.726 118.558 126.886C118.371 126.583 118.198 126.367 118.105 126.209C118.045 126.133 117.994 126.051 117.954 125.964C118.02 126.032 118.082 126.106 118.137 126.184C118.245 126.335 118.425 126.544 118.623 126.842C119.193 127.671 119.699 128.541 120.139 129.445C120.787 130.789 121.329 132.182 121.759 133.61C122.283 135.358 122.715 137.131 123.055 138.924C123.415 140.825 123.75 142.639 124.056 144.292C124.362 145.944 124.693 147.413 125.017 148.64C125.341 149.868 125.65 150.844 125.884 151.52C125.992 151.859 126.097 152.114 126.154 152.291C126.184 152.378 126.208 152.467 126.226 152.557V152.557Z" fill="#263238"/>
<path d="M116.398 135C116.398 135.054 116.118 135.169 115.743 135.263C115.369 135.356 115.052 135.382 115.041 135.331C115.031 135.281 115.322 135.158 115.697 135.068C116.071 134.978 116.384 134.928 116.398 135Z" fill="#263238"/>
<path d="M115.826 131.303C115.224 131.408 114.61 131.432 114.001 131.375C114.589 131.169 115.224 131.144 115.826 131.303V131.303Z" fill="#263238"/>
<path d="M116.434 127.94C116.398 127.98 116.107 127.793 115.779 127.516C115.452 127.238 115.218 126.979 115.254 126.94C115.29 126.9 115.581 127.087 115.909 127.364C116.236 127.642 116.47 127.897 116.434 127.94Z" fill="#263238"/>
<path d="M118.08 124.826C118.134 124.826 118.119 125.1 118.109 125.42C118.098 125.741 118.109 126 118.044 126.007C117.979 126.014 117.9 125.752 117.911 125.413C117.921 125.075 118.026 124.816 118.08 124.826Z" fill="#263238"/>
<path d="M121.442 126.295C121.485 126.324 121.356 126.59 121.147 126.886C120.938 127.181 120.736 127.397 120.69 127.368C120.643 127.339 120.776 127.069 120.985 126.774C121.194 126.479 121.395 126.263 121.442 126.295Z" fill="#263238"/>
<path d="M123.624 130.082C123.642 130.136 123.365 130.298 122.997 130.442C122.63 130.586 122.321 130.669 122.299 130.619C122.277 130.568 122.558 130.406 122.925 130.259C123.293 130.111 123.602 130.032 123.624 130.082Z" fill="#263238"/>
<path d="M124.945 133.985C124.418 134.344 123.774 134.488 123.145 134.388C123.431 134.277 123.73 134.202 124.034 134.165C124.328 134.062 124.634 134.002 124.945 133.985Z" fill="#263238"/>
<path d="M118.868 132.876C118.818 132.876 118.868 132.592 118.955 132.275C119.041 131.958 119.174 131.717 119.228 131.731C119.282 131.746 119.228 132.019 119.142 132.332C119.055 132.646 118.922 132.894 118.868 132.876Z" fill="#263238"/>
<path d="M119.718 137.772C119.735 137.487 119.819 137.209 119.963 136.962C120.146 136.537 120.323 136.21 120.387 136.242C120.37 136.527 120.286 136.805 120.143 137.052C119.959 137.466 119.768 137.794 119.718 137.772Z" fill="#263238"/>
<path d="M117.623 139.111C117.601 139.165 117.263 139.072 116.845 138.942C116.427 138.812 116.1 138.694 116.125 138.64C116.15 138.586 116.485 138.622 116.92 138.751C117.356 138.881 117.644 139.064 117.623 139.111Z" fill="#263238"/>
<path d="M118.828 143.104C118.861 143.15 118.63 143.37 118.314 143.593C117.997 143.816 117.716 143.953 117.684 143.924C117.651 143.896 117.882 143.658 118.198 143.435C118.515 143.212 118.8 143.06 118.828 143.104Z" fill="#263238"/>
<path d="M119.797 147.085C119.797 147.139 119.527 147.254 119.16 147.341C118.793 147.427 118.487 147.46 118.476 147.406C118.465 147.352 118.749 147.24 119.113 147.15C119.477 147.06 119.786 147.031 119.797 147.085Z" fill="#263238"/>
<path d="M125.053 137.308C125.082 137.354 124.837 137.549 124.481 137.668C124.124 137.786 123.815 137.819 123.804 137.765C123.793 137.711 124.074 137.61 124.412 137.484C124.751 137.358 125.024 137.261 125.053 137.308Z" fill="#263238"/>
<path d="M125.805 143.5C125.78 143.55 125.489 143.464 125.154 143.305C124.819 143.147 124.563 142.978 124.589 142.927C124.614 142.877 124.902 142.967 125.237 143.125C125.571 143.284 125.827 143.453 125.805 143.5Z" fill="#263238"/>
<path d="M127.13 147.931C126.83 147.919 126.536 147.84 126.27 147.701C125.816 147.524 125.463 147.341 125.485 147.287C125.784 147.302 126.076 147.38 126.342 147.517C126.632 147.596 126.901 147.737 127.13 147.931V147.931Z" fill="#263238"/>
<path d="M120.01 151.402C119.984 151.355 120.337 151.117 120.748 150.793C121.158 150.469 121.468 150.185 121.514 150.224C121.561 150.264 121.295 150.617 120.87 150.944C120.633 151.176 120.334 151.334 120.01 151.402V151.402Z" fill="#263238"/>
<path d="M123.516 149.152C123.458 149.152 123.383 148.86 123.246 148.514C123.109 148.169 122.972 147.895 123.015 147.863C123.059 147.83 123.289 148.068 123.433 148.442C123.577 148.817 123.566 149.144 123.516 149.152Z" fill="#263238"/>
<path d="M122.587 143.82C122.554 143.867 122.328 143.759 122.079 143.579C121.831 143.399 121.658 143.219 121.69 143.179C121.723 143.14 121.95 143.24 122.194 143.42C122.439 143.6 122.619 143.777 122.587 143.82Z" fill="#263238"/>
<path d="M130.752 135.472C130.784 135.515 130.565 135.731 130.259 135.958C129.953 136.184 129.683 136.318 129.65 136.282C129.618 136.246 129.837 136.022 130.143 135.796C130.449 135.569 130.719 135.425 130.752 135.472Z" fill="#263238"/>
<path d="M131.983 138.834C131.983 138.888 131.645 138.96 131.216 138.913C130.788 138.866 130.468 138.722 130.496 138.672C130.525 138.622 130.856 138.672 131.249 138.715C131.641 138.758 131.98 138.78 131.983 138.834Z" fill="#263238"/>
<path d="M126.691 139.59C126.691 139.64 126.385 139.756 125.971 139.784C125.557 139.813 125.226 139.741 125.233 139.687C125.24 139.633 125.561 139.612 125.953 139.586C126.345 139.561 126.68 139.536 126.691 139.59Z" fill="#263238"/>
<path d="M127.148 136.408C127.148 136.462 126.821 136.469 126.468 136.307C126.115 136.145 125.91 135.893 125.946 135.857C125.982 135.821 126.227 135.979 126.551 136.127C126.875 136.274 127.156 136.354 127.148 136.408Z" fill="#263238"/>
<path d="M132.437 142.448C132.166 142.387 131.914 142.264 131.699 142.088C131.321 141.851 131.036 141.62 131.065 141.574C131.094 141.527 131.425 141.682 131.803 141.934C132.181 142.186 132.48 142.402 132.437 142.448Z" fill="#263238"/>
<path d="M145.346 151.891H117.119V156.895H145.346V151.891Z" fill="#008C96"/>
<path d="M119.228 155.902L122.659 170.849H139.482L143.24 155.902H119.228Z" fill="#008C96"/>
<path d="M145.332 156.899C145.332 156.953 138.963 157 131.112 157C123.26 157 116.892 156.953 116.892 156.899C116.892 156.845 123.256 156.798 131.112 156.798C138.967 156.798 145.332 156.845 145.332 156.899Z" fill="#263238"/>
<path d="M129.632 139.698C129.585 139.727 129.394 139.504 129.204 139.198C129.013 138.892 128.894 138.618 128.941 138.589C128.988 138.56 129.178 138.784 129.369 139.09C129.56 139.396 129.679 139.68 129.632 139.698Z" fill="#263238"/>
<path d="M129.643 143.723C129.629 143.461 129.68 143.2 129.79 142.963C129.924 142.56 130.075 142.243 130.129 142.268C130.142 142.53 130.092 142.791 129.981 143.028C129.848 143.428 129.697 143.741 129.643 143.723Z" fill="#263238"/>
<path d="M131.04 147.96C130.989 147.985 130.78 147.647 130.568 147.204C130.411 146.949 130.311 146.663 130.276 146.365C130.327 146.344 130.536 146.678 130.748 147.121C130.905 147.376 131.005 147.662 131.04 147.96V147.96Z" fill="#263238"/>
<path d="M128.041 151.348C127.998 151.312 128.167 151.052 128.401 150.764C128.635 150.476 128.887 150.275 128.927 150.311C128.966 150.347 128.801 150.606 128.567 150.894C128.333 151.182 128.081 151.384 128.041 151.348Z" fill="#263238"/>
<path d="M127.414 145.177C127.414 145.231 127.134 145.228 126.81 145.177C126.486 145.127 126.226 145.03 126.237 144.976C126.248 144.922 126.518 144.925 126.842 144.976C127.166 145.026 127.44 145.123 127.414 145.177Z" fill="#263238"/>
<path d="M61.0881 44.8884L57.8697 39.2148C59.8632 35.9819 60.5754 32.1202 59.8661 28.3888C59.1569 24.6574 57.0776 21.3263 54.0369 19.0502C50.9963 16.7742 47.2142 15.7178 43.4342 16.0888C39.6542 16.4598 36.1496 18.2313 33.6095 21.055C31.0693 23.8788 29.6773 27.5506 29.707 31.3487C29.7367 35.1468 31.1861 38.7963 33.7701 41.58C36.3542 44.3637 39.886 46.0801 43.6714 46.3919C47.4567 46.7037 51.2218 45.5882 54.2265 43.2648L61.0881 44.8884Z" fill="#FAFAFA"/>
<path d="M61.0883 44.8884L54.2123 43.3188H54.1439L54.1871 43.2612L54.2519 43.3296C53.2889 44.0765 52.2413 44.7072 51.1307 45.2088C49.8072 45.8019 48.4059 46.2031 46.9691 46.4004C46.1738 46.5113 45.3702 46.5511 44.5679 46.5192C44.1539 46.4976 43.7327 46.4868 43.3079 46.4508L42.0263 46.2564C39.0622 45.6756 36.3362 44.2308 34.1915 42.1041C32.0468 39.9773 30.5792 37.2635 29.9735 34.3044C29.5355 32.0674 29.597 29.7613 30.1535 27.5508C30.7224 25.2422 31.833 23.1024 33.3935 21.3084L34.0127 20.628C34.2143 20.3976 34.4591 20.2068 34.6787 19.998C34.8983 19.7892 35.1179 19.5732 35.3699 19.3968L36.0899 18.8532C36.3287 18.6691 36.5801 18.5019 36.8423 18.3528L37.6127 17.8848L38.4191 17.496C38.6825 17.3591 38.9542 17.2389 39.2327 17.136C41.3936 16.2818 43.7191 15.9249 46.0367 16.092C48.2286 16.2413 50.3609 16.8705 52.2827 17.9352C55.7295 19.8598 58.3066 23.0335 59.4827 26.802C59.9501 28.4058 60.1723 30.071 60.1415 31.7412C60.0625 34.4065 59.28 37.0035 57.8735 39.2688V39.222L61.0523 44.9172L57.8303 39.24V39.2148V39.1932C58.4517 38.1745 58.9531 37.0873 59.3243 35.9532C59.7641 34.5846 60.0066 33.1603 60.0443 31.7232C60.0696 30.0679 59.8438 28.4184 59.3747 26.8308C58.2012 23.1033 55.6421 19.9682 52.2251 18.072C50.3233 17.0281 48.2159 16.4137 46.0511 16.272C43.7635 16.1012 41.4667 16.4457 39.3299 17.28C39.0529 17.3835 38.7824 17.5037 38.5199 17.64L37.7243 18.0288L36.9647 18.4896C36.7058 18.6376 36.4569 18.8023 36.2195 18.9828L35.4995 19.5228C35.2547 19.6956 35.0495 19.9188 34.8191 20.1132C34.5887 20.3076 34.3655 20.52 34.1639 20.7324L33.5519 21.4056C32.0057 23.1767 30.9036 25.2906 30.3371 27.5724C29.7866 29.7555 29.7239 32.0331 30.1535 34.2432C30.5712 36.3337 31.4304 38.3109 32.6735 40.0428C34.9159 43.1698 38.2609 45.3299 42.0335 46.0872L43.3043 46.2816C43.7255 46.3176 44.1431 46.332 44.5535 46.3536C45.3484 46.3878 46.1448 46.3505 46.9331 46.242C48.3586 46.053 49.75 45.6627 51.0659 45.0828C52.1719 44.587 53.2169 43.9648 54.1799 43.2288L54.4607 43.0128L54.2447 43.2936L54.2195 43.2216L61.0883 44.8884Z" fill="#263238"/>
<path d="M34.8945 32.8356L35.2797 31.9788C35.7567 32.3102 36.3226 32.4896 36.9033 32.4936C37.5765 32.4936 37.8537 32.2668 37.8537 31.9644C37.8537 31.0428 34.9737 31.6764 34.9737 29.8476C34.9737 29.0124 35.6469 28.3176 37.0473 28.3176C37.6451 28.3052 38.235 28.4558 38.7537 28.7532L38.3937 29.6172C37.9947 29.3807 37.5432 29.247 37.0797 29.2284C36.4029 29.2284 36.1437 29.484 36.1437 29.7936C36.1437 30.7008 39.0237 30.0744 39.0237 31.8816C39.0237 32.7024 38.3433 33.408 36.9357 33.408C36.2125 33.4326 35.4995 33.2327 34.8945 32.8356Z" fill="#263238"/>
<path d="M39.4092 31.4316C39.4092 30.2904 40.2876 29.484 41.49 29.484C42.6924 29.484 43.56 30.2904 43.56 31.4316C43.56 32.5728 42.6888 33.3792 41.4864 33.3792C40.284 33.3792 39.4092 32.5692 39.4092 31.4316ZM42.4512 31.4316C42.4358 31.2439 42.366 31.0648 42.2503 30.9162C42.1347 30.7675 41.9782 30.6558 41.8001 30.5948C41.6219 30.5337 41.4298 30.5259 41.2473 30.5723C41.0648 30.6187 40.8998 30.7173 40.7725 30.8561C40.6452 30.9949 40.5611 31.1678 40.5305 31.3536C40.4999 31.5394 40.5242 31.7301 40.6003 31.9024C40.6765 32.0746 40.8012 32.2209 40.9592 32.3234C41.1172 32.4258 41.3017 32.48 41.49 32.4792C41.6241 32.4809 41.7572 32.4542 41.8803 32.401C42.0035 32.3477 42.114 32.2691 42.2047 32.1703C42.2954 32.0714 42.3643 31.9545 42.4067 31.8272C42.4492 31.6999 42.4644 31.5651 42.4512 31.4316V31.4316Z" fill="#263238"/>
<path d="M46.6414 29.484V30.4956C46.5514 30.4956 46.4794 30.4956 46.3966 30.4956C46.257 30.483 46.1163 30.502 45.985 30.5512C45.8537 30.6005 45.7352 30.6787 45.6383 30.7801C45.5415 30.8814 45.4687 31.0033 45.4254 31.1367C45.3822 31.2701 45.3696 31.4115 45.3886 31.5504V33.3504H44.3086V29.538H45.3598V30.0384C45.5135 29.8503 45.7101 29.7017 45.9331 29.6053C46.1561 29.5088 46.399 29.4672 46.6414 29.484Z" fill="#263238"/>
<path d="M49.6438 29.484V30.4956C49.5502 30.4956 49.4818 30.4956 49.3954 30.4956C48.7906 30.4956 48.391 30.8268 48.391 31.5504V33.3504H47.311V29.538H48.3586V30.0384C48.5133 29.8504 48.7106 29.702 48.9341 29.6056C49.1576 29.5092 49.401 29.4675 49.6438 29.484V29.484Z" fill="#263238"/>
<path d="M54.1833 29.538L52.4769 33.5556C52.1169 34.4664 51.5877 34.7436 50.9073 34.7436C50.5249 34.7479 50.1526 34.6208 49.8525 34.3836L50.2521 33.6024C50.4243 33.7523 50.6432 33.8376 50.8713 33.8436C51.1737 33.8436 51.3429 33.7068 51.4905 33.372V33.336L49.8525 29.5236H50.9829L52.0629 32.0904L53.1429 29.5236L54.1833 29.538Z" fill="#263238"/>
<path d="M54.4717 32.7384C54.4841 32.5679 54.5607 32.4084 54.6859 32.292C54.8111 32.1756 54.9757 32.1109 55.1467 32.1109C55.3176 32.1109 55.4823 32.1756 55.6075 32.292C55.7327 32.4084 55.8092 32.5679 55.8217 32.7384C55.8092 32.9089 55.7327 33.0684 55.6075 33.1848C55.4823 33.3012 55.3176 33.3659 55.1467 33.3659C54.9757 33.3659 54.8111 33.3012 54.6859 33.1848C54.5607 33.0684 54.4841 32.9089 54.4717 32.7384V32.7384ZM54.4933 28.4184H55.8001L55.5805 31.6332H54.7201L54.4933 28.4184Z" fill="#263238"/>
<path d="M76.1758 54.18L81.7666 52.1101L95.6122 51.0948L99.2554 52.2073L94.3414 73.3752L82.2634 75.9852L76.6618 68.5512L76.1758 54.18Z" fill="#FFBE9D"/>
<path d="M107.546 55.044L98.5211 51.84C98.5211 51.84 90.0575 63.9468 76.1759 54.162C76.1759 54.162 70.0883 56.3508 69.1811 56.8548C68.2739 57.3588 73.4147 72.7416 73.4147 72.7416L72.8099 91.8684C80.7299 95.9544 93.4019 94.4352 104.432 92.5884L104.115 71.3484L107.546 55.044Z" fill="#008C96"/>
<path d="M104.04 37.692C104.508 37.0194 104.713 36.1987 104.617 35.385C104.521 34.5712 104.13 33.8209 103.519 33.2757C102.907 32.7305 102.117 32.4283 101.297 32.4261C100.478 32.4239 99.6863 32.722 99.0718 33.264L97.2718 36.4572C96.2617 37.6651 95.5986 39.1247 95.353 40.68C95.1204 42.2505 95.4951 43.8507 96.4006 45.1548C96.8548 45.7854 97.4397 46.3106 98.1155 46.6944C98.7913 47.0782 99.5419 47.3116 100.316 47.3787C101.09 47.4458 101.87 47.345 102.602 47.0832C103.333 46.8214 104 46.4047 104.556 45.8616C105.112 45.3185 105.544 44.6619 105.823 43.9365C106.102 43.2111 106.221 42.434 106.172 41.6584C106.123 40.8828 105.907 40.1269 105.539 39.4424C105.171 38.7578 104.66 38.1608 104.04 37.692V37.692Z" fill="#263238"/>
<path d="M99.36 37.9404C99.306 36.8604 99.1908 35.7804 99.4968 34.7328C99.649 34.3559 99.7483 33.9597 99.792 33.5556C99.7894 33.2614 99.6967 32.9751 99.5264 32.7351C99.3561 32.4952 99.1164 32.3132 98.8396 32.2136C98.5627 32.114 98.262 32.1016 97.9779 32.178C97.6938 32.2545 97.4399 32.4161 97.2504 32.6412L97.2 32.76C96.5772 33.264 96.2784 34.0596 96.0336 34.8228C95.6564 36.0123 95.3487 37.2228 95.112 38.448C94.9453 39.1309 94.9051 39.8386 94.9932 40.536C95.0403 40.8836 95.1688 41.2151 95.3684 41.5035C95.568 41.7919 95.8329 42.0291 96.1416 42.1956C97.1208 42.6492 98.3304 42.0228 98.8668 41.0904C99.4032 40.158 99.4248 39.0132 99.36 37.9404Z" fill="#008C96"/>
<path d="M98.0281 34.2396C97.8229 33.0156 97.2901 31.8636 97.1029 30.6396C96.8581 29.0304 97.2217 27.3996 97.3117 25.7724C97.4017 24.1452 97.1461 22.356 95.9545 21.2472C94.6837 20.0628 92.7721 20.0088 91.0621 19.6992C89.1181 19.3392 87.2749 18.5796 85.3633 18.072C83.4517 17.5644 81.3817 17.3232 79.5313 18.018C77.8573 18.6444 76.5469 19.9584 75.3625 21.294C73.4401 23.4576 71.6401 26.0208 71.6401 28.9152C71.6401 30.4164 72.1693 31.8708 72.3601 33.3612C72.5437 34.8012 72.4285 36.2412 72.7633 37.6812C73.0981 39.1212 74.0485 40.4892 75.4669 40.7484L91.0261 42.3036C92.0471 42.3319 93.0617 42.1335 93.9968 41.7225C94.9319 41.3116 95.7642 40.6985 96.4339 39.9273C97.1035 39.156 97.5939 38.2459 97.8695 37.2624C98.1452 36.2789 98.1994 35.2465 98.0281 34.2396V34.2396Z" fill="#263238"/>
<path d="M93.7943 26.6076L93.7547 24.7032L82.2347 22.9932C78.6995 22.7628 75.0347 26.4492 74.9555 29.9916C74.8691 33.9264 74.9159 38.736 75.4991 41.6484C76.6727 47.502 81.2195 48.0672 81.2195 48.0672V51.3936C81.2214 53.1657 81.9265 54.8646 83.1799 56.1174C84.4333 57.3701 86.1326 58.0742 87.9047 58.0752V58.0752C88.8008 58.0752 89.6877 57.895 90.5128 57.5454C91.3379 57.1958 92.0842 56.6839 92.7075 56.0401C93.3308 55.3963 93.8184 54.6338 94.1411 53.7978C94.4639 52.9619 94.6153 52.0696 94.5863 51.174L93.7943 26.6076Z" fill="#FFBE9D"/>
<path d="M77.3999 33.9156C77.4101 34.1101 77.4945 34.2933 77.6359 34.4273C77.7773 34.5613 77.9647 34.6359 78.1595 34.6356C78.2567 34.64 78.3539 34.6246 78.445 34.5904C78.5361 34.5562 78.6194 34.5038 78.6897 34.4365C78.76 34.3692 78.816 34.2884 78.8542 34.1988C78.8924 34.1093 78.912 34.013 78.9119 33.9156C78.9017 33.7211 78.8173 33.5379 78.6759 33.4039C78.5345 33.2699 78.3471 33.1953 78.1523 33.1956C78.0551 33.1912 77.9579 33.2066 77.8668 33.2408C77.7757 33.2751 77.6924 33.3274 77.6221 33.3947C77.5518 33.462 77.4958 33.5429 77.4576 33.6324C77.4194 33.7219 77.3998 33.8183 77.3999 33.9156V33.9156Z" fill="#263238"/>
<path d="M76.3197 32.4432C76.4169 32.5368 76.9749 32.0832 77.7849 32.0616C78.5949 32.04 79.2249 32.4216 79.2969 32.31C79.3365 32.2632 79.2357 32.0904 78.9657 31.9104C78.6036 31.682 78.1801 31.5701 77.7525 31.59C77.3302 31.605 76.9238 31.7552 76.5933 32.0184C76.3413 32.22 76.2657 32.4 76.3197 32.4432Z" fill="#263238"/>
<path d="M85.0933 33.6564C85.1034 33.8509 85.1879 34.0341 85.3293 34.1681C85.4706 34.3021 85.6581 34.3767 85.8529 34.3764C85.9501 34.3808 86.0472 34.3654 86.1384 34.3312C86.2295 34.297 86.3127 34.2446 86.3831 34.1773C86.4534 34.11 86.5093 34.0292 86.5475 33.9396C86.5857 33.8501 86.6054 33.7537 86.6053 33.6564C86.5951 33.4619 86.5106 33.2787 86.3693 33.1447C86.2279 33.0107 86.0404 32.9361 85.8457 32.9364C85.7484 32.932 85.6513 32.9474 85.5602 32.9816C85.469 33.0158 85.3858 33.0682 85.3155 33.1355C85.2451 33.2028 85.1892 33.2836 85.151 33.3732C85.1128 33.4627 85.0932 33.5591 85.0933 33.6564V33.6564Z" fill="#263238"/>
<path d="M84.3118 32.2704C84.409 32.364 84.9635 31.9104 85.7771 31.8888C86.5907 31.8672 87.2171 32.2488 87.2855 32.1372C87.3287 32.0904 87.2279 31.9176 86.9579 31.7376C86.5958 31.5092 86.1723 31.3974 85.7446 31.4172C85.3274 31.4355 84.9266 31.5855 84.5999 31.8456C84.3407 32.04 84.265 32.2272 84.3118 32.2704Z" fill="#263238"/>
<path d="M81.6049 38.4192C81.1715 38.303 80.7252 38.2414 80.2765 38.2356C80.0677 38.2356 79.8697 38.1888 79.8265 38.0484C79.8025 37.8351 79.8427 37.6196 79.9417 37.4292C80.1181 36.918 80.3017 36.3816 80.4925 35.8236C81.2521 33.5376 81.7957 31.68 81.7201 31.6296C81.6445 31.5792 80.9353 33.4296 80.1757 35.7156C79.9921 36.2772 79.8157 36.8136 79.6501 37.3284C79.5222 37.5861 79.4903 37.8809 79.5601 38.16C79.5938 38.2325 79.6439 38.2963 79.7063 38.3462C79.7688 38.3962 79.842 38.431 79.9201 38.448C80.0381 38.4751 80.1591 38.4872 80.2801 38.484C80.7227 38.5189 81.1679 38.4972 81.6049 38.4192V38.4192Z" fill="#263238"/>
<path d="M81.2339 48.0816C84.0744 48.011 86.8416 47.1658 89.2367 45.6372C89.2367 45.6372 87.3539 49.86 81.2339 49.5648V48.0816Z" fill="#EB996E"/>
<path d="M82.0293 40.3668C82.1742 40.1643 82.369 40.0028 82.5949 39.898C82.8208 39.7933 83.07 39.7489 83.3181 39.7692C83.4988 39.7768 83.676 39.8212 83.8388 39.8999C84.0017 39.9785 84.1467 40.0896 84.2649 40.2264C84.3782 40.3577 84.4486 40.5205 84.4666 40.693C84.4846 40.8655 84.4494 41.0393 84.3657 41.1912C84.2409 41.3423 84.0739 41.4528 83.8861 41.5085C83.6982 41.5643 83.498 41.5629 83.3109 41.5044C82.9222 41.3849 82.5611 41.1891 82.2489 40.9284C82.1539 40.8658 82.071 40.7865 82.0041 40.6944C81.9753 40.6493 81.96 40.5968 81.96 40.5432C81.96 40.4896 81.9753 40.4372 82.0041 40.392" fill="#EB996E"/>
<path d="M88.0631 29.8548C88.0163 29.6244 87.1955 29.61 86.2631 29.358C85.3307 29.106 84.6071 28.7352 84.4631 28.9152C84.3947 28.998 84.4955 29.2248 84.7727 29.4804C85.1458 29.8011 85.5871 30.0326 86.063 30.1573C86.5389 30.2821 87.037 30.2968 87.5195 30.2004C87.8831 30.1104 88.0811 29.9628 88.0631 29.8548Z" fill="#263238"/>
<path d="M78.6565 29.268C78.4009 29.1924 77.8177 29.7072 77.0185 30.132C76.2193 30.5568 75.4705 30.7872 75.4021 31.0392C75.3769 31.158 75.5677 31.266 75.9457 31.2696C76.4656 31.25 76.9731 31.1056 77.4253 30.8484C77.8836 30.6127 78.2767 30.2677 78.5701 29.844C78.7681 29.52 78.7753 29.3112 78.6565 29.268Z" fill="#263238"/>
<path d="M91.6452 20.988L82.7604 21.6864L75.3984 24.2244C76.3452 26.2872 76.5252 27.9828 78.786 28.1844C79.9194 28.2832 81.0591 28.0899 82.0965 27.6229C83.1338 27.1559 84.0342 26.4308 84.7116 25.5168C85.0932 27.1872 86.976 28.0368 88.6716 28.2744C89.8718 28.4919 91.1084 28.3799 92.25 27.9504C93.3624 27.4752 94.3056 26.4744 94.4568 25.272C94.608 24.0696 92.8404 21.186 91.6452 20.988Z" fill="#263238"/>
<path d="M98.6832 26.892C98.1882 25.9734 97.3775 25.2649 96.4008 24.8976L96.174 23.1732L89.5896 25.2504C88.0308 27.72 88.7436 31.32 91.1484 33.0516L91.1772 34.3008C91.2059 35.6107 91.5677 36.8918 92.2284 38.0232L94.3164 42.57C95.85 42.606 96.1992 40.9464 96.8076 39.5892C97.416 38.232 97.4232 36.7092 97.3692 35.2188C97.3428 34.4988 97.3056 33.7788 97.2576 33.0588C97.7256 32.2668 98.3916 31.5288 98.784 30.6864C99.0572 30.088 99.1901 29.4351 99.1726 28.7776C99.1552 28.12 98.9877 27.4751 98.6832 26.892Z" fill="#263238"/>
<path d="M92.0557 34.6824C92.1457 34.6356 95.6557 33.2424 95.8681 36.936C96.0805 40.6296 92.3437 40.0824 92.3329 39.978C92.3221 39.8736 92.0557 34.6824 92.0557 34.6824Z" fill="#FFBE9D"/>
<path d="M93.373 38.52C93.373 38.52 93.4414 38.5632 93.553 38.6064C93.7093 38.6618 93.8811 38.654 94.0318 38.5848C94.4134 38.4192 94.705 37.782 94.6798 37.116C94.671 36.7999 94.591 36.4898 94.4458 36.2088C94.4046 36.0957 94.3366 35.9944 94.2475 35.9135C94.1585 35.8326 94.0511 35.7745 93.9346 35.7444C93.861 35.7314 93.7851 35.7439 93.7197 35.78C93.6542 35.816 93.603 35.8733 93.5746 35.9424C93.5314 36.0504 93.5566 36.1224 93.5386 36.1296C93.5206 36.1368 93.4558 36.072 93.4774 35.9172C93.4919 35.8254 93.5377 35.7415 93.607 35.6796C93.656 35.637 93.7132 35.6048 93.7751 35.585C93.837 35.5652 93.9023 35.5582 93.967 35.5644C94.1226 35.5826 94.2707 35.641 94.397 35.7338C94.5232 35.8265 94.6231 35.9505 94.687 36.0936C94.8627 36.4039 94.9603 36.7524 94.9714 37.1088C94.993 37.854 94.6546 38.5704 94.129 38.754C94.0324 38.7896 93.929 38.8026 93.8267 38.792C93.7243 38.7814 93.6257 38.7474 93.5386 38.6928C93.3838 38.6028 93.3622 38.52 93.373 38.52Z" fill="#EB996E"/>
<path d="M98.2979 26.4528C98.3555 26.4528 98.3915 26.6364 98.3339 26.9352C98.2351 27.3606 98.0308 27.7543 97.7399 28.08C97.3011 28.584 96.7093 28.9304 96.0551 29.0664C95.2919 29.2284 94.5287 29.0664 93.8951 29.1348C93.5593 29.1835 93.229 29.2642 92.9087 29.376C92.7359 29.4264 92.5487 29.4768 92.3687 29.5164C92.1887 29.556 92.0087 29.5848 91.8359 29.6064C91.2025 29.7046 90.5549 29.6515 89.9459 29.4516C89.5284 29.3117 89.1556 29.0632 88.8659 28.7316C88.6715 28.4976 88.6211 28.332 88.6643 28.2924C88.7723 28.1844 89.2259 28.6524 90.1043 28.8072C90.6303 28.8852 91.1663 28.8644 91.6847 28.746C91.8359 28.7172 91.9907 28.6812 92.1455 28.6416C92.3003 28.602 92.4515 28.548 92.6171 28.4904C92.9927 28.3497 93.3826 28.2507 93.7799 28.1952C94.6583 28.1196 95.3495 28.2996 95.8967 28.1952C96.4 28.12 96.8731 27.9083 97.2647 27.5832C97.9739 27.0252 98.1575 26.4168 98.2979 26.4528Z" fill="white"/>
<path d="M84.8267 39.9204C84.8483 40.0248 84.1283 40.2444 83.3291 40.6692C82.5299 41.094 81.9395 41.562 81.8639 41.4828C81.7883 41.4036 82.2923 40.7916 83.1527 40.338C84.0131 39.8844 84.8123 39.8232 84.8267 39.9204Z" fill="#263238"/>
<path d="M85.471 40.482C85.4206 40.4568 85.5106 40.2012 85.435 39.8952C85.3594 39.5892 85.183 39.3912 85.2154 39.3516C85.2478 39.312 85.5358 39.474 85.6186 39.852C85.7014 40.23 85.5106 40.5144 85.471 40.482Z" fill="#EB996E"/>
<path d="M87.181 34.5312C87.2242 34.5528 87.0478 34.8912 86.6302 35.0928C86.2126 35.2944 85.8346 35.208 85.849 35.1576C85.8634 35.1072 86.191 35.1 86.551 34.9236C86.911 34.7472 87.1378 34.4988 87.181 34.5312Z" fill="#EB996E"/>
<path d="M87.5229 34.8156C87.5661 34.8444 87.4293 35.0856 87.1377 35.244C86.8461 35.4024 86.5725 35.388 86.5689 35.3376C86.5653 35.2872 86.7957 35.2188 87.0477 35.0784C87.2997 34.938 87.4797 34.7832 87.5229 34.8156Z" fill="#EB996E"/>
<path d="M77.4395 35.5968C77.4395 35.6472 77.2379 35.6796 77.0291 35.5716C76.8203 35.4636 76.7303 35.2836 76.7699 35.2512C76.8095 35.2188 76.9427 35.316 77.1299 35.4024C77.3171 35.4888 77.4431 35.5428 77.4395 35.5968Z" fill="#EB996E"/>
<path d="M77.3997 36.0324C77.3997 36.0828 77.1693 36.0864 76.9245 35.9748C76.6797 35.8632 76.5321 35.6904 76.5645 35.6544C76.5969 35.6184 76.7805 35.7048 77.0001 35.8056C77.2197 35.9064 77.4177 36 77.3997 36.0324Z" fill="#EB996E"/>
<path d="M82.6378 28.8324C82.2238 29.1653 81.7218 29.3706 81.1932 29.423C80.6645 29.4754 80.132 29.3728 79.6606 29.1276C80.1603 29.2196 80.6686 29.2558 81.1762 29.2356C81.6769 29.1558 82.1671 29.0205 82.6378 28.8324V28.8324Z" fill="#EB996E"/>
<path d="M82.9871 29.2104C82.9082 29.3573 82.7986 29.4855 82.6656 29.5861C82.5327 29.6868 82.3796 29.7576 82.2167 29.7936C82.0634 29.8593 81.8975 29.8904 81.7307 29.8848C81.564 29.8793 81.4006 29.837 81.252 29.7612C81.5568 29.7286 81.8597 29.6793 82.1591 29.6136C82.6415 29.466 82.9475 29.16 82.9871 29.2104Z" fill="#EB996E"/>
<path d="M76.5395 26.9388C76.5395 26.9388 76.5035 26.9064 76.4495 26.8344C76.3697 26.7289 76.3009 26.6155 76.2442 26.496C76.0375 26.0538 75.9376 25.5691 75.9527 25.0812C75.9527 23.8464 76.6726 22.1616 78.1126 20.934C78.7804 20.3543 79.5595 19.9169 80.4022 19.6488C81.0877 19.4327 81.8041 19.3305 82.5226 19.3464C83.0085 19.3526 83.4919 19.4166 83.9626 19.5372C84.1246 19.5804 84.2506 19.62 84.3226 19.6524C84.3946 19.6848 84.4487 19.7028 84.4451 19.71C83.8116 19.566 83.165 19.4876 82.5155 19.476C81.8121 19.4807 81.1137 19.5949 80.4455 19.8144C79.6305 20.0844 78.8769 20.5126 78.2279 21.0744C76.8383 22.2696 76.1182 23.8932 76.0931 25.0848C76.0669 25.5566 76.1443 26.0284 76.3199 26.4672C76.4423 26.7768 76.5539 26.928 76.5395 26.9388Z" fill="#455A64"/>
<path d="M89.8198 28.2636C89.7122 28.2566 89.6065 28.2323 89.5066 28.1916C89.2295 28.0971 88.9619 27.9766 88.7074 27.8316C87.8581 27.3555 87.132 26.6873 86.587 25.8804C86.3123 25.4147 86.1359 24.8977 86.0686 24.3612C86.0054 23.9311 85.9801 23.4962 85.993 23.0616C86.0008 22.7695 86.0297 22.4783 86.0794 22.1904C86.089 22.0836 86.1158 21.9791 86.1586 21.8808C86.191 21.8808 86.1154 22.3344 86.1262 23.0652C86.1304 23.4899 86.1678 23.9135 86.2378 24.3324C86.3136 24.8404 86.4859 25.3292 86.7454 25.7724C87.2781 26.5569 87.9699 27.2204 88.7758 27.72C89.395 28.1016 89.8306 28.2348 89.8198 28.2636Z" fill="#455A64"/>
<path d="M79.3509 26.8884C79.2947 26.7748 79.2559 26.6535 79.2357 26.5284C79.1646 26.1973 79.132 25.859 79.1385 25.5204C79.1434 24.3819 79.552 23.2821 80.2916 22.4166C81.0312 21.551 82.0539 20.976 83.1777 20.7936C83.5114 20.7341 83.851 20.7148 84.1893 20.736C84.3112 20.737 84.4324 20.7552 84.5493 20.79C84.0944 20.8038 83.641 20.8483 83.1921 20.9232C82.1146 21.1356 81.1403 21.7053 80.4268 22.5403C79.7134 23.3753 79.3026 24.4265 79.2609 25.524C79.2566 25.9804 79.2866 26.4365 79.3509 26.8884V26.8884Z" fill="#455A64"/>
<path d="M91.2778 19.9332C90.5073 19.8241 89.724 19.8424 88.9594 19.9872C88.2066 20.1883 87.4925 20.5132 86.8462 20.9484C86.9853 20.7587 87.1617 20.5995 87.3646 20.4804C88.3129 19.8345 89.4698 19.5697 90.6046 19.7388C90.8394 19.7596 91.068 19.8256 91.2778 19.9332V19.9332Z" fill="#455A64"/>
<path d="M104.274 37.7676C104.087 37.962 103.143 37.3284 101.855 36.954C100.566 36.5796 99.4353 36.5544 99.3885 36.288C99.3705 36.1656 99.6513 35.9964 100.155 35.9064C100.815 35.8099 101.489 35.8602 102.127 36.0537C102.766 36.2473 103.353 36.5792 103.849 37.026C104.216 37.3788 104.357 37.6776 104.274 37.7676Z" fill="white"/>
<path d="M103.709 38.7288C103.709 38.7288 103.871 38.646 104.152 38.484C104.543 38.2544 104.89 37.9569 105.178 37.6056C105.605 37.093 105.875 36.468 105.955 35.8056C106.037 34.9888 105.82 34.17 105.343 33.5016C104.853 32.8337 104.132 32.3728 103.32 32.2092C102.661 32.0683 101.981 32.0683 101.322 32.2092C100.715 32.3559 100.12 32.546 99.54 32.778C99.6783 32.6786 99.8282 32.5964 99.9864 32.5332C100.405 32.3349 100.845 32.1828 101.297 32.0796C101.972 31.9159 102.675 31.9036 103.356 32.0436C104.208 32.2052 104.968 32.6821 105.484 33.3792C105.947 34.0158 106.177 34.7919 106.137 35.578C106.097 36.3641 105.789 37.1128 105.264 37.6992C104.962 38.0512 104.595 38.342 104.184 38.556C104.068 38.6141 103.948 38.6634 103.824 38.7036C103.787 38.7162 103.748 38.7247 103.709 38.7288V38.7288Z" fill="#263238"/>
<path d="M73.9438 92.736C73.9438 92.736 66.2794 108.886 66.355 116.32C66.4054 121 72.9574 170.809 72.9574 170.809H86.9182L88.0522 124.405L89.0098 123.124L89.6074 124.585C89.6074 124.585 87.5014 169.661 87.9946 170.809H103.601C103.601 170.809 108.561 135.068 109.22 129.654C109.879 124.24 110.66 121.648 110.322 113.771C109.983 105.894 104.461 92.736 104.461 92.736C104.461 92.736 83.2966 96.1812 73.9438 92.736Z" fill="#263238"/>
<path d="M74.6495 92.844L73.3535 97.3008L77.0903 98.1036L78.1415 93.618L74.6495 92.844Z" fill="#455A64"/>
<path d="M79.5597 93.8052L78.8037 98.1036C81.7288 98.403 84.6695 98.5232 87.6093 98.4636C91.9905 98.3448 96.2709 97.9776 98.1897 97.308L97.6317 93.474C97.6317 93.474 83.1597 94.8024 79.5597 93.8052Z" fill="#455A64"/>
<path d="M99.5005 93.258L100.426 97.038C100.426 97.038 103.414 96.7104 104.645 95.9904L103.615 92.5956L99.5005 93.258Z" fill="#455A64"/>
<path d="M79.5598 170.186C79.5238 169.157 79.0126 154.325 78.3466 134.957C78.037 125.237 77.8174 116.41 77.7526 110.03C77.7526 108.436 77.7526 106.992 77.7346 105.71C77.7166 104.429 77.7562 103.356 77.7634 102.47C77.7706 101.585 77.8102 100.894 77.8246 100.418C77.8246 100.188 77.8246 100.012 77.8426 99.882C77.8606 99.7524 77.8426 99.702 77.8426 99.702C77.8426 99.702 77.8426 99.7632 77.8426 99.8856C77.8426 100.008 77.8426 100.188 77.8426 100.418C77.8426 100.897 77.8426 101.585 77.8174 102.47C77.7922 103.356 77.8174 104.458 77.8174 105.71C77.8174 106.963 77.8426 108.421 77.8606 110.03C77.9578 116.406 78.199 125.219 78.5086 134.95C78.8182 144.68 79.1026 153.479 79.3078 159.862C79.405 163.051 79.4698 165.622 79.5058 167.422C79.5058 168.307 79.5274 168.995 79.5346 169.474C79.5346 169.704 79.5346 169.88 79.5346 170.01C79.5346 170.14 79.5598 170.186 79.5598 170.186Z" fill="#455A64"/>
<path d="M88.6393 98.7516C88.6531 98.8215 88.6591 98.8927 88.6573 98.964C88.6573 99.1224 88.6573 99.324 88.6573 99.5688C88.6573 100.116 88.6573 100.868 88.6825 101.786C88.7005 103.662 88.7401 106.25 88.8193 109.109C88.8985 111.967 89.0137 114.556 89.1001 116.428C89.1433 117.346 89.1757 118.098 89.2009 118.645C89.2009 118.885 89.2081 119.087 89.2225 119.25C89.2323 119.32 89.2323 119.392 89.2225 119.462C89.2073 119.394 89.1965 119.324 89.1901 119.254L89.1361 118.649C89.0893 118.127 89.0353 117.371 88.9741 116.435C88.8553 114.563 88.7221 111.974 88.6393 109.116C88.5565 106.258 88.5601 103.68 88.5601 101.786C88.5601 100.85 88.5781 100.091 88.5925 99.5652L88.6141 98.964C88.6131 98.8924 88.6216 98.821 88.6393 98.7516V98.7516Z" fill="#455A64"/>
<path d="M89.2295 119.462C89.1509 119.453 89.0728 119.44 88.9955 119.423L88.3295 119.293C87.5074 119.134 86.6949 118.929 85.8959 118.678C85.6248 118.591 85.3659 118.47 85.1255 118.318C85.0535 118.269 84.9962 118.202 84.9599 118.123C84.9347 118.048 84.9131 117.976 84.8915 117.904C84.8546 117.752 84.827 117.598 84.8087 117.443C84.7367 116.813 84.7763 116.15 84.7691 115.452C84.7691 114.052 84.7871 112.518 84.7979 110.909C84.8303 107.694 84.8627 104.789 84.8843 102.654C84.9059 101.614 84.9239 100.764 84.9347 100.152C84.9347 99.8712 84.9419 99.6444 84.9563 99.4716C84.9544 99.3918 84.9617 99.3121 84.9779 99.234C84.9856 99.313 84.9856 99.3926 84.9779 99.4716C84.9779 99.6444 84.9779 99.8712 84.9779 100.152C84.9779 100.764 84.9779 101.614 84.9779 102.654C84.9779 104.785 84.9563 107.694 84.9455 110.909C84.9455 112.522 84.9167 114.055 84.9023 115.452C84.9023 116.15 84.8627 116.816 84.9239 117.425C84.9398 117.574 84.965 117.722 84.9995 117.868C85.0175 117.936 85.0355 118.008 85.0571 118.073C85.085 118.124 85.1244 118.169 85.1723 118.202C85.3969 118.347 85.6388 118.461 85.8923 118.544C86.8823 118.886 87.7211 119.066 88.2935 119.214L88.9523 119.38C89.049 119.39 89.1429 119.418 89.2295 119.462Z" fill="#455A64"/>
<path d="M97.0161 170.186C97.0161 170.186 97.0161 170.125 97.0161 170.003C97.0161 169.88 97.0341 169.69 97.0485 169.456C97.0773 168.97 97.1241 168.264 97.1781 167.36C97.3113 165.535 97.4985 162.907 97.7325 159.66C98.2077 153.162 98.8701 144.18 99.3993 134.251C99.9285 124.322 100.119 115.312 99.9069 108.799C99.8745 107.986 99.8385 107.212 99.8061 106.481C99.7737 105.75 99.7521 105.041 99.6873 104.411C99.5721 103.122 99.5109 102.01 99.3957 101.106C99.2805 100.202 99.1761 99.5112 99.1077 99.0288C99.0789 98.7948 99.0537 98.6148 99.0393 98.4852C99.0249 98.3556 99.0213 98.3016 99.0213 98.3016C99.0213 98.3016 99.0213 98.3628 99.0573 98.4852C99.0933 98.6076 99.1077 98.7912 99.1473 99.0216C99.2193 99.504 99.3309 100.202 99.4677 101.095C99.6045 101.988 99.6657 103.115 99.7917 104.404C99.8637 105.048 99.8925 105.739 99.9285 106.474C99.9645 107.208 100.001 107.982 100.04 108.796C100.299 115.315 100.087 124.326 99.5865 134.262C99.0861 144.198 98.3733 153.173 97.8621 159.671C97.6065 162.911 97.3977 165.542 97.2537 167.368C97.1817 168.268 97.1241 168.973 97.0845 169.459C97.0629 169.693 97.0485 169.873 97.0377 170.003C97.0269 170.132 97.0161 170.186 97.0161 170.186Z" fill="#455A64"/>
<path d="M87.8797 98.6148V99.45L92.7181 99.2628C92.8715 99.2572 93.0167 99.192 93.1229 99.0811C93.2291 98.9702 93.2879 98.8223 93.2869 98.6688V94.2012C93.2869 94.0436 93.2243 93.8926 93.1129 93.7812C93.0015 93.6698 92.8504 93.6072 92.6929 93.6072H87.5557V94.2768L92.4265 94.5288V96.1524H92.0989C92.0647 96.1514 92.0307 96.1573 91.9988 96.1697C91.967 96.1822 91.938 96.2008 91.9134 96.2247C91.8889 96.2485 91.8695 96.277 91.8562 96.3085C91.8429 96.34 91.836 96.3738 91.8361 96.408V96.408C91.837 96.4739 91.8633 96.537 91.9096 96.5839C91.9559 96.6309 92.0185 96.6581 92.0845 96.66H92.4445V98.28L87.8797 98.6148Z" fill="#E0E0E0"/>
<path d="M85.079 93.9096H83.7109V98.5896H85.079V93.9096Z" fill="#263238"/>
<path d="M91.9979 96.9408C91.9799 96.9588 91.9043 96.9408 91.8251 96.8148C91.7264 96.6713 91.6783 96.4991 91.6883 96.3252C91.6971 96.1511 91.7687 95.9861 91.8899 95.8608C91.9799 95.7636 92.0591 95.7384 92.0735 95.7564C92.0879 95.7744 91.8971 96.0084 91.8755 96.3396C91.8539 96.6708 92.0375 96.9084 91.9979 96.9408Z" fill="#263238"/>
<path d="M88.11 95.9904C88.11 95.9904 88.1352 95.9616 88.1892 95.9652C88.2262 95.9715 88.2613 95.9861 88.2918 96.0079C88.3224 96.0298 88.3476 96.0582 88.3656 96.0912C88.3955 96.1406 88.413 96.1965 88.4168 96.2542C88.4206 96.3118 88.4104 96.3695 88.3872 96.4224C88.3533 96.4877 88.3013 96.5417 88.2374 96.5781C88.1736 96.6145 88.1006 96.6317 88.0272 96.6276C87.9529 96.6179 87.8835 96.5853 87.8287 96.5343C87.7738 96.4834 87.7362 96.4165 87.7212 96.3432C87.7112 96.286 87.7166 96.2272 87.7369 96.1728C87.7571 96.1184 87.7914 96.0704 87.8364 96.0336C87.9912 95.9148 88.1172 95.9724 88.1064 95.9904C88.0956 96.0084 88.0056 96.0264 87.93 96.1272C87.9084 96.1512 87.8934 96.1805 87.8865 96.212C87.8795 96.2435 87.8809 96.2763 87.8904 96.3072C87.8992 96.3414 87.9178 96.3723 87.9441 96.396C87.9703 96.4197 88.003 96.4352 88.038 96.4404C88.0761 96.4407 88.1138 96.4317 88.1477 96.4142C88.1816 96.3966 88.2106 96.371 88.2324 96.3396C88.2448 96.31 88.2513 96.2782 88.2513 96.246C88.2513 96.2139 88.2448 96.182 88.2324 96.1524C88.2 96.03 88.1136 96.0156 88.11 95.9904Z" fill="#263238"/>
<path d="M101.606 96.9408C101.698 96.6982 101.819 96.4673 101.966 96.2532C102.099 96.0264 102.24 95.7852 102.391 95.5332L102.646 95.1084C102.742 94.9699 102.826 94.8243 102.898 94.6728C102.92 94.6018 102.924 94.5269 102.912 94.4538C102.899 94.3808 102.87 94.3116 102.826 94.2516C102.72 94.14 102.599 94.0431 102.466 93.9636L101.786 93.4776C101.568 93.3383 101.368 93.174 101.188 92.988C101.428 93.0851 101.654 93.2121 101.862 93.366L102.564 93.8232L102.765 93.9564C102.846 94.0055 102.917 94.0689 102.974 94.1436C103.035 94.2272 103.075 94.3235 103.093 94.4253C103.11 94.527 103.104 94.6314 103.075 94.7304C103.041 94.8227 102.995 94.9098 102.938 94.9896L102.798 95.2092L102.531 95.6268L102.074 96.3216C101.944 96.5466 101.787 96.7546 101.606 96.9408Z" fill="#263238"/>
<path d="M109.8 107.838C109.762 107.867 109.719 107.89 109.674 107.906C109.546 107.96 109.412 108 109.275 108.025C108.764 108.093 108.245 108.028 107.766 107.838C107.065 107.559 106.4 107.196 105.786 106.758C103.188 105.024 101.217 102.5 100.167 99.558C100.1 99.3851 100.048 99.2069 100.012 99.0252C100.103 99.1863 100.178 99.3564 100.235 99.5328C100.372 99.864 100.595 100.332 100.869 100.901C101.632 102.371 102.618 103.714 103.792 104.882C104.437 105.523 105.137 106.106 105.883 106.625C106.484 107.056 107.131 107.418 107.813 107.705C108.267 107.899 108.761 107.981 109.253 107.946C109.617 107.906 109.8 107.82 109.8 107.838Z" fill="#455A64"/>
<path d="M74.6709 100.544C74.5091 100.878 74.3098 101.192 74.0769 101.48C73.0248 102.922 71.7544 104.192 70.3113 105.242C70.0231 105.474 69.7104 105.673 69.3789 105.836C69.648 105.586 69.933 105.352 70.2321 105.138C71.6165 104.037 72.8713 102.782 73.9725 101.398C74.1879 101.099 74.4211 100.815 74.6709 100.544Z" fill="#455A64"/>
<path d="M87.2315 64.3932L86.9795 52.3728C86.8571 50.8284 85.5215 51.1164 85.5215 51.1164C85.5215 51.1164 85.4351 55.3788 85.0787 57.7728C84.7223 60.1668 83.4335 62.8128 83.3903 63.3492C83.3471 63.8856 83.1815 68.4432 83.0303 69.9048C82.8292 71.1386 82.5221 72.3527 82.1123 73.5336L85.5359 76.1652L86.5763 74.7036C86.5763 74.7036 87.7463 73.8684 88.0163 72.8244C88.2863 71.7804 87.2315 64.3932 87.2315 64.3932Z" fill="#FFBE9D"/>
<path d="M87.2313 64.3932C87.2313 64.3932 87.2493 64.458 87.2709 64.5876L87.3573 65.1528C87.4329 65.6496 87.5373 66.3804 87.6597 67.3128C87.7821 68.2452 87.9261 69.3972 88.0377 70.7256C88.0701 71.0604 88.0917 71.4024 88.1097 71.7588C88.1097 71.9388 88.1277 72.1188 88.1097 72.3024C88.1134 72.4936 88.094 72.6846 88.0521 72.8712C87.9326 73.2498 87.7392 73.601 87.4833 73.9044C87.2225 74.2225 86.9253 74.5089 86.5977 74.7576V74.7396L85.5609 76.2048L85.5105 76.2696L85.4457 76.2192L82.0185 73.5948L81.9717 73.5588V73.4976C82.5258 71.993 82.8628 70.4172 82.9725 68.8176C83.0841 67.1436 83.1525 65.412 83.2389 63.6372C83.239 63.486 83.2547 63.3352 83.2857 63.1872C83.3253 63.0396 83.3721 62.9028 83.4189 62.7624L83.7177 61.9524C83.9193 61.416 84.1137 60.8724 84.2901 60.3504C84.6438 59.3161 84.8852 58.2468 85.0101 57.1608C85.2477 55.0332 85.3233 52.9956 85.3701 51.1236V51.0552H85.4349C85.7129 51.0049 85.9996 51.0374 86.2593 51.1488C86.5131 51.2646 86.7155 51.4696 86.8281 51.7248C86.9343 51.9653 86.9894 52.2252 86.9901 52.488C86.9901 52.7364 86.9901 52.9812 86.9901 53.226C86.9901 54.1944 87.0261 55.116 87.0405 55.9836C87.0693 57.7152 87.0945 59.2236 87.1161 60.48C87.1377 61.7364 87.1449 62.7012 87.1521 63.3816C87.1521 63.7092 87.1521 63.9648 87.1521 64.1484C87.1521 64.2276 87.1521 64.2924 87.1521 64.3464C87.1521 64.4004 87.1521 64.4112 87.1521 64.4112C87.1521 64.4112 87.1521 64.3896 87.1521 64.3464C87.1521 64.3032 87.1521 64.2312 87.1521 64.152C87.1521 63.9684 87.1521 63.7128 87.1233 63.3852C87.1017 62.7048 87.0765 61.7256 87.0405 60.4872C87.0045 59.2488 86.9685 57.7224 86.9253 55.9908C86.9253 55.1232 86.8857 54.1908 86.8605 53.2332C86.8317 52.7508 86.9037 52.2288 86.6913 51.7932C86.5961 51.5709 86.4197 51.3932 86.1981 51.2964C85.9709 51.2005 85.7207 51.173 85.4781 51.2172L85.5429 51.138C85.4961 53.0172 85.4277 55.0512 85.1829 57.1932C85.0533 58.2965 84.8059 59.3827 84.4449 60.4332C84.2685 60.9696 84.0849 61.5132 83.8725 62.0388L83.5737 62.8488C83.5269 62.982 83.4801 63.1188 83.4477 63.252C83.4179 63.388 83.4034 63.5268 83.4045 63.666C83.3181 65.4408 83.2497 67.176 83.1345 68.85C83.0238 70.4711 82.6807 72.0678 82.1157 73.5912L82.0869 73.494L85.5033 76.1292L85.3917 76.1472L86.4357 74.6892C87.0779 74.2455 87.571 73.6181 87.8505 72.8892C87.8885 72.713 87.9067 72.5331 87.9045 72.3528C87.9045 72.1728 87.9045 71.9928 87.9045 71.8164C87.9045 71.4564 87.8685 71.1216 87.8433 70.7904C87.7389 69.4656 87.6057 68.3172 87.5013 67.3776C87.3969 66.438 87.2997 65.7144 87.2385 65.2176C87.2097 64.9728 87.1881 64.7856 87.1701 64.6488C87.1521 64.512 87.2313 64.3932 87.2313 64.3932Z" fill="#EB996E"/>
<path d="M86.9939 53.442C86.9002 53.3047 86.7993 53.1725 86.6915 53.046C86.557 52.9131 86.4012 52.8036 86.2307 52.722C86.1314 52.666 86.0166 52.6438 85.9036 52.6588C85.7907 52.6737 85.6856 52.725 85.6043 52.8048L85.6223 52.7472C85.6691 53.1072 85.7411 53.5392 85.7771 54C85.8131 54.4608 85.8239 54.954 85.8095 55.4688C85.7648 56.5579 85.6312 57.6415 85.4099 58.7088C85.3271 59.1156 85.2551 59.4288 85.2011 59.67C85.185 59.7946 85.1498 59.9161 85.0967 60.03C85.1312 59.5829 85.1913 59.1382 85.2767 58.698C85.4636 57.6374 85.5838 56.5661 85.6367 55.4904C85.6367 54.9828 85.6367 54.4968 85.6115 54.0504C85.5863 53.604 85.5215 53.1792 85.4855 52.8048V52.7724L85.5035 52.7472C85.5549 52.689 85.6181 52.6422 85.6888 52.61C85.7595 52.5777 85.8362 52.5607 85.9139 52.56C86.0468 52.5594 86.1779 52.5916 86.2955 52.6536C86.4746 52.7418 86.6348 52.864 86.7671 53.0136C86.8498 53.1118 86.9189 53.2208 86.9723 53.3376C86.9903 53.3952 87.0011 53.442 86.9939 53.442Z" fill="#EB996E"/>
<path d="M87.0912 58.1076C87.0506 57.9224 87.0217 57.7348 87.0048 57.546C86.9783 57.336 86.9057 57.1344 86.7924 56.9556C86.6153 56.7512 86.3667 56.6224 86.0976 56.5956L86.1948 56.5236C86.1732 57.2076 86.13 58.0284 86.0436 58.9032C85.9248 60.1308 85.7484 61.2396 85.5972 62.0352C85.518 62.4312 85.446 62.7552 85.392 62.9712C85.3738 63.0885 85.3387 63.2025 85.2876 63.3096C85.3236 62.8736 85.3825 62.4398 85.464 62.01C85.5864 61.2144 85.7412 60.1092 85.8564 58.8852C85.9428 58.014 85.9968 57.1968 86.0364 56.5164V56.4228L86.13 56.4408C86.4339 56.4843 86.709 56.6444 86.8968 56.8872C87.0109 57.0855 87.0785 57.307 87.0948 57.5352C87.1241 57.725 87.1229 57.9182 87.0912 58.1076V58.1076Z" fill="#EB996E"/>
<path d="M85.3199 64.6056C85.2875 64.6452 85.0859 64.494 85.0607 64.2096C85.0355 63.9252 85.2011 63.7344 85.2407 63.7704C85.2803 63.8064 85.2227 63.9756 85.2407 64.1916C85.2587 64.4076 85.3487 64.5696 85.3199 64.6056Z" fill="#EB996E"/>
<path d="M84.7689 61.6392C84.7221 61.6572 84.5853 61.3872 84.6105 61.02C84.6357 60.6528 84.8085 60.4044 84.8517 60.4296C84.8949 60.4548 84.8157 60.7104 84.7977 61.0344C84.7797 61.3584 84.8193 61.6212 84.7689 61.6392Z" fill="#EB996E"/>
<path d="M92.0987 71.2152C91.8287 69.7752 91.3427 65.2428 91.2635 64.7028C91.1843 64.1628 89.7155 61.6212 89.1899 59.2596C88.6643 56.898 88.2791 52.65 88.2791 52.65C88.2791 52.65 86.9291 52.4556 86.9111 54.0072L87.5051 66.0132C87.5051 66.0132 86.9723 73.458 87.3215 74.4804C87.6707 75.5028 88.8983 76.2516 88.8983 76.2516L90.0395 77.634L93.2795 74.754C92.7865 73.6099 92.3915 72.4261 92.0987 71.2152V71.2152Z" fill="#FFBE9D"/>
<path d="M92.0988 71.2152C92.0988 71.2152 92.0988 71.2332 92.0988 71.2728C92.0988 71.3124 92.124 71.3808 92.142 71.4528C92.1852 71.6148 92.2428 71.8488 92.3364 72.1728C92.6113 73.0549 92.9309 73.9224 93.294 74.772V74.8008L93.2688 74.826L90.054 77.706L90 77.7528L89.9568 77.6988L88.8084 76.32H88.8264C88.4888 76.1017 88.1772 75.8457 87.8976 75.5568C87.5918 75.2517 87.3571 74.8829 87.21 74.4768C87.1251 74.0454 87.0864 73.6061 87.0948 73.1664C87.0948 72.7236 87.0948 72.2736 87.0948 71.8164C87.1344 69.9876 87.2424 68.04 87.3792 65.9988C87.2784 64.0044 87.174 61.8912 87.066 59.724C86.9976 58.3272 86.9292 56.9592 86.8644 55.6308C86.8644 55.296 86.832 54.9684 86.814 54.6408C86.7834 54.3115 86.7834 53.9801 86.814 53.6508C86.8324 53.4799 86.8848 53.3144 86.9683 53.1642C87.0518 53.0139 87.1646 52.8819 87.3 52.776C87.5796 52.583 87.9201 52.4985 88.2576 52.5384H88.326V52.614C88.4556 53.9892 88.6032 55.3176 88.7796 56.574C88.9189 57.7805 89.1512 58.9745 89.4744 60.1452C89.8071 61.1723 90.2039 62.1774 90.6624 63.1548C90.8676 63.6192 91.08 64.0512 91.2384 64.4976C91.2926 64.7234 91.3276 64.9535 91.3428 65.1852C91.368 65.4048 91.3932 65.6208 91.4184 65.8296C91.6056 67.5144 91.7568 68.85 91.872 69.768C91.9296 70.2144 91.9764 70.5672 92.0088 70.8156L92.0484 71.0856C92.0524 71.1167 92.0524 71.1482 92.0484 71.1792C92.0368 71.1502 92.0284 71.12 92.0232 71.0892C92.0232 71.0208 91.9944 70.9308 91.9728 70.8192C91.9296 70.5816 91.872 70.2324 91.8036 69.7752C91.6704 68.8608 91.5012 67.5252 91.2996 65.844C91.2744 65.6352 91.2456 65.4192 91.2204 65.1996C91.2008 64.9767 91.1659 64.7554 91.116 64.5372C90.9612 64.1088 90.738 63.6696 90.5328 63.2124C90.0647 62.2311 89.6595 61.2211 89.3196 60.1884C88.9883 59.0085 88.7476 57.805 88.5996 56.5884C88.4244 55.3164 88.2708 53.9964 88.1388 52.6284L88.2144 52.7076C87.9239 52.676 87.6317 52.7488 87.39 52.9128C87.2739 53.0055 87.1775 53.1204 87.1064 53.2509C87.0353 53.3813 86.9909 53.5246 86.976 53.6724C86.9456 53.9909 86.9456 54.3115 86.976 54.63C86.976 54.954 87.0084 55.2852 87.0228 55.6164C87.0912 56.9484 87.1596 58.3164 87.228 59.7096C87.336 61.8696 87.4368 63.9864 87.5376 65.9808C87.3972 68.0148 87.2856 69.966 87.2388 71.7876C87.2388 72.2448 87.2208 72.6912 87.2388 73.1304C87.2303 73.5553 87.2653 73.9799 87.3432 74.3976C87.4822 74.7764 87.7021 75.1204 87.9876 75.4056C88.2577 75.6866 88.5584 75.9365 88.884 76.1508V76.1508L90.0252 77.5368H89.928L93.168 74.6892V74.7432C92.8119 73.888 92.5054 73.0129 92.25 72.1224C92.1636 71.8128 92.1096 71.5752 92.0808 71.4024L92.0484 71.2188C92.0988 71.2368 92.0952 71.2152 92.0988 71.2152Z" fill="#EB996E"/>
<path d="M86.9653 55.1016C86.997 54.9854 87.0468 54.8748 87.1129 54.774C87.178 54.6469 87.2552 54.5264 87.3433 54.414C87.4594 54.2504 87.6286 54.1321 87.8221 54.0792C87.9503 54.0607 88.081 54.0863 88.1928 54.1517C88.3047 54.217 88.391 54.3184 88.4377 54.4392C88.5027 54.6979 88.5234 54.9657 88.4989 55.2312C88.4989 55.7712 88.5277 56.3652 88.5853 56.9844C88.6936 58.0427 88.8594 59.0942 89.0821 60.1344C89.1929 60.5634 89.2783 60.9986 89.3377 61.4376C89.2828 61.3313 89.2406 61.219 89.2117 61.1028C89.1469 60.8832 89.0533 60.5628 88.9525 60.1668C88.6899 59.1272 88.5046 58.0695 88.3981 57.0024C88.3434 56.4137 88.3194 55.8225 88.3261 55.2312C88.3535 54.991 88.3425 54.748 88.2937 54.5112C88.2615 54.4207 88.2002 54.3434 88.1195 54.2913C88.0388 54.2392 87.9431 54.2153 87.8473 54.2232C87.6806 54.2656 87.5326 54.3618 87.4261 54.4968C87.334 54.5982 87.2497 54.7066 87.1741 54.8208C87.1152 54.9219 87.0452 55.0161 86.9653 55.1016V55.1016Z" fill="#EB996E"/>
<path d="M87.2029 59.9112C87.1841 59.8593 87.1744 59.8045 87.1741 59.7492C87.1627 59.5958 87.1627 59.4418 87.1741 59.2884C87.186 59.0459 87.2434 58.8077 87.3433 58.5864C87.4118 58.4372 87.5115 58.3043 87.6358 58.1969C87.76 58.0895 87.9058 58.0099 88.0633 57.9636L88.1533 57.9348V58.032C88.2361 58.6908 88.3405 59.472 88.4809 60.3036C88.6861 61.5384 88.9201 62.6508 89.1001 63.45C89.2145 63.8792 89.3058 64.3143 89.3737 64.7532C89.3145 64.6485 89.2709 64.5357 89.2441 64.4184C89.1721 64.1988 89.0785 63.882 88.9705 63.4824C88.7581 62.6868 88.5025 61.578 88.2973 60.336C88.1569 59.5008 88.0597 58.716 87.9913 58.05L88.0957 58.1184C87.9573 58.1556 87.8283 58.2216 87.7172 58.3122C87.6062 58.4028 87.5155 58.5159 87.4513 58.644C87.3496 58.8497 87.2839 59.0713 87.2569 59.2992C87.2137 59.6844 87.2281 59.9112 87.2029 59.9112Z" fill="#EB996E"/>
<path d="M89.4529 66.0528C89.4097 66.0204 89.4925 65.8512 89.4925 65.6352C89.4925 65.4192 89.4277 65.2464 89.4709 65.214C89.5141 65.1816 89.6869 65.3508 89.6797 65.6388C89.6725 65.9268 89.4853 66.0924 89.4529 66.0528Z" fill="#EB996E"/>
<path d="M89.7804 63.0576C89.7264 63.0576 89.7552 62.7732 89.7084 62.4528C89.6616 62.1324 89.568 61.8804 89.6148 61.8552C89.6616 61.83 89.8452 62.064 89.8956 62.4276C89.946 62.7912 89.8272 63.072 89.7804 63.0576Z" fill="#EB996E"/>
<g opacity="0.3">
<path opacity="0.3" d="M91.2561 77.5224C90.5901 76.752 89.7477 75.978 88.7361 75.9852C87.8325 75.9852 87.0621 76.6152 86.4213 77.2488C84.359 79.3632 82.6706 81.8124 81.4281 84.492C80.1357 87.138 78.5697 90.3204 77.5869 93.096C79.7469 92.6424 81.6621 91.296 83.1201 89.6292C84.5781 87.9624 85.6401 85.9788 86.5653 83.9736C86.8893 83.2824 87.3537 82.4796 88.1169 82.4616C88.6785 82.4616 89.1393 82.8972 89.4921 83.3364C90.5037 84.6144 91.1841 86.1192 91.8969 87.5844C92.6097 89.0496 93.3873 90.5184 94.5465 91.6668C95.7057 92.8152 97.3149 93.6108 98.9349 93.4308C97.0845 87.7968 95.1441 82.0008 91.2561 77.5224Z" fill="black"/>
</g>
<path d="M69.1811 56.88C69.1811 56.88 64.4615 59.8536 64.3211 65.7108C64.1807 71.568 64.5299 87.1812 65.5775 89.2728C66.6251 91.3644 67.3775 98.892 74.1527 95.7528C77.9507 93.9924 82.0727 88.2792 84.7727 83.484C86.0385 81.2454 87.1359 78.9158 88.0559 76.5144L81.6803 72.4032L73.6631 81.882L73.4147 72.7668L69.1811 56.88Z" fill="#008C96"/>
<path d="M73.6633 81.8712C73.6633 81.9036 73.3753 81.9216 72.9433 82.044C72.3709 82.2111 71.8357 82.486 71.3665 82.854C70.8981 83.2288 70.4709 83.6524 70.0921 84.1176C69.9451 84.3217 69.7814 84.5132 69.6025 84.69C69.6951 84.4535 69.8252 84.2335 69.9877 84.0384C70.3427 83.536 70.7683 83.0874 71.2513 82.7064C71.7368 82.3199 72.3046 82.0501 72.9109 81.918C73.1559 81.8511 73.412 81.8351 73.6633 81.8712V81.8712Z" fill="#263238"/>
<path d="M73.6235 81.7992C72.9961 81.7821 72.3683 81.8074 71.7443 81.8748C71.1342 82.0059 70.5331 82.1755 69.9443 82.3824C70.4665 82.0005 71.0797 81.7622 71.7227 81.6912C72.3547 81.5584 73.0106 81.5957 73.6235 81.7992V81.7992Z" fill="#263238"/>
<path d="M88.0561 76.5036C88.0459 76.5703 88.0277 76.6356 88.002 76.698L87.8077 77.2416C87.6385 77.7132 87.3685 78.3828 87.0157 79.2072C86.0788 81.344 84.9812 83.4068 83.7324 85.3776C82.4788 87.345 81.0945 89.2261 79.5888 91.008C79.0128 91.692 78.534 92.2356 78.192 92.5992L77.796 93.0204C77.7515 93.0708 77.702 93.1166 77.6484 93.1572C77.6815 93.0987 77.7214 93.0443 77.7672 92.9952L78.1272 92.5524C78.4512 92.1708 78.912 91.6164 79.4772 90.9252C80.9476 89.1232 82.3119 87.2372 83.5632 85.2768C84.8061 83.3138 85.915 81.2692 86.8824 79.1568C87.2424 78.3432 87.5413 77.6808 87.7285 77.2164C87.8221 77.004 87.8941 76.8276 87.9553 76.6872C87.9807 76.6219 88.0146 76.5601 88.0561 76.5036V76.5036Z" fill="#263238"/>
<path d="M73.4147 72.756C73.4199 72.8135 73.4199 72.8713 73.4147 72.9288C73.4147 73.0584 73.4327 73.224 73.4435 73.4292C73.4615 73.8828 73.4867 74.5092 73.5191 75.3084C73.5731 76.9356 73.6451 79.2072 73.7315 81.8676L73.5803 81.8136L77.0867 77.6556L81.5975 72.3384L81.6443 72.2808L81.7055 72.3204L86.3063 75.33L87.5915 76.1868L87.9263 76.4172C87.9669 76.4414 88.0044 76.4704 88.0379 76.5036C87.9945 76.4874 87.9533 76.4657 87.9155 76.4388L87.5555 76.23L86.2451 75.4092L81.6119 72.4608L81.7163 72.4428L77.2235 77.778L73.7063 81.9288L73.5551 82.1016V81.8748C73.4975 79.2108 73.4471 76.9392 73.4111 75.312C73.4111 74.52 73.3895 73.872 73.3823 73.4292V72.9288C73.3885 72.8705 73.3993 72.8127 73.4147 72.756V72.756Z" fill="#263238"/>
<path d="M107.546 55.044C107.546 55.044 111.535 57.0636 111.711 66.4416C111.888 75.8196 112.586 86.9436 111.711 88.8732C111.049 90.3132 109.494 94.7232 106.671 96.228C105.822 96.678 105.177 96.6996 104.018 96.5304C100.166 95.9688 95.1119 91.4652 91.2707 84.0708C88.3475 78.444 88.1675 75.8376 88.1675 75.8376L93.5315 70.4376L104.004 83.4228L104.198 70.974L107.546 55.044Z" fill="#008C96"/>
<path d="M104.115 71.3484C104.115 71.3484 104.115 71.4204 104.115 71.5644C104.115 71.7084 104.115 71.9244 104.115 72.1944C104.115 72.756 104.115 73.566 104.115 74.6064C104.115 76.7088 104.087 79.7256 104.065 83.4228V83.6208L103.943 83.466L93.4522 70.506H93.589L89.4418 74.6856L88.225 75.9096L88.2502 75.8232C89.239 80.0003 91.0036 83.9545 93.4522 87.48C95.3959 90.3749 97.8243 92.9129 100.631 94.9824C101.192 95.4038 101.795 95.7658 102.431 96.0624C102.723 96.194 103.027 96.2988 103.338 96.3756C103.634 96.438 103.933 96.4837 104.234 96.5124C105.23 96.6334 106.238 96.4355 107.114 95.9472C107.652 95.6147 108.116 95.1762 108.479 94.6584C108.605 94.4856 108.698 94.3452 108.756 94.2516C108.813 94.158 108.853 94.1148 108.853 94.1148C108.745 94.3107 108.625 94.4995 108.493 94.68C108.141 95.2133 107.679 95.6661 107.139 96.0084C106.252 96.5167 105.225 96.7286 104.209 96.6132C103.917 96.5772 103.611 96.552 103.298 96.4836C102.979 96.4073 102.668 96.3012 102.369 96.1668C101.726 95.8726 101.115 95.5106 100.548 95.0868C97.7161 93.0227 95.2651 90.4816 93.3046 87.5772C90.8343 84.0339 89.0559 80.0557 88.063 75.852V75.8016L88.099 75.7656L89.3158 74.538L93.4666 70.362L93.5386 70.2864L93.6034 70.3692C97.5634 75.294 101.163 79.7616 104.043 83.3688L103.917 83.412C103.968 79.7148 104.004 76.7016 104.033 74.5992C104.051 73.5588 104.065 72.7488 104.076 72.1872C104.076 71.9136 104.076 71.7048 104.076 71.5572C104.085 71.487 104.098 71.4173 104.115 71.3484Z" fill="#263238"/>
<path d="M108.281 88.2576C108.083 88.0123 107.903 87.7537 107.741 87.4836C107.313 86.8602 106.844 86.2661 106.337 85.7052C105.826 85.1479 105.287 84.6179 104.72 84.1176C104.471 83.9226 104.239 83.7071 104.025 83.4732C104.305 83.6231 104.566 83.8056 104.803 84.0168C105.403 84.4904 105.963 85.013 106.477 85.5792C106.992 86.1457 107.452 86.7592 107.852 87.4116C108.033 87.6728 108.177 87.9575 108.281 88.2576V88.2576Z" fill="#263238"/>
<path d="M107.118 56.9232C107.143 56.9448 106.83 57.33 106.398 58.0032C105.257 59.7523 104.512 61.729 104.213 63.7956C104.098 64.5876 104.076 65.0844 104.044 65.0844C104.023 64.9657 104.016 64.8447 104.026 64.7244C104.026 64.4056 104.046 64.0871 104.083 63.7704C104.311 61.6649 105.07 59.6518 106.29 57.9204C106.472 57.659 106.668 57.4079 106.877 57.168C106.946 57.0761 107.027 56.9937 107.118 56.9232V56.9232Z" fill="#263238"/>
<path d="M72.5364 66.528C72.5076 66.528 72.4428 66.0492 72.2988 65.2752C72.1156 64.2675 71.8752 63.2711 71.5788 62.2908C71.2779 61.3125 70.9246 60.3511 70.5204 59.4108C70.3336 59.0284 70.1666 58.6367 70.02 58.2372C70.0949 58.3245 70.1579 58.4213 70.2072 58.5252C70.3188 58.716 70.4664 59.0004 70.6392 59.3568C71.0846 60.2871 71.4589 61.2499 71.7588 62.2368C72.0574 63.2244 72.2825 64.2327 72.432 65.2536C72.486 65.646 72.5184 65.9736 72.5328 66.1824C72.5513 66.2967 72.5525 66.4132 72.5364 66.528V66.528Z" fill="#263238"/>
<g opacity="0.3">
<path opacity="0.3" d="M108.803 88.2324C108.632 87.4736 108.237 86.7837 107.669 86.2524C106.614 85.122 105.373 84.1807 104 83.4696C105.703 84.8325 107.169 86.4673 108.338 88.308C108.428 88.452 108.605 88.614 108.738 88.5096C108.772 88.473 108.796 88.4282 108.807 88.3796C108.818 88.331 108.817 88.2803 108.803 88.2324V88.2324Z" fill="black"/>
</g>
<g opacity="0.3">
<path opacity="0.3" d="M73.5948 81.8604C72.4929 81.6933 71.3668 81.9013 70.3973 82.451C69.4278 83.0007 68.6712 83.8602 68.2488 84.8916C68.1616 85.0787 68.1174 85.2828 68.1192 85.4892C68.1227 85.5918 68.1545 85.6915 68.211 85.7773C68.2675 85.863 68.3466 85.9315 68.4396 85.9752C68.5528 86.0083 68.6735 86.006 68.7854 85.9687C68.8974 85.9314 68.9952 85.8608 69.066 85.7664C69.2069 85.5776 69.3163 85.3673 69.39 85.1436C69.7715 84.2527 70.3836 83.4796 71.1631 82.9038C71.9426 82.328 72.8615 81.9704 73.8252 81.8676L73.5948 81.8604Z" fill="black"/>
</g>
<path d="M165.6 170.676C165.6 170.726 131.76 170.77 89.9999 170.77C48.2399 170.77 14.3999 170.726 14.3999 170.676C14.3999 170.626 48.2399 170.582 90.0179 170.582C131.796 170.582 165.6 170.64 165.6 170.676Z" fill="#263238"/>
</svg>
