<svg width="233" height="233" viewBox="0 0 233 233" fill="none" xmlns="http://www.w3.org/2000/svg">
<path d="M50.0623 202.869V217.096H70.8692H93.815V202.869H50.0623Z" fill="#F5F5F5"/>
<path d="M48.2263 198.894V202.869H95.3482V198.894H70.8693H48.2263Z" fill="#E0E0E0"/>
<path d="M71.7872 217.096H93.815V202.869H95.3481V198.894H70.8691V202.5L71.7872 217.096Z" fill="#E0E0E0"/>
<path d="M65.0536 205.161H56.1809V207.305H65.0536V205.161Z" fill="#E0E0E0"/>
<path d="M66.4329 209.984H55.0392V214.505H66.4329V209.984Z" fill="white"/>
<path d="M56.796 184.686V198.913H77.6029H100.549V184.686H56.796Z" fill="#F5F5F5"/>
<path d="M54.96 180.706V184.686H102.077V180.706H77.6029H54.96Z" fill="#E0E0E0"/>
<path d="M78.521 198.913H100.549V184.686H102.077V180.706H77.603V184.318L78.521 198.913Z" fill="#E0E0E0"/>
<path d="M71.7872 186.979H62.9146V189.122H71.7872V186.979Z" fill="#E0E0E0"/>
<path d="M73.1666 191.797H61.7729V196.317H73.1666V191.797Z" fill="white"/>
<path d="M57.0244 27.839C58.2048 27.1283 59.474 26.5767 60.799 26.1987L61.5725 22.4707L67.8775 22.3682L68.8095 26.0682C70.1459 26.3981 71.4325 26.9043 72.6354 27.5734L75.8228 25.4857L80.3617 29.8661L78.3858 33.1281C79.0985 34.3075 79.6501 35.577 80.0261 36.9027L83.7541 37.6763L83.8613 43.9859L80.152 44.876C79.822 46.2123 79.3159 47.4989 78.6468 48.7018L80.7345 51.8893L76.3541 56.4281L73.0921 54.4523C71.9126 55.1649 70.6432 55.7166 69.3175 56.0926L68.5439 59.8206L62.2389 59.9278L61.3069 56.2277C59.9706 55.8978 58.684 55.3916 57.4811 54.7225L54.2936 56.8102L49.7548 52.4298L51.7306 49.1678C51.0181 47.99 50.4664 46.7221 50.0903 45.3979L46.3623 44.6197L46.2551 38.3147L49.9552 37.406C50.2851 36.0696 50.7913 34.7831 51.4603 33.5801L49.396 30.402L53.7764 25.8632L57.0384 27.839H57.0244ZM60.3889 36.227C59.4593 37.1897 58.836 38.4065 58.5979 39.7234C58.3598 41.0403 58.5176 42.3983 59.0513 43.6256C59.585 44.8528 60.4706 45.8943 61.5962 46.6182C62.7218 47.3421 64.0368 47.7159 65.3749 47.6925C66.713 47.669 68.0141 47.2493 69.1136 46.4863C70.2131 45.7234 71.0617 44.6516 71.5521 43.4064C72.0424 42.1611 72.1525 40.7985 71.8684 39.4907C71.5842 38.1829 70.9187 36.9888 69.9559 36.0592C68.6631 34.8147 66.9289 34.1347 65.1348 34.1688C63.3406 34.2029 61.6335 34.9483 60.3889 36.241V36.227Z" fill="#EBEBEB"/>
<path d="M158.477 20.3226C159.881 19.4747 161.392 18.818 162.969 18.3701L163.901 13.9244L171.409 13.7939L172.49 18.2023C174.082 18.5947 175.615 19.198 177.047 19.9964L180.845 17.508L186.251 22.7272L183.898 26.6089C184.746 28.0123 185.403 29.5232 185.85 31.1012L190.296 32.0332L190.426 39.5451L186.018 40.6262C185.623 42.2179 185.02 43.7503 184.224 45.1837L186.712 48.9816L181.493 54.3825L177.611 52.0293C176.209 52.8798 174.698 53.5366 173.119 53.9818L172.187 58.4274L164.675 58.5626L163.594 54.1495C162.001 53.7592 160.468 53.1558 159.036 52.3554L155.239 54.8439L149.838 49.6293L152.191 45.7476C151.341 44.3447 150.684 42.8337 150.238 41.2553L145.793 40.3233L145.658 32.8114L150.071 31.7303C150.463 30.1379 151.066 28.6051 151.865 27.1728L149.376 23.3796L154.591 17.974L158.473 20.304L158.477 20.3226ZM162.485 30.3276C161.378 31.4741 160.636 32.923 160.353 34.4912C160.07 36.0593 160.258 37.6762 160.894 39.1374C161.529 40.5986 162.584 41.8385 163.924 42.7004C165.265 43.5622 166.83 44.0073 168.424 43.9792C170.017 43.9512 171.566 43.4514 172.875 42.543C174.184 41.6345 175.195 40.3583 175.779 38.8756C176.363 37.393 176.494 35.7704 176.155 34.2132C175.817 32.6561 175.025 31.2341 173.879 30.1272C172.341 28.6439 170.277 27.8318 168.14 27.8694C166.004 27.9069 163.97 28.7911 162.485 30.3276Z" fill="#EBEBEB"/>
<path d="M159.614 81.3078C160.711 80.6453 161.891 80.1328 163.123 79.784L163.846 76.3123L169.712 76.2051L170.556 79.6535C171.799 79.9596 172.997 80.4297 174.116 81.0515L177.085 79.1083L181.302 83.1858L179.466 86.2148C180.128 87.3111 180.641 88.4912 180.99 89.7237L184.461 90.446L184.569 96.313L181.12 97.1611C180.813 98.4044 180.343 99.6015 179.722 100.721L181.665 103.685L177.588 107.907L174.559 106.066C173.462 106.728 172.282 107.242 171.05 107.595L170.328 111.067L164.461 111.169L163.613 107.725C162.369 107.419 161.172 106.949 160.052 106.327L157.089 108.271L152.848 104.188L154.689 101.159C154.027 100.062 153.513 98.8824 153.16 97.6504L149.707 96.9281L149.586 91.0612L153.03 90.2177C153.336 88.9742 153.806 87.777 154.428 86.6575L152.484 83.689L156.557 79.4671L159.591 81.3078H159.614ZM162.741 89.1226C161.876 90.0181 161.295 91.15 161.073 92.3753C160.852 93.6007 160.998 94.8643 161.494 96.0064C161.99 97.1485 162.814 98.1178 163.861 98.7916C164.909 99.4655 166.132 99.8137 167.377 99.7922C168.622 99.7707 169.833 99.3804 170.856 98.6708C171.879 97.9611 172.669 96.964 173.126 95.8054C173.582 94.6468 173.685 93.3789 173.421 92.162C173.157 90.9451 172.537 89.8339 171.642 88.9688C170.441 87.8092 168.829 87.1739 167.16 87.2028C165.49 87.2316 163.901 87.9222 162.741 89.1226Z" fill="#E0E0E0"/>
<path d="M190.934 63.2552C191.543 62.8881 192.198 62.603 192.882 62.407L193.283 60.4778L196.545 60.4219L197.011 62.3371C197.702 62.5051 198.367 62.7669 198.987 63.1154L200.636 62.0342L202.966 64.299L201.946 65.9813C202.315 66.5911 202.6 67.2479 202.794 67.9338L204.723 68.3346L204.779 71.5966L202.864 72.0626C202.695 72.7525 202.434 73.417 202.09 74.0384L203.167 75.688L200.902 78.018L199.22 76.9975C198.61 77.3645 197.955 77.6497 197.272 77.8456L196.866 79.7749L193.604 79.8308L193.138 77.9155C192.448 77.7447 191.784 77.483 191.162 77.1373L189.513 78.2184L187.183 75.9537L188.203 74.2714C187.836 73.6605 187.551 73.0041 187.355 72.3189L185.426 71.9181L185.37 68.6561L187.285 68.1901C187.456 67.4999 187.718 66.8355 188.064 66.2143L186.982 64.5646L189.247 62.2346L190.934 63.2552ZM192.668 67.5983C192.189 68.0961 191.868 68.7247 191.746 69.4047C191.624 70.0847 191.707 70.7855 191.983 71.4187C192.259 72.0519 192.717 72.5891 193.298 72.9623C193.879 73.3356 194.558 73.5282 195.249 73.5159C195.94 73.5035 196.611 73.2867 197.179 72.8929C197.746 72.4991 198.184 71.9459 198.438 71.3032C198.691 70.6606 198.748 69.9572 198.602 69.282C198.456 68.6068 198.113 67.9901 197.617 67.5097C197.286 67.19 196.896 66.9386 196.468 66.77C196.04 66.6013 195.583 66.5188 195.124 66.527C194.664 66.5352 194.21 66.6341 193.789 66.8179C193.368 67.0017 192.986 67.2669 192.668 67.5983Z" fill="#F5F5F5"/>
<path d="M97.8087 20.3323C98.417 19.9634 99.0722 19.6782 99.7566 19.4842L100.157 17.5549L103.419 17.499L103.885 19.4096C104.575 19.5818 105.239 19.8434 105.861 20.1878L107.511 19.1067L109.841 21.3715L108.82 23.0537C109.189 23.662 109.474 24.3172 109.668 25.0016L111.598 25.4024L111.654 28.6644L109.738 29.1304C109.569 29.8204 109.309 30.4848 108.965 31.1062L110.041 32.7559L107.776 35.0859L106.094 34.0653C105.492 34.446 104.842 34.7439 104.16 34.9507L103.755 36.88L100.493 36.9405L100.027 35.0253C99.3367 34.8545 98.6723 34.5928 98.0511 34.2471L96.4014 35.3282L94.0714 33.0634L95.064 31.3579C94.697 30.7486 94.4118 30.0937 94.2159 29.41L92.2913 29.0092L92.2307 25.7472L94.146 25.2812C94.3204 24.5886 94.5868 23.9226 94.9382 23.3007L93.8571 21.6557L96.1218 19.3257L97.8087 20.3463V20.3323ZM99.5423 24.6987C99.0633 25.1966 98.7426 25.8252 98.6207 26.5051C98.4988 27.1851 98.5811 27.886 98.8573 28.5192C99.1335 29.1524 99.5912 29.6895 100.172 30.0628C100.754 30.4361 101.433 30.6287 102.123 30.6163C102.814 30.604 103.486 30.3872 104.053 29.9934C104.621 29.5996 105.059 29.0464 105.312 28.4037C105.566 27.761 105.623 27.0577 105.477 26.3825C105.331 25.7073 104.988 25.0906 104.491 24.6102C104.16 24.291 103.77 24.0401 103.342 23.8718C102.915 23.7035 102.458 23.6211 101.998 23.6294C101.539 23.6376 101.085 23.7363 100.664 23.9197C100.243 24.1032 99.8614 24.3679 99.5423 24.6987Z" fill="#F5F5F5"/>
<path d="M68.4554 72.9671C69.0637 72.5982 69.7188 72.3129 70.4033 72.1189L70.804 70.1897L74.066 70.1338L74.532 72.049C75.2246 72.217 75.8909 72.4788 76.5125 72.8273L78.1575 71.7462L80.4875 74.0109L79.4623 75.6932C79.8321 76.3026 80.1174 76.9595 80.3104 77.6457L82.2397 78.0465L82.2956 81.3085L80.385 81.7745C80.2142 82.4646 79.9525 83.129 79.6068 83.7503L80.6832 85.3999L78.4231 87.7299L76.7362 86.7094C76.127 87.0764 75.4721 87.3616 74.7883 87.5575L74.3876 89.4868L71.1256 89.5427L70.6596 87.6274C69.9677 87.4574 69.3016 87.1957 68.6791 86.8492L67.0341 87.9303L64.7041 85.6656L65.7293 83.9833C65.3603 83.3734 65.0751 82.7167 64.8812 82.0308L62.9519 81.63L62.8914 78.368L64.8066 77.902C64.9767 77.2116 65.2384 76.5471 65.5848 75.9262L64.5037 74.2765L66.7685 71.9465L68.4554 72.9671ZM70.1936 77.3102C69.714 77.8078 69.3926 78.4364 69.2702 79.1166C69.1478 79.7967 69.2298 80.4979 69.5058 81.1315C69.7818 81.7651 70.2395 82.3026 70.8209 82.6762C71.4024 83.0497 72.0815 83.2425 72.7725 83.2301C73.4635 83.2177 74.1353 83.0008 74.703 82.6067C75.2707 82.2126 75.7089 81.659 75.962 81.0159C76.2152 80.3728 76.272 79.6692 76.1253 78.9938C75.9786 78.3184 75.635 77.7017 75.1378 77.2217C74.8075 76.9026 74.4175 76.6518 73.9902 76.4836C73.5628 76.3154 73.1065 76.233 72.6474 76.2412C72.1882 76.2495 71.7351 76.3481 71.3141 76.5315C70.8931 76.7149 70.5123 76.9795 70.1936 77.3102Z" fill="#F5F5F5"/>
<path d="M215.604 217.552C215.604 217.617 171.232 217.673 116.505 217.673C61.7776 217.673 17.3958 217.622 17.3958 217.552C17.3958 217.482 61.7589 217.431 116.505 217.431C171.25 217.431 215.604 217.487 215.604 217.552Z" fill="#263238"/>
<path d="M150.169 217.464L89.7377 217.427C82.4681 217.427 76.5779 211.229 76.5825 203.591L76.6105 44.3729C76.6105 36.7305 82.51 30.5373 89.7843 30.542L150.215 30.5793C157.485 30.5793 163.375 36.7771 163.37 44.4148L163.342 203.642C163.342 211.275 157.443 217.469 150.169 217.464Z" fill="#263238"/>
<path d="M150.15 36.2085H138.435C136.864 36.2085 135.587 37.6065 135.587 39.3307V41.5629C135.587 43.2917 134.315 44.6897 132.745 44.6897H109.911C108.336 44.6897 107.064 43.2917 107.064 41.5629V39.3261C107.064 37.6019 105.791 36.1992 104.221 36.1992H100.097H89.8448C84.7515 36.1992 80.618 40.533 80.618 45.8874L80.5901 201.298C80.5901 206.648 84.7142 210.987 89.8029 210.987L150.117 211.024C155.211 211.024 159.339 206.69 159.339 201.336L159.372 45.9013C159.372 40.5423 155.243 36.2132 150.15 36.2085Z" fill="white"/>
<path d="M131.058 112.525C131.058 113.355 130.812 114.165 130.351 114.855C129.89 115.545 129.235 116.082 128.469 116.4C127.703 116.717 126.859 116.8 126.046 116.638C125.232 116.477 124.485 116.077 123.898 115.491C123.312 114.904 122.912 114.157 122.751 113.343C122.589 112.53 122.672 111.686 122.989 110.92C123.307 110.154 123.844 109.499 124.534 109.038C125.224 108.577 126.034 108.331 126.864 108.331C127.976 108.331 129.043 108.773 129.83 109.559C130.616 110.346 131.058 111.413 131.058 112.525Z" fill="#008C96"/>
<path d="M114.384 117.008C116.855 117.008 118.858 115.001 118.858 112.525C118.858 110.049 116.855 108.042 114.384 108.042C111.914 108.042 109.911 110.049 109.911 112.525C109.911 115.001 111.914 117.008 114.384 117.008Z" fill="#008C96"/>
<path d="M104.799 109.352C107.421 109.352 109.547 107.221 109.547 104.594C109.547 101.966 107.421 99.8359 104.799 99.8359C102.176 99.8359 100.05 101.966 100.05 104.594C100.05 107.221 102.176 109.352 104.799 109.352Z" fill="#008C96"/>
<path d="M102.856 97.3663C105.594 97.3663 107.814 95.1402 107.814 92.3941C107.814 89.648 105.594 87.4219 102.856 87.4219C100.117 87.4219 97.8973 89.648 97.8973 92.3941C97.8973 95.1402 100.117 97.3663 102.856 97.3663Z" fill="#008C96"/>
<path d="M108.928 86.8581C111.759 86.8581 114.054 84.5568 114.054 81.7181C114.054 78.8794 111.759 76.5781 108.928 76.5781C106.097 76.5781 103.802 78.8794 103.802 81.7181C103.802 84.5568 106.097 86.8581 108.928 86.8581Z" fill="#008C96"/>
<path d="M120.601 83.0972C123.687 83.0972 126.188 80.5894 126.188 77.4959C126.188 74.4023 123.687 71.8945 120.601 71.8945C117.515 71.8945 115.013 74.4023 115.013 77.4959C115.013 80.5894 117.515 83.0972 120.601 83.0972Z" fill="#008C96"/>
<path d="M140.182 104.496C140.18 105.298 139.941 106.082 139.494 106.748C139.046 107.415 138.412 107.933 137.67 108.239C136.928 108.545 136.112 108.624 135.326 108.466C134.539 108.309 133.817 107.921 133.25 107.353C132.683 106.785 132.298 106.062 132.142 105.275C131.986 104.488 132.067 103.672 132.374 102.931C132.682 102.19 133.202 101.557 133.869 101.111C134.537 100.666 135.321 100.428 136.123 100.428C136.657 100.428 137.185 100.534 137.678 100.739C138.171 100.944 138.618 101.243 138.995 101.621C139.372 101.999 139.671 102.447 139.875 102.941C140.078 103.434 140.183 103.962 140.182 104.496Z" fill="#008C96"/>
<path d="M138.295 96.0336C140.374 96.0336 142.06 94.3436 142.06 92.259C142.06 90.1743 140.374 88.4844 138.295 88.4844C136.215 88.4844 134.53 90.1743 134.53 92.259C134.53 94.3436 136.215 96.0336 138.295 96.0336Z" fill="#008C96"/>
<path d="M132.032 85.0218C133.931 85.0218 135.471 83.4779 135.471 81.5734C135.471 79.6689 133.931 78.125 132.032 78.125C130.132 78.125 128.593 79.6689 128.593 81.5734C128.593 83.4779 130.132 85.0218 132.032 85.0218Z" fill="#008C96"/>
<g opacity="0.5">
<path opacity="0.5" d="M131.058 112.525C131.058 113.355 130.812 114.165 130.351 114.855C129.89 115.545 129.235 116.082 128.469 116.4C127.703 116.717 126.859 116.8 126.046 116.638C125.232 116.477 124.485 116.077 123.898 115.491C123.312 114.904 122.912 114.157 122.751 113.343C122.589 112.53 122.672 111.686 122.989 110.92C123.307 110.154 123.844 109.499 124.534 109.038C125.224 108.577 126.034 108.331 126.864 108.331C127.976 108.331 129.043 108.773 129.83 109.559C130.616 110.346 131.058 111.413 131.058 112.525Z" fill="white"/>
</g>
<g opacity="0.4">
<path opacity="0.4" d="M114.384 117.008C116.855 117.008 118.858 115.001 118.858 112.525C118.858 110.049 116.855 108.042 114.384 108.042C111.914 108.042 109.911 110.049 109.911 112.525C109.911 115.001 111.914 117.008 114.384 117.008Z" fill="white"/>
</g>
<g opacity="0.3">
<path opacity="0.3" d="M104.799 109.352C107.421 109.352 109.547 107.221 109.547 104.594C109.547 101.966 107.421 99.8359 104.799 99.8359C102.176 99.8359 100.05 101.966 100.05 104.594C100.05 107.221 102.176 109.352 104.799 109.352Z" fill="white"/>
</g>
<g opacity="0.2">
<path opacity="0.2" d="M102.856 97.3663C105.594 97.3663 107.814 95.1402 107.814 92.3941C107.814 89.648 105.594 87.4219 102.856 87.4219C100.117 87.4219 97.8973 89.648 97.8973 92.3941C97.8973 95.1402 100.117 97.3663 102.856 97.3663Z" fill="white"/>
</g>
<g opacity="0.1">
<path opacity="0.1" d="M108.928 86.8581C111.759 86.8581 114.054 84.5568 114.054 81.7181C114.054 78.8794 111.759 76.5781 108.928 76.5781C106.097 76.5781 103.802 78.8794 103.802 81.7181C103.802 84.5568 106.097 86.8581 108.928 86.8581Z" fill="white"/>
</g>
<g opacity="0.2">
<path opacity="0.2" d="M120.601 83.0972C123.687 83.0972 126.188 80.5894 126.188 77.4959C126.188 74.4023 123.687 71.8945 120.601 71.8945C117.515 71.8945 115.013 74.4023 115.013 77.4959C115.013 80.5894 117.515 83.0972 120.601 83.0972Z" fill="white"/>
</g>
<g opacity="0.6">
<path opacity="0.6" d="M140.182 104.496C140.18 105.298 139.941 106.082 139.494 106.748C139.046 107.415 138.412 107.933 137.67 108.239C136.928 108.545 136.112 108.624 135.326 108.466C134.539 108.309 133.817 107.921 133.25 107.353C132.683 106.785 132.298 106.062 132.142 105.275C131.986 104.488 132.067 103.672 132.374 102.931C132.682 102.19 133.202 101.557 133.869 101.111C134.537 100.666 135.321 100.428 136.123 100.428C136.657 100.428 137.185 100.534 137.678 100.739C138.171 100.944 138.618 101.243 138.995 101.621C139.372 101.999 139.671 102.447 139.875 102.941C140.078 103.434 140.183 103.962 140.182 104.496Z" fill="white"/>
</g>
<g opacity="0.7">
<path opacity="0.7" d="M138.295 96.0336C140.374 96.0336 142.06 94.3436 142.06 92.259C142.06 90.1743 140.374 88.4844 138.295 88.4844C136.215 88.4844 134.53 90.1743 134.53 92.259C134.53 94.3436 136.215 96.0336 138.295 96.0336Z" fill="white"/>
</g>
<g opacity="0.8">
<path opacity="0.8" d="M132.032 85.0218C133.931 85.0218 135.471 83.4779 135.471 81.5734C135.471 79.6689 133.931 78.125 132.032 78.125C130.132 78.125 128.593 79.6689 128.593 81.5734C128.593 83.4779 130.132 85.0218 132.032 85.0218Z" fill="white"/>
</g>
<path d="M143.216 134.223H96.7883C93.9007 134.223 91.5598 136.564 91.5598 139.451V140.318C91.5598 143.206 93.9007 145.546 96.7883 145.546H143.216C146.104 145.546 148.444 143.206 148.444 140.318V139.451C148.444 136.564 146.104 134.223 143.216 134.223Z" fill="#F5F5F5"/>
<path d="M117.954 134.223H96.7883C93.9007 134.223 91.5598 136.564 91.5598 139.451V140.318C91.5598 143.206 93.9007 145.546 96.7883 145.546H117.954C120.842 145.546 123.183 143.206 123.183 140.318V139.451C123.183 136.564 120.842 134.223 117.954 134.223Z" fill="#008C96"/>
<path d="M136.78 140.732C136.78 141.32 136.375 141.767 135.555 141.767C135.329 141.777 135.103 141.74 134.892 141.66C134.68 141.58 134.487 141.458 134.325 141.301L134.455 141.105C134.598 141.249 134.769 141.362 134.957 141.436C135.146 141.511 135.348 141.546 135.55 141.539C136.198 141.539 136.529 141.212 136.529 140.746C136.529 140.28 136.221 139.94 135.271 139.94H134.562L134.749 138.239H136.613V138.472H134.972L134.837 139.707H135.336C136.394 139.684 136.78 140.089 136.78 140.732Z" fill="#008C96"/>
<path d="M139.548 140.732C139.548 141.32 139.143 141.767 138.323 141.767C138.097 141.777 137.871 141.74 137.66 141.66C137.448 141.58 137.255 141.458 137.093 141.301L137.223 141.105C137.366 141.249 137.537 141.362 137.725 141.436C137.914 141.511 138.116 141.546 138.318 141.539C138.966 141.539 139.292 141.212 139.292 140.746C139.292 140.28 138.989 139.94 138.039 139.94H137.33L137.512 138.239H139.376V138.472H137.731L137.601 139.707H138.099C139.157 139.684 139.548 140.089 139.548 140.732Z" fill="#008C96"/>
<path d="M139.931 139.143C139.931 138.574 140.248 138.211 140.7 138.211C141.152 138.211 141.478 138.588 141.478 139.143C141.478 139.697 141.156 140.075 140.7 140.075C140.243 140.075 139.931 139.716 139.931 139.143ZM141.287 139.143C141.287 138.677 141.049 138.369 140.7 138.369C140.35 138.369 140.122 138.663 140.122 139.143C140.122 139.623 140.355 139.921 140.7 139.921C141.044 139.921 141.287 139.628 141.287 139.143ZM142.834 138.211H143.062L140.672 141.72H140.457L142.834 138.211ZM142.023 140.793C142.023 140.219 142.34 139.861 142.797 139.861C143.253 139.861 143.565 140.233 143.565 140.793C143.565 141.352 143.253 141.725 142.797 141.725C142.34 141.725 142.023 141.37 142.023 140.797V140.793ZM143.374 140.793C143.374 140.327 143.141 140.014 142.797 140.014C142.452 140.014 142.209 140.308 142.209 140.793C142.209 141.277 142.447 141.571 142.797 141.571C143.146 141.571 143.374 141.277 143.374 140.797V140.793Z" fill="#008C96"/>
<g opacity="0.2">
<path opacity="0.2" d="M105.311 134.223L101.062 145.411H104.184L108.149 134.223H105.311Z" fill="white"/>
</g>
<g opacity="0.2">
<path opacity="0.2" d="M112.982 134.223L108.727 145.411H111.854L115.815 134.223H112.982Z" fill="white"/>
</g>
<g opacity="0.2">
<path opacity="0.2" d="M120.494 135.065L116.533 145.481H118.397C118.89 145.375 119.371 145.219 119.832 145.015L122.558 137.298C122.071 136.39 121.36 135.622 120.494 135.065Z" fill="white"/>
</g>
<g opacity="0.2">
<path opacity="0.2" d="M97.8602 134.208L93.9504 144.497C94.7857 145.041 95.751 145.351 96.7464 145.397L100.712 134.213L97.8602 134.208Z" fill="white"/>
</g>
<path d="M143.113 145.546C143.542 145.521 143.968 145.458 144.385 145.36C145.586 145.053 146.641 144.336 147.368 143.333C147.894 142.615 148.226 141.774 148.333 140.891C148.385 140.385 148.398 139.875 148.37 139.367C148.35 138.821 148.243 138.282 148.053 137.769C147.733 136.89 147.185 136.112 146.464 135.517C145.743 134.921 144.876 134.529 143.952 134.381C143.257 134.308 142.558 134.285 141.86 134.311L96.8908 134.348C96.3556 134.357 95.8241 134.438 95.311 134.591C94.8057 134.76 94.3271 135 93.8897 135.304C93.0326 135.919 92.3826 136.78 92.0257 137.774C91.3966 139.735 91.6017 142.103 92.9577 143.622C93.6177 144.387 94.4853 144.944 95.4555 145.225C96.3875 145.514 97.4267 145.407 98.4239 145.43H104.268L124.483 145.453L138.113 145.495H141.841H142.801H143.132H142.801H141.841L138.113 145.518L124.483 145.556L104.268 145.584H96.9281C96.4114 145.579 95.8975 145.507 95.3996 145.369C94.3742 145.075 93.4576 144.486 92.7635 143.676C92.0694 142.866 91.6282 141.87 91.4945 140.812C91.4402 140.278 91.4277 139.74 91.4572 139.204C91.4799 138.658 91.5884 138.118 91.7788 137.606C92.1599 136.561 92.8508 135.657 93.7593 135.015C94.2169 134.698 94.7175 134.449 95.2458 134.274C95.7827 134.112 96.3395 134.026 96.9001 134.018L141.869 134.05C142.58 134.051 143.291 134.104 143.994 134.209C144.943 134.364 145.832 134.771 146.57 135.388C147.308 136.004 147.866 136.807 148.188 137.713C148.868 139.931 148.468 142.098 147.452 143.38C146.708 144.393 145.628 145.11 144.404 145.402C144.222 145.449 144.037 145.481 143.85 145.5C143.716 145.523 143.58 145.534 143.444 145.532C143.225 145.551 143.113 145.546 143.113 145.546Z" fill="#263238"/>
<path d="M97.0632 196.331V200.133C97.0631 200.208 97.0429 200.282 97.0047 200.346C96.9665 200.411 96.9118 200.464 96.8461 200.5C96.7804 200.536 96.7063 200.554 96.6314 200.552C96.5565 200.55 96.4835 200.528 96.4201 200.488L93.4284 198.586C93.3697 198.548 93.3216 198.495 93.2883 198.433C93.255 198.372 93.2375 198.302 93.2375 198.232C93.2375 198.162 93.255 198.093 93.2883 198.031C93.3216 197.969 93.3697 197.917 93.4284 197.878L96.4201 195.977C96.4835 195.937 96.5565 195.915 96.6314 195.912C96.7063 195.91 96.7804 195.928 96.8461 195.964C96.9118 196 96.9665 196.053 97.0047 196.118C97.0429 196.182 97.0631 196.256 97.0632 196.331Z" fill="#E0E0E0"/>
<path d="M121.626 198.195C121.625 198.713 121.47 199.22 121.182 199.651C120.893 200.082 120.483 200.417 120.003 200.615C119.524 200.813 118.996 200.864 118.488 200.763C117.979 200.661 117.512 200.411 117.146 200.043C116.779 199.676 116.53 199.209 116.429 198.7C116.328 198.191 116.38 197.664 116.579 197.185C116.778 196.706 117.114 196.296 117.545 196.008C117.977 195.72 118.484 195.566 119.002 195.566C119.347 195.566 119.689 195.634 120.008 195.767C120.326 195.899 120.616 196.092 120.859 196.336C121.103 196.581 121.296 196.87 121.428 197.189C121.559 197.508 121.627 197.85 121.626 198.195Z" fill="#E0E0E0"/>
<path d="M144.437 195.911H141.343C140.861 195.911 140.471 196.301 140.471 196.783V199.891C140.471 200.372 140.861 200.762 141.343 200.762H144.437C144.918 200.762 145.308 200.372 145.308 199.891V196.783C145.308 196.301 144.918 195.911 144.437 195.911Z" fill="#E0E0E0"/>
<path d="M200.17 133.69C200.441 131.781 200.547 129.852 200.487 127.925C200.425 125.99 199.882 124.1 198.907 122.427C198.754 122.18 197.537 120.563 197.258 120.637C197.057 120.698 197.924 122.268 197.854 122.469C197.278 124.391 197.298 126.443 197.91 128.354C198.462 130.212 199.22 132.001 200.17 133.69Z" fill="#263238"/>
<path d="M191.698 146.324C191.414 144.991 191.186 143.942 191.177 143.947C191.167 143.952 186.517 144.413 185.286 139.935C184.699 137.773 183.851 133.224 183.129 129.1C182.755 126.961 183.2 124.76 184.377 122.934C185.553 121.109 187.373 119.793 189.476 119.249L189.909 119.137C194.648 118.205 198.092 121.705 198.898 126.467L202.244 143.024L194.886 150.83L191.698 146.324Z" fill="#FFBE9D"/>
<path d="M191.177 143.924C193.25 143.375 195.123 142.243 196.573 140.662C196.573 140.662 196.032 144.357 191.447 145.112L191.177 143.924Z" fill="#EB996E"/>
<path d="M185.468 132.628C185.514 132.792 185.621 132.932 185.768 133.019C185.915 133.106 186.089 133.133 186.255 133.094C186.339 133.079 186.418 133.048 186.489 133.002C186.56 132.956 186.622 132.897 186.669 132.827C186.716 132.757 186.749 132.678 186.765 132.595C186.782 132.512 186.781 132.426 186.763 132.344C186.718 132.18 186.612 132.04 186.466 131.953C186.32 131.866 186.146 131.839 185.981 131.878C185.897 131.892 185.817 131.923 185.746 131.969C185.675 132.015 185.614 132.074 185.566 132.144C185.518 132.214 185.485 132.293 185.468 132.376C185.451 132.459 185.451 132.545 185.468 132.628Z" fill="#263238"/>
<path d="M184.569 130.689C184.671 130.754 185.062 130.269 185.752 130.092C186.442 129.915 187.038 130.13 187.094 130.022C187.15 129.915 187.001 129.845 186.735 129.743C186.384 129.614 186.002 129.596 185.64 129.692C185.276 129.783 184.95 129.987 184.708 130.274C184.536 130.479 184.536 130.661 184.569 130.689Z" fill="#263238"/>
<path d="M191.708 131.379C191.754 131.543 191.861 131.683 192.008 131.77C192.155 131.857 192.329 131.883 192.495 131.845C192.578 131.831 192.658 131.8 192.729 131.755C192.801 131.71 192.862 131.65 192.91 131.581C192.958 131.511 192.991 131.433 193.008 131.35C193.025 131.267 193.025 131.182 193.008 131.099C192.966 130.931 192.86 130.786 192.713 130.695C192.566 130.604 192.389 130.573 192.22 130.61C192.135 130.625 192.054 130.657 191.982 130.704C191.909 130.751 191.847 130.813 191.799 130.885C191.751 130.956 191.719 131.037 191.703 131.122C191.687 131.207 191.689 131.294 191.708 131.379Z" fill="#263238"/>
<path d="M191.4 129.217C191.503 129.282 191.894 128.797 192.584 128.62C193.273 128.443 193.87 128.657 193.921 128.555C193.972 128.452 193.828 128.378 193.567 128.275C193.215 128.142 192.83 128.124 192.467 128.224C192.103 128.311 191.776 128.514 191.535 128.802C191.386 129.021 191.349 129.193 191.4 129.217Z" fill="#263238"/>
<path d="M190.3 135.139C189.907 135.123 189.513 135.153 189.126 135.228C188.944 135.256 188.767 135.265 188.707 135.153C188.652 134.973 188.652 134.78 188.707 134.599C188.763 134.133 188.823 133.639 188.884 133.122C189.112 131.025 189.229 129.319 189.145 129.314C189.061 129.31 188.804 130.997 188.576 133.094C188.525 133.611 188.474 134.1 188.427 134.571C188.372 134.813 188.403 135.067 188.516 135.289C188.558 135.343 188.611 135.388 188.672 135.419C188.733 135.451 188.801 135.468 188.87 135.47C188.975 135.471 189.08 135.459 189.182 135.433C189.566 135.382 189.941 135.284 190.3 135.139Z" fill="#263238"/>
<path d="M192.458 135.112C192.341 135.135 192.537 135.885 192.034 136.58C191.531 137.274 190.71 137.405 190.734 137.512C190.757 137.619 190.948 137.614 191.288 137.535C191.727 137.426 192.115 137.167 192.383 136.803C192.641 136.452 192.752 136.014 192.691 135.582C192.635 135.256 192.5 135.093 192.458 135.112Z" fill="#263238"/>
<path d="M190.71 126.412C190.827 126.579 191.493 126.314 192.327 126.202C193.162 126.09 193.874 126.141 193.94 125.946C193.968 125.852 193.805 125.703 193.497 125.591C193.088 125.455 192.651 125.418 192.225 125.484C191.798 125.544 191.391 125.704 191.037 125.95C190.771 126.141 190.659 126.328 190.71 126.412Z" fill="#263238"/>
<path d="M184.261 128.322C184.424 128.448 184.857 128.163 185.426 128.005C185.994 127.847 186.507 127.837 186.577 127.646C186.605 127.553 186.488 127.418 186.237 127.325C185.907 127.218 185.553 127.214 185.221 127.311C184.889 127.408 184.593 127.603 184.373 127.87C184.214 128.084 184.186 128.261 184.261 128.322Z" fill="#263238"/>
<path d="M199.392 129.865C199.462 129.813 202.239 128.155 202.938 131.263C203.637 134.371 200.385 134.418 200.357 134.329C200.329 134.24 199.392 129.865 199.392 129.865Z" fill="#FFBE9D"/>
<path d="M201.037 132.931C201.037 132.931 201.102 132.954 201.2 132.977C201.341 133.002 201.486 132.972 201.606 132.894C201.778 132.723 201.901 132.51 201.963 132.275C202.024 132.041 202.022 131.794 201.955 131.561C201.902 131.293 201.791 131.04 201.629 130.82C201.579 130.729 201.507 130.653 201.42 130.597C201.333 130.541 201.233 130.507 201.13 130.498C201.065 130.497 201.001 130.517 200.949 130.557C200.897 130.597 200.861 130.654 200.846 130.717C200.823 130.815 200.846 130.871 200.846 130.88C200.846 130.89 200.767 130.843 200.767 130.708C200.765 130.625 200.793 130.544 200.846 130.48C200.881 130.438 200.925 130.404 200.973 130.379C201.022 130.354 201.076 130.339 201.13 130.335C201.263 130.332 201.394 130.362 201.511 130.423C201.628 130.484 201.728 130.574 201.801 130.685C201.992 130.923 202.122 131.205 202.179 131.505C202.3 132.134 202.113 132.791 201.713 133.019C201.635 133.064 201.549 133.089 201.46 133.094C201.371 133.099 201.282 133.083 201.2 133.047C201.06 133.005 201.028 132.94 201.037 132.931Z" fill="#EB996E"/>
<path d="M184.023 123.489C183.464 123.322 184.62 121.369 185.729 120.544C187.411 119.295 190.147 118.158 191.969 118.275C194.164 118.415 196.102 119.076 197.561 120.731C198.974 122.433 199.91 124.48 200.273 126.663C200.438 127.317 200.429 128.003 200.245 128.653C199.961 129.431 199.22 130.051 199.462 130.983C199.511 131.151 199.525 131.328 199.505 131.502C199.485 131.677 199.431 131.845 199.345 131.999C198.907 132.726 198.092 132.311 197.649 131.807C196.717 130.74 196.316 129.31 195.958 127.93C195.647 126.964 195.497 125.953 195.515 124.939C195.557 124.389 195.692 123.848 195.706 123.298C195.727 123.023 195.689 122.746 195.593 122.487C195.498 122.228 195.347 121.993 195.151 121.798C195.054 121.724 194.951 121.657 194.844 121.597C194.33 121.314 193.749 121.172 193.162 121.186C192.575 121.201 192.002 121.372 191.503 121.681C189.89 122.674 187.108 124.24 186.204 123.816C185.569 123.568 184.993 123.191 184.513 122.707L184.023 123.489Z" fill="#263238"/>
<path d="M191.298 116.569C191.512 116.546 196.759 116.411 198.935 119.794C201.112 123.177 201.032 124.403 201.032 124.403C201.257 124.477 201.47 124.582 201.666 124.715C201.932 124.906 201.927 126.15 201.247 126.183C195.855 125.251 190.063 126.5 183.72 128.313L178.809 129.492C177.481 130 176.908 129.757 177.411 129.263C177.788 128.891 181.283 126.346 181.283 126.346L181.903 125.591L183.217 122.278C183.217 122.278 182.868 121.952 183.282 121.504C183.697 121.057 187.108 117.031 191.298 116.569Z" fill="#008C96"/>
<path d="M181.889 125.591C181.954 125.58 182.018 125.565 182.08 125.545L182.625 125.395C183.091 125.256 183.781 125.088 184.634 124.892C186.862 124.412 189.127 124.127 191.405 124.039C193.683 123.961 195.964 124.011 198.236 124.189C199.112 124.249 199.816 124.314 200.305 124.356L200.865 124.403H201.06L200.869 124.375L200.305 124.314C199.839 124.263 199.117 124.189 198.241 124.123C195.968 123.923 193.685 123.864 191.405 123.946C189.121 124.032 186.85 124.325 184.62 124.822C182.914 125.232 181.889 125.591 181.889 125.591Z" fill="#263238"/>
<g opacity="0.3">
<path opacity="0.3" d="M196.382 117.6C196.382 117.6 190.813 118.066 188.711 119.846L188.954 119.636L186.941 121.207C186.792 121.362 186.611 121.482 186.41 121.559C186.21 121.635 185.994 121.666 185.78 121.649C186.595 120.568 187.605 119.648 188.758 118.937C190.804 117.614 194.275 116.388 196.382 117.6Z" fill="black"/>
</g>
<path d="M196.466 117.608C196.284 117.531 196.097 117.467 195.906 117.417C195.388 117.271 194.855 117.187 194.317 117.166C193.517 117.134 192.717 117.219 191.941 117.417C190.983 117.64 190.084 118.064 189.303 118.661C188.909 118.98 188.535 119.324 188.185 119.691C187.845 120.041 187.5 120.362 187.202 120.702C186.94 121.039 186.649 121.351 186.33 121.634C186.043 121.861 185.709 122.021 185.352 122.1C184.042 122.45 183.166 122.38 183.203 122.282C183.218 122.304 183.238 122.322 183.26 122.336C183.283 122.349 183.308 122.358 183.334 122.361C183.478 122.392 183.625 122.403 183.772 122.394C184.31 122.373 184.845 122.294 185.366 122.156C185.734 122.082 186.081 121.923 186.377 121.69C186.699 121.406 186.995 121.094 187.262 120.758C187.556 120.428 187.905 120.101 188.245 119.752C188.594 119.391 188.964 119.052 189.354 118.736C190.126 118.144 191.014 117.722 191.959 117.496C192.727 117.296 193.52 117.207 194.313 117.231C194.849 117.246 195.382 117.321 195.902 117.454L196.321 117.571C196.368 117.587 196.417 117.599 196.466 117.608Z" fill="#263238"/>
<g opacity="0.3">
<path opacity="0.3" d="M199.788 121.22C198.88 121.388 197.957 121.456 197.034 121.425C195.962 121.458 194.914 121.537 193.842 121.523C193.031 121.523 192.085 121.556 191.451 121.132C191.464 121.325 191.526 121.513 191.631 121.676C191.736 121.839 191.881 121.972 192.053 122.064C192.634 122.266 193.245 122.37 193.861 122.371C195.988 122.482 198.121 122.359 200.222 122.003C200.096 121.726 199.951 121.458 199.788 121.202" fill="black"/>
</g>
<path d="M198.679 119.426C199.35 119.538 199.769 119.621 199.919 120.134C200.04 120.558 200.086 121.108 199.681 121.29C199.555 121.339 199.42 121.363 199.285 121.36L192.327 121.705C192.093 121.745 191.852 121.7 191.647 121.579C191.521 121.449 191.45 121.275 191.45 121.094C191.45 120.913 191.521 120.739 191.647 120.609C191.914 120.365 192.245 120.203 192.602 120.143C194.581 119.638 196.619 119.402 198.66 119.44" fill="#008C96"/>
<path d="M191.773 121.649C191.669 121.592 191.582 121.508 191.521 121.407C191.447 121.265 191.413 121.106 191.424 120.946C191.435 120.787 191.489 120.633 191.582 120.503C191.917 120.155 192.361 119.932 192.84 119.869C193.376 119.762 193.972 119.65 194.597 119.557C195.664 119.382 196.745 119.304 197.826 119.324C198.241 119.324 198.572 119.361 198.805 119.38L199.07 119.408H199.164L199.075 119.384L198.81 119.343C198.577 119.315 198.241 119.273 197.826 119.259C196.735 119.222 195.642 119.292 194.564 119.468C193.94 119.562 193.343 119.678 192.807 119.79C192.312 119.857 191.856 120.094 191.517 120.461C191.419 120.6 191.363 120.765 191.356 120.935C191.348 121.105 191.39 121.273 191.475 121.421C191.523 121.498 191.591 121.563 191.67 121.607L191.773 121.649Z" fill="#263238"/>
<path d="M182.793 123.317L186.931 122.176L186.88 123.439L182.327 124.492L182.793 123.317Z" fill="white"/>
<path d="M190.025 125.419C190.025 125.395 188.101 125.601 185.729 125.885C183.357 126.169 181.442 126.407 181.442 126.43C181.442 126.453 183.371 126.248 185.738 125.964C188.106 125.68 190.03 125.442 190.025 125.419Z" fill="#263238"/>
<path d="M178.068 150.83L182.262 161.007L184.126 153.183C184.508 151.675 185.263 150.288 186.321 149.148C186.694 148.755 187.1 148.393 187.532 148.066L190.827 163.155C190.827 163.155 188.031 171.749 181.39 171.949C179.461 172.005 176.521 170.779 175.603 168.631C175.137 167.569 169.233 153.551 169.233 153.551L178.068 150.83Z" fill="#E0E0E0"/>
<path d="M179.862 158.966L180.1 157.461L175.155 153.267L174.279 154.25L171.46 157.479L182.113 166.119L184.68 163.034L179.862 158.966Z" fill="#263238"/>
<path d="M219.807 177.82C219.947 175.723 217.403 151.724 217.403 151.724L211.946 143.662L201.54 141.831C201.382 143.099 200.566 146.407 196.274 147.628C194.066 148.257 191.666 146.053 191.666 146.053L187.532 148.061L189.103 159.301L191.13 172.126L219.915 180.309C219.915 180.309 219.668 179.922 219.807 177.82Z" fill="#E0E0E0"/>
<path d="M192.421 173.458L191.13 157.987L206.182 154.939L219.71 174.959L220.106 181.8L199.304 181.152L192.421 173.458Z" fill="#008C96"/>
<path d="M188.534 153.355C188.615 153.592 188.673 153.835 188.707 154.082C188.805 154.548 188.926 155.238 189.066 156.082C189.34 157.778 189.648 160.131 189.956 162.731C190.263 165.332 190.538 167.68 190.771 169.381C190.888 170.197 190.981 170.872 191.051 171.39C191.098 171.634 191.125 171.882 191.13 172.131C191.055 171.893 190.997 171.65 190.958 171.404C190.86 170.938 190.738 170.253 190.603 169.405C190.324 167.708 190.016 165.36 189.713 162.759C189.41 160.159 189.126 157.806 188.893 156.11C188.781 155.294 188.688 154.614 188.614 154.096C188.569 153.852 188.542 153.604 188.534 153.355Z" fill="#263238"/>
<path d="M179.876 158.938C179.876 158.938 181.894 159.195 182.602 159.563C183.31 159.931 185.375 161.296 185.375 161.296L189.531 162.084L188.539 168.953L185.743 167.555L179.61 168.165C179.61 168.165 178.273 167.858 178.273 166.902C177.954 166.709 177.683 166.447 177.477 166.136C177.272 165.825 177.138 165.473 177.085 165.104C176.441 164.282 175.844 163.424 175.295 162.536C175.146 162.121 175.98 161.138 175.98 161.138C175.98 161.138 177.732 162.625 178.776 162.858C179.82 163.091 180.803 162.671 180.897 161.986C181.106 160.611 179.876 158.938 179.876 158.938Z" fill="#FFBE9D"/>
<g opacity="0.3">
<path opacity="0.3" d="M190.902 170.788C190.902 170.788 204.882 175.793 209.542 175.495C213.507 175.243 215.46 173.384 215.777 170.788C216.094 168.193 216.527 157.153 216.527 157.153L209.048 170.141L190.827 169.568L190.902 170.788Z" fill="black"/>
</g>
<path d="M213.568 170.09C214.574 167.219 215.679 161.702 215.679 161.702L217.417 152.507C217.479 150.11 216.675 147.771 215.152 145.918C214.01 144.548 212.412 143.378 210.278 143.388C205.762 143.388 205.921 151.734 205.921 151.734L204.69 163.659L187.01 160.77L185.887 169.269L206.68 173.757C207.555 173.975 208.466 174.001 209.352 173.831C210.237 173.661 211.075 173.3 211.806 172.774C212.652 172.078 213.266 171.142 213.568 170.09Z" fill="#E0E0E0"/>
<path d="M210.776 144.119C210.776 144.156 210.418 144.175 209.868 144.324C209.146 144.509 208.477 144.858 207.911 145.343C207.346 145.827 206.899 146.436 206.606 147.12C206.377 147.647 206.308 148.001 206.27 147.996C206.253 147.676 206.312 147.357 206.443 147.064C206.705 146.331 207.153 145.677 207.743 145.168C208.332 144.658 209.043 144.31 209.807 144.156C210.123 144.067 210.455 144.054 210.776 144.119Z" fill="#263238"/>
<path d="M217.417 152.503C217.417 152.503 217.417 152.582 217.389 152.727C217.361 152.871 217.324 153.095 217.277 153.37L216.834 155.849C216.634 156.925 216.392 158.244 216.112 159.768C215.833 161.292 215.502 163.03 215.059 164.936C214.84 165.891 214.593 166.888 214.323 167.918C214.188 168.435 214.034 168.957 213.857 169.489C213.696 170.037 213.492 170.571 213.246 171.087C212.992 171.627 212.643 172.118 212.216 172.536C211.76 172.95 211.239 173.285 210.674 173.529C209.487 174.034 208.175 174.172 206.909 173.925L190.468 170.388L185.85 169.391L185.738 169.367V169.26C186.125 166.324 186.503 163.482 186.861 160.756V160.639H186.978L204.704 163.566L204.607 163.64C205.003 159.945 205.324 156.967 205.539 154.903C205.65 153.887 205.744 153.095 205.804 152.545C205.837 152.284 205.86 152.079 205.879 151.934C205.897 151.79 205.911 151.725 205.911 151.725C205.911 151.725 205.911 151.799 205.911 151.934C205.911 152.069 205.883 152.288 205.86 152.549C205.809 153.099 205.734 153.892 205.636 154.912C205.436 156.981 205.138 159.959 204.774 163.659V163.747H204.686L186.978 160.895L187.108 160.798C186.754 163.519 186.381 166.362 185.995 169.297L185.934 169.158L190.552 170.15L206.983 173.706C208.205 173.949 209.471 173.819 210.618 173.333C211.163 173.11 211.666 172.795 212.105 172.401C212.518 171.998 212.856 171.525 213.102 171.003C213.342 170.497 213.543 169.974 213.703 169.437C213.866 168.911 214.02 168.389 214.169 167.876C214.453 166.846 214.696 165.854 214.919 164.903C215.385 163.002 215.721 161.273 216.005 159.744C216.289 158.216 216.56 156.911 216.769 155.835C216.979 154.758 217.142 153.943 217.259 153.365C217.314 153.095 217.361 152.899 217.394 152.727C217.426 152.554 217.417 152.503 217.417 152.503Z" fill="#263238"/>
<path d="M206.746 166.678C206.293 166.206 205.897 165.682 205.567 165.117C205.268 164.651 205.012 164.236 204.83 163.957C204.726 163.81 204.582 163.697 204.416 163.631C204.416 163.631 204.471 163.589 204.583 163.607C204.731 163.647 204.863 163.732 204.961 163.85C205.249 164.213 205.518 164.591 205.767 164.982C206.162 165.505 206.491 166.075 206.746 166.678Z" fill="#263238"/>
<path d="M203.721 155.76C203.721 155.76 200.576 147.782 203.856 143.882C204.24 143.435 204.723 143.086 205.268 142.863C205.812 142.639 206.401 142.547 206.988 142.595C208.022 142.675 209.397 142.875 210.278 143.383C210.278 143.383 207.482 142.884 206.322 144.119C205.464 145.051 203.4 147.992 205.576 155.061L203.721 155.76Z" fill="#008C96"/>
<path d="M191.186 158.361L187.98 147.848C188.165 147.513 188.451 147.245 188.798 147.082C189.144 146.92 189.533 146.871 189.909 146.944L193.003 158.361H191.186Z" fill="#008C96"/>
<path d="M180.733 162.079C180.692 162.13 178.953 160.821 176.847 159.152C175.553 158.178 174.309 157.139 173.119 156.04C173.161 155.988 174.899 157.298 177.005 158.966C178.299 159.941 179.544 160.98 180.733 162.079Z" fill="#455A64"/>
<path d="M172.373 156.436L171.418 155.555L171.875 154.991L172.984 155.737L172.373 156.436Z" fill="#455A64"/>
<path d="M163.389 142.689C163.282 142.273 163.341 141.832 163.553 141.459C163.765 141.086 164.114 140.81 164.526 140.69C166.26 140.177 168.934 139.538 169.652 140.224C170.756 141.235 173.38 143.681 173.38 143.681L177.024 151.244L171.125 152.983L169.447 147.227C169.447 147.227 166.763 147.372 167 145.932C167 145.932 165.658 145.405 165.849 144.59C166.04 143.774 167.145 143.583 167.145 143.583L166.907 142.143L163.38 142.763L163.389 142.689Z" fill="#FFBE9D"/>
<path d="M166.292 144.688H163.319V141.197H166.292C166.757 141.197 167.203 141.382 167.531 141.71C167.86 142.039 168.044 142.485 168.044 142.949C168.039 143.411 167.853 143.853 167.525 144.178C167.197 144.503 166.754 144.686 166.292 144.688Z" fill="#455A64"/>
<path d="M168.557 142.871L164.093 141.72C164.093 141.72 162.895 141.384 163.519 142.68C164.144 143.975 166.013 143.686 166.73 144.455C167.448 145.224 167.858 146.52 170.836 147" fill="#FFBE9D"/>
<path d="M170.836 146.999C170.637 146.999 170.438 146.977 170.244 146.934C169.711 146.836 169.192 146.67 168.701 146.44C168.363 146.275 168.049 146.063 167.769 145.811C167.457 145.515 167.173 145.191 166.921 144.842C166.455 144.036 165.355 144.078 164.386 143.635C164.138 143.522 163.914 143.364 163.724 143.169C163.548 142.971 163.41 142.742 163.319 142.493C163.272 142.369 163.242 142.239 163.23 142.106C163.225 142.03 163.236 141.953 163.263 141.881C163.291 141.81 163.334 141.745 163.389 141.692C163.503 141.622 163.631 141.579 163.765 141.566C163.898 141.553 164.032 141.57 164.158 141.617L166.46 142.237L168.007 142.675C168.199 142.721 168.386 142.785 168.566 142.866C168.369 142.857 168.173 142.824 167.984 142.768L166.413 142.4L164.083 141.832C163.993 141.798 163.898 141.784 163.802 141.79C163.706 141.797 163.613 141.824 163.529 141.869C163.412 141.957 163.445 142.2 163.529 142.409C163.61 142.628 163.73 142.83 163.883 143.006C164.056 143.174 164.256 143.311 164.475 143.411C164.939 143.595 165.413 143.75 165.896 143.877C166.138 143.945 166.369 144.049 166.581 144.185C166.773 144.331 166.941 144.505 167.08 144.702C167.321 145.045 167.592 145.367 167.89 145.662C168.157 145.906 168.453 146.116 168.771 146.286C169.437 146.585 170.128 146.824 170.836 146.999Z" fill="#EB996E"/>
<path d="M170.556 168.743C170.029 168.727 169.514 168.577 169.061 168.308C168.607 168.038 168.23 167.657 167.965 167.2C167.622 166.579 167.426 165.888 167.394 165.179C167.362 164.47 167.493 163.763 167.779 163.114C167.816 163.03 167.853 162.941 167.895 162.862L167.853 162.755C167.584 161.967 167.442 161.141 167.434 160.308C167.266 157.578 167.108 155.038 166.968 152.503C166.828 149.968 166.66 147.414 166.502 144.679H166.735C166.902 147.414 167.061 149.958 167.201 152.503C167.341 155.047 167.508 157.578 167.667 160.308C167.672 161.1 167.8 161.886 168.044 162.638C168.33 162.108 168.814 161.713 169.391 161.539C169.592 161.494 169.8 161.493 170.002 161.535C170.203 161.577 170.394 161.661 170.561 161.781C170.723 161.891 170.859 162.035 170.959 162.204C171.06 162.372 171.123 162.56 171.143 162.755C171.157 162.964 171.126 163.173 171.052 163.369C170.979 163.565 170.865 163.743 170.718 163.892C170.571 164.04 170.394 164.156 170.199 164.232C170.004 164.308 169.796 164.341 169.587 164.33C169.252 164.274 168.936 164.138 168.665 163.933C168.394 163.729 168.176 163.462 168.03 163.156L167.993 163.239C167.722 163.855 167.596 164.524 167.625 165.195C167.654 165.867 167.837 166.523 168.161 167.112C168.457 167.65 168.927 168.072 169.494 168.31C170.061 168.548 170.691 168.587 171.283 168.421C172.369 168.03 173.217 166.721 173.343 165.229C173.399 163.817 173.078 162.416 172.411 161.17C172.112 160.546 171.768 159.936 171.437 159.344C171.106 158.752 170.747 158.113 170.444 157.48C170.192 157.016 170.047 156.502 170.02 155.975C170.003 155.703 170.065 155.432 170.199 155.196C170.333 154.959 170.533 154.766 170.775 154.642C170.906 154.599 171.046 154.589 171.182 154.613C171.319 154.636 171.447 154.693 171.556 154.777C171.665 154.862 171.753 154.972 171.81 155.098C171.867 155.223 171.892 155.361 171.884 155.499H171.656C171.662 155.4 171.643 155.301 171.6 155.212C171.558 155.122 171.494 155.045 171.413 154.987C171.337 154.925 171.246 154.883 171.149 154.864C171.053 154.845 170.953 154.851 170.859 154.879C170.663 154.99 170.502 155.154 170.395 155.352C170.288 155.549 170.239 155.773 170.253 155.998C170.283 156.487 170.42 156.965 170.654 157.396C170.952 158.034 171.302 158.654 171.642 159.26C171.982 159.866 172.317 160.467 172.62 161.101C173.303 162.389 173.625 163.838 173.552 165.295C173.44 166.627 172.713 168.193 171.343 168.687C171.086 168.749 170.82 168.768 170.556 168.743ZM168.156 162.867C168.28 163.172 168.477 163.442 168.731 163.652C168.985 163.861 169.287 164.005 169.61 164.069C169.783 164.077 169.957 164.048 170.117 163.983C170.278 163.918 170.423 163.818 170.542 163.692C170.668 163.573 170.765 163.428 170.827 163.266C170.889 163.105 170.914 162.932 170.901 162.76C170.886 162.6 170.836 162.445 170.756 162.306C170.675 162.167 170.566 162.046 170.435 161.953C170.296 161.851 170.137 161.779 169.968 161.743C169.799 161.707 169.625 161.707 169.456 161.744C169.177 161.835 168.92 161.981 168.699 162.174C168.478 162.367 168.298 162.603 168.17 162.867H168.156Z" fill="#455A64"/>
<path d="M197.696 211.605L208.47 207.919C208.47 207.919 215.832 217.621 217.892 217.155L211.499 195.999L194.471 201.05L197.696 211.605Z" fill="#455A64"/>
<path d="M205.576 201.656C205.576 201.434 205.658 201.219 205.807 201.054C205.956 200.889 206.161 200.784 206.382 200.761C206.604 200.753 206.82 200.83 206.986 200.977C207.153 201.123 207.257 201.328 207.277 201.549C207.272 201.782 207.183 202.006 207.025 202.177C206.867 202.349 206.651 202.457 206.419 202.481C206.186 202.465 205.967 202.359 205.811 202.185C205.654 202.011 205.572 201.783 205.581 201.549" fill="#E0E0E0"/>
<path d="M211.937 195.85L210.287 196.316L216.564 216.615C216.564 216.615 217.263 217.435 217.892 217.127L211.937 195.85Z" fill="#E0E0E0"/>
<path d="M208.465 208.302C208.568 208.269 208.465 207.738 208.638 207.132C208.81 206.526 209.169 206.121 209.104 206.037C209.038 205.953 208.484 206.289 208.279 207.03C208.074 207.771 208.377 208.344 208.465 208.302Z" fill="#263238"/>
<path d="M210.054 210.236C210.161 210.236 210.203 209.728 210.52 209.243C210.837 208.759 211.28 208.521 211.247 208.418C211.214 208.316 210.604 208.418 210.203 209.038C209.802 209.658 209.956 210.264 210.054 210.236Z" fill="#263238"/>
<path d="M213.088 210.692C213.088 210.59 212.524 210.604 212.039 211.042C211.555 211.48 211.475 212.025 211.573 212.044C211.671 212.062 211.886 211.671 212.291 211.321C212.696 210.972 213.111 210.799 213.088 210.692Z" fill="#263238"/>
<path d="M205.916 208.861C206 208.791 205.711 208.358 205.576 207.761C205.441 207.165 205.487 206.657 205.38 206.629C205.273 206.601 205.04 207.151 205.213 207.85C205.385 208.549 205.851 208.936 205.916 208.861Z" fill="#263238"/>
<path d="M196.386 182.872C195.972 182.76 177.723 202.332 177.308 205.571C176.894 208.809 177.555 211.629 179.713 213.446C181.871 215.263 206.419 209.299 206.419 209.299L204.089 199.014L212.943 196.032L205.021 181.516L196.386 182.872Z" fill="#008C96"/>
<g opacity="0.3">
<path opacity="0.3" d="M192.067 187.21L191.484 187.839C191.484 187.839 201.941 198.814 205.152 198.66L210.278 196.922L192.924 186.26L192.067 187.21Z" fill="black"/>
</g>
<path d="M204.159 199.284C204.159 199.349 200.371 200.524 195.659 201.908C190.948 203.292 187.104 204.363 187.085 204.298C187.066 204.233 190.874 203.063 195.59 201.675C200.305 200.286 204.141 199.219 204.159 199.284Z" fill="#263238"/>
<path d="M181.372 200.416L184.918 211.666C184.918 211.666 174.666 219.052 175.132 221.195L197.197 215.1L192.393 197.341L181.372 200.416Z" fill="#455A64"/>
<path d="M191.475 208.828C191.705 208.833 191.925 208.923 192.093 209.08C192.26 209.237 192.364 209.451 192.383 209.681C192.392 209.915 192.309 210.144 192.151 210.318C191.994 210.493 191.774 210.598 191.54 210.613C191.297 210.599 191.068 210.497 190.896 210.325C190.724 210.153 190.621 209.923 190.608 209.681C190.641 209.215 191.139 208.749 191.587 208.837" fill="#E0E0E0"/>
<path d="M197.332 215.562L196.866 213.838L175.682 219.835C175.682 219.835 174.815 220.534 175.118 221.196L197.332 215.562Z" fill="#E0E0E0"/>
<path d="M184.536 211.652C184.573 211.759 185.123 211.652 185.748 211.862C186.372 212.071 186.782 212.435 186.871 212.365C186.959 212.295 186.624 211.717 185.864 211.489C185.104 211.26 184.48 211.563 184.536 211.652Z" fill="#263238"/>
<path d="M182.481 213.25C182.481 213.362 182.998 213.414 183.492 213.768C183.986 214.122 184.224 214.579 184.326 214.541C184.429 214.504 184.326 213.88 183.716 213.451C183.105 213.022 182.453 213.148 182.481 213.25Z" fill="#263238"/>
<path d="M181.931 216.382C182.034 216.382 182.034 215.799 181.596 215.286C181.157 214.774 180.589 214.676 180.566 214.779C180.542 214.881 180.943 215.109 181.297 215.538C181.651 215.967 181.819 216.4 181.931 216.382Z" fill="#263238"/>
<path d="M184.005 209C184.075 209.084 184.531 208.8 185.151 208.674C185.771 208.548 186.297 208.609 186.33 208.497C186.363 208.385 185.799 208.134 185.067 208.292C184.336 208.451 183.93 208.931 184.005 209Z" fill="#263238"/>
<g opacity="0.3">
<path opacity="0.3" d="M197.346 211.35L195.986 206.014L197.001 205.543L190.827 188.739L189.648 189.764L194.499 205.156L196.237 211.583L197.346 211.35Z" fill="black"/>
</g>
<path d="M182.779 169.754C181.582 169.497 180.344 169.497 179.147 169.754C177.95 170.011 176.822 170.52 175.836 171.245C174.839 171.947 174.065 172.921 173.605 174.05C173.146 175.18 173.021 176.417 173.245 177.616C174.237 184.606 183.143 208.372 183.143 208.372L195.464 204.667C195.534 204.667 195.603 204.443 195.562 204.504C195.464 204.667 189.312 184.857 189.466 185.09C189.62 185.323 201.899 195.254 206.997 197.053C209.279 197.88 211.767 197.952 214.093 197.257C216.419 196.562 218.46 195.138 219.915 193.194C221.108 191.526 221.192 184.191 219.915 180.314C219.915 180.314 184.359 170.234 183.693 169.987C183.393 169.89 183.088 169.812 182.779 169.754Z" fill="#008C96"/>
<path d="M182.276 177.005C184.244 178.334 185.906 180.067 187.152 182.088C188.397 184.11 189.197 186.374 189.499 188.729" fill="#008C96"/>
<path d="M220.418 192.952L220.269 193.189C220.115 193.414 219.948 193.631 219.77 193.837C219.061 194.627 218.244 195.313 217.342 195.873C215.91 196.789 214.305 197.4 212.626 197.668C211.57 197.839 210.495 197.853 209.434 197.71C208.237 197.565 207.074 197.215 205.995 196.675C205.408 196.428 204.854 196.092 204.262 195.79C203.67 195.487 203.092 195.123 202.505 194.75C201.327 194.02 200.119 193.225 198.879 192.364C196.394 190.65 193.809 188.72 191.125 186.577L190.119 185.761L189.615 185.342L189.48 185.216L189.415 185.155C189.457 185.155 189.298 185.1 189.503 185.183C189.667 185.011 189.55 185.1 189.587 185.081V185.114L189.676 185.43C189.937 186.269 190.198 187.122 190.468 187.989C191.015 189.713 191.573 191.479 192.141 193.287C193.297 196.903 194.499 200.678 195.743 204.578L195.781 204.69L195.664 204.727L183.189 208.483L183.077 208.516L183.04 208.409C182.243 206.275 181.418 204.005 180.594 201.698C178.804 196.694 177.103 191.791 175.607 187.005C174.857 184.615 174.158 182.252 173.599 179.899C173.529 179.605 173.45 179.316 173.394 179.018C173.338 178.72 173.287 178.426 173.231 178.133C173.108 177.546 173.05 176.948 173.058 176.348C173.06 175.154 173.403 173.985 174.046 172.979C174.697 172.042 175.538 171.253 176.515 170.663C177.491 170.073 178.581 169.695 179.713 169.554C180.799 169.397 181.905 169.443 182.975 169.689L183.753 169.889L184.503 170.113L185.99 170.556L196.899 173.818L212.696 178.552L216.988 179.852L218.102 180.193C218.354 180.272 218.479 180.318 218.479 180.318C218.479 180.318 218.349 180.29 218.093 180.216L216.974 179.899L212.668 178.641L196.824 173.981L185.901 170.747L184.415 170.309L183.651 170.09L182.9 169.903C181.862 169.668 180.79 169.624 179.736 169.773C178.635 169.911 177.575 170.279 176.626 170.854C175.677 171.429 174.86 172.197 174.228 173.109C173.61 174.084 173.287 175.217 173.296 176.371C173.289 176.958 173.346 177.545 173.468 178.119C173.52 178.408 173.576 178.701 173.632 178.995C173.687 179.289 173.767 179.577 173.832 179.871C174.391 182.201 175.09 184.568 175.845 186.959C177.341 191.735 179.042 196.638 180.831 201.643C181.656 203.945 182.481 206.219 183.273 208.348L183.129 208.274L195.608 204.546L195.529 204.69C194.289 200.79 193.092 197.015 191.941 193.399C191.372 191.588 190.816 189.819 190.272 188.091C190.007 187.229 189.746 186.372 189.485 185.528L189.396 185.207V185.16C189.434 185.132 189.312 185.197 189.476 185.025C189.695 185.114 189.545 185.053 189.597 185.081L189.653 185.128L189.764 185.225L190.263 185.645L191.265 186.46C193.944 188.599 196.531 190.542 198.996 192.262C200.226 193.129 201.433 193.921 202.607 194.657C203.19 195.025 203.782 195.356 204.35 195.696C204.919 196.037 205.492 196.335 206.07 196.586C207.134 197.124 208.284 197.474 209.467 197.621C210.514 197.769 211.577 197.759 212.622 197.593C214.289 197.337 215.886 196.742 217.314 195.846C218.215 195.297 219.036 194.626 219.752 193.851C219.934 193.649 220.105 193.438 220.264 193.217C220.339 193.026 220.418 192.952 220.418 192.952Z" fill="#263238"/>
<path d="M183.837 179.629C184.202 179.768 184.546 179.954 184.862 180.183C185.651 180.694 186.391 181.277 187.071 181.926C187.753 182.573 188.365 183.29 188.898 184.065C189.139 184.374 189.331 184.718 189.466 185.086C189.211 184.79 188.974 184.479 188.758 184.154C188.194 183.416 187.57 182.726 186.894 182.089C186.221 181.451 185.506 180.858 184.755 180.314C184.433 180.107 184.126 179.878 183.837 179.629Z" fill="#263238"/>
<path d="M188.045 178.254C188.244 178.541 188.401 178.855 188.511 179.186C188.813 179.958 189.054 180.753 189.233 181.563C189.415 182.37 189.532 183.192 189.583 184.018C189.628 184.36 189.628 184.706 189.583 185.048C189.508 185.048 189.429 183.487 189.005 181.614C188.581 179.74 187.975 178.282 188.045 178.254Z" fill="#263238"/>
<path d="M215.292 177.769L219.794 176.474L222.734 177.005L224.132 181.917C225.53 186.26 225.218 188.748 222.338 190.654C221.494 191.213 220.693 191.521 220.11 191.274C218.088 190.416 215.292 177.769 215.292 177.769Z" fill="#455A64"/>
<path d="M219.794 176.473L191.065 171.748L191.13 172.13L219.794 180.705V176.473Z" fill="#455A64"/>
<path d="M40.4861 198.828L37.6622 208.768C37.6622 208.768 46.6606 215.008 46.3158 216.89L27.1399 212.03L30.9192 196.396L40.4861 198.828Z" fill="#455A64"/>
<path d="M31.9397 206.396C31.7402 206.408 31.5522 206.493 31.4113 206.635C31.2704 206.777 31.1865 206.965 31.1754 207.165C31.1775 207.365 31.2557 207.557 31.3942 207.701C31.5327 207.846 31.7211 207.932 31.921 207.943C32.1328 207.929 32.3321 207.838 32.4808 207.687C32.6296 207.536 32.7173 207.335 32.7272 207.123C32.6899 206.722 32.2612 206.307 31.8651 206.405" fill="#E0E0E0"/>
<g opacity="0.6">
<path opacity="0.6" d="M27.1399 212.03L27.5826 210.469L45.8032 215.711C45.8032 215.711 46.5628 216.308 46.3158 216.89L27.1399 212.03Z" fill="white"/>
</g>
<path d="M37.9977 208.722C37.9698 208.815 37.4944 208.722 36.9585 208.931C36.4226 209.141 36.0778 209.453 35.9986 209.397C35.9194 209.341 36.199 208.824 36.8514 208.605C37.5038 208.386 38.0397 208.642 37.9977 208.722Z" fill="#263238"/>
<path d="M39.801 210.077C39.801 210.17 39.335 210.231 38.9389 210.543C38.5428 210.855 38.3238 211.266 38.2306 211.238C38.1374 211.21 38.2306 210.655 38.7386 210.268C39.2465 209.882 39.8197 209.984 39.801 210.077Z" fill="#263238"/>
<path d="M40.3417 212.804C40.2485 212.804 40.2392 212.296 40.6073 211.839C40.9754 211.383 41.4647 211.285 41.4834 211.373C41.502 211.462 41.1618 211.672 40.8683 212.049C40.5747 212.426 40.4349 212.818 40.3417 212.804Z" fill="#263238"/>
<path d="M38.3938 206.392C38.3332 206.466 37.9278 206.229 37.3966 206.131C36.8653 206.033 36.404 206.098 36.376 206.005C36.348 205.912 36.842 205.669 37.4618 205.795C38.0816 205.921 38.459 206.326 38.3938 206.392Z" fill="#263238"/>
<path d="M33.7664 201.163L33.3004 211.471C33.3004 211.471 43.4965 215.395 43.599 217.31L23.8546 217.156L23.8966 201.061L33.7664 201.163Z" fill="#455A64"/>
<path d="M27.2144 210.558C27.0226 210.617 26.8593 210.745 26.7554 210.916C26.6515 211.088 26.6142 211.292 26.6505 211.49C26.6993 211.683 26.82 211.85 26.988 211.958C27.156 212.065 27.3586 212.104 27.5546 212.067C27.7539 212.005 27.9238 211.872 28.0326 211.694C28.1415 211.516 28.1819 211.304 28.1464 211.098C28.0775 210.901 27.9339 210.739 27.7465 210.646C27.5591 210.554 27.3429 210.539 27.1445 210.604" fill="#E0E0E0"/>
<g opacity="0.6">
<path opacity="0.6" d="M23.8545 217.156L23.9197 215.534L42.844 216.289C42.844 216.289 43.7201 216.685 43.6176 217.314L23.8545 217.156Z" fill="white"/>
</g>
<path d="M33.6405 211.373C33.6405 211.471 33.1745 211.513 32.6759 211.839C32.1773 212.165 31.9443 212.562 31.8558 212.52C31.7672 212.478 31.9163 211.919 32.4988 211.555C33.0813 211.192 33.6638 211.285 33.6405 211.373Z" fill="#263238"/>
<path d="M35.7096 212.258C35.7096 212.352 35.3088 212.515 34.978 212.929C34.6471 213.344 34.5493 213.777 34.4561 213.768C34.3629 213.759 34.3023 213.214 34.7217 212.71C35.1411 212.207 35.7049 212.165 35.7096 212.258Z" fill="#263238"/>
<path d="M36.8653 214.784C36.7768 214.784 36.6463 214.318 36.898 213.777C37.1496 213.236 37.6063 213.036 37.6436 213.115C37.6808 213.195 37.4059 213.483 37.2055 213.926C37.0051 214.369 36.9632 214.774 36.8653 214.784Z" fill="#263238"/>
<path d="M33.4868 209.01C33.4449 209.099 33.0208 208.964 32.4569 209.01C31.8931 209.057 31.4877 209.215 31.4364 209.132C31.3851 209.048 31.7999 208.698 32.443 208.666C33.086 208.633 33.552 208.936 33.4868 209.01Z" fill="#263238"/>
<path d="M21.5385 125.703V133.858L23.7008 165.621C23.7008 165.621 22.368 181.031 21.5292 189.732C20.8116 197.285 21.9952 210.441 21.9952 210.441H34.5772L39.0788 166.567L41.8748 139.203L46.7212 126.752L21.5385 125.703Z" fill="#263238"/>
<path d="M52.439 125.703L53.6553 158.812C53.5714 165.024 51.8612 176.623 49.6384 182.415L39.5308 204.62L38.9483 206.619L31.4318 204.779L37.0191 126.286L52.439 125.703Z" fill="#263238"/>
<path d="M43.7341 134.474C43.7404 134.54 43.7404 134.607 43.7341 134.674C43.7341 134.814 43.7341 135.005 43.7341 135.252C43.7341 135.778 43.7341 136.529 43.7341 137.489C43.7341 139.432 43.7341 142.242 43.6735 145.714C43.613 149.185 43.5058 153.319 43.2588 157.904C43.0118 162.49 42.681 167.546 41.6045 172.746C40.6585 177.951 39.61 182.891 38.678 187.383C37.746 191.875 36.9165 195.925 36.2968 199.341C35.677 202.757 35.225 205.529 34.95 207.454C34.8056 208.414 34.731 209.164 34.6611 209.667C34.6285 209.914 34.6005 210.105 34.5819 210.245C34.5765 210.312 34.564 210.377 34.5446 210.441C34.5384 210.374 34.5384 210.307 34.5446 210.241C34.5446 210.101 34.5725 209.91 34.5958 209.663C34.6518 209.155 34.7123 208.405 34.8428 207.44C35.0712 205.511 35.4859 202.733 36.0824 199.308C36.6789 195.883 37.4804 191.852 38.4124 187.337C39.3444 182.821 40.3882 177.905 41.3808 172.7C42.4526 167.513 42.7788 162.448 43.0491 157.89C43.3194 153.333 43.4312 149.181 43.5151 145.709C43.599 142.237 43.6316 139.432 43.6549 137.489C43.6549 136.529 43.6549 135.778 43.6549 135.252C43.6549 135.005 43.6549 134.814 43.6549 134.674C43.6767 134.606 43.7032 134.539 43.7341 134.474Z" fill="#455A64"/>
<path d="M59.5734 117.241C59.7437 117.861 59.8067 118.506 59.7598 119.147C59.6666 120.121 59.62 122.525 57.0198 123.341C54.4195 124.156 51.9637 122.208 51.1715 121.328C50.3793 120.447 50.4678 117.562 50.4678 117.562L54.741 115.661L59.5734 117.241Z" fill="#008C96"/>
<path d="M30.0337 80.5526L27.8714 84.029L19.106 87.757L21.3008 123.737L22.8759 130.261L52.0615 129.292L52.7838 124.24V99.9755C52.1221 93.7497 49.1164 89.8819 46.325 88.3488L44.503 87.0999L43.804 84.8118L41.2316 82.4026L32.9881 80.2637L30.0337 80.5526Z" fill="#008C96"/>
<g opacity="0.3">
<path opacity="0.3" d="M20.3315 121.002C21.272 122.43 22.6025 123.559 24.1652 124.255C25.7279 124.95 27.4573 125.183 29.1483 124.925C32.0794 124.431 34.5539 122.497 37.3638 121.533C42.2522 119.846 47.8302 121.188 52.6486 119.31C52.7418 118.481 52.6859 117.446 52.7418 116.896C50.3326 116.77 47.765 116.635 45.6353 115.498L43.7014 114.785L20.3315 121.002Z" fill="black"/>
</g>
<path d="M19.1061 87.7617C19.1061 87.7617 14.9447 91.322 16.1516 100.605C17.27 109.226 19.2552 121.239 21.9021 122.632C24.5489 124.026 30.2621 123.327 34.4421 120.96C38.6221 118.592 50.7521 112.18 50.7521 112.18L45.7333 103.261L29.5678 109.533C29.5678 109.533 27.4754 95.227 26.2219 92.7572" fill="#008C96"/>
<path d="M26.2218 92.7668C26.2218 92.7668 26.2684 92.8553 26.3477 93.037C26.3849 93.1302 26.4409 93.2421 26.4921 93.3819L26.6506 93.8712C26.8882 94.6074 27.1725 95.7352 27.48 97.1658C28.1045 100.06 28.878 104.272 29.6516 109.519L29.5351 109.45L45.6913 103.159L45.7799 103.121L45.8311 103.205C47.4155 106.024 49.0931 109.021 50.8499 112.12L50.9105 112.227L50.794 112.306L40.4302 117.898L35.3461 120.634C34.512 121.1 33.6778 121.566 32.8157 121.92C31.9563 122.288 31.0737 122.599 30.1735 122.852C28.4197 123.339 26.6006 123.55 24.7819 123.476C23.8937 123.442 23.0177 123.257 22.1909 122.931L21.888 122.796C21.7865 122.741 21.6885 122.681 21.5945 122.614C21.4238 122.475 21.2677 122.319 21.1285 122.148C20.8638 121.805 20.6343 121.437 20.4434 121.048C19.7528 119.552 19.2111 117.991 18.8264 116.388C18.4163 114.837 18.0948 113.313 17.8059 111.84C17.2327 108.886 16.8086 106.118 16.4545 103.587C16.1003 101.057 15.7881 98.7502 15.8813 96.7138C15.929 94.9676 16.2433 93.239 16.8133 91.5878C17.1779 90.5466 17.6945 89.5652 18.3464 88.6753C18.5161 88.4454 18.7014 88.2274 18.901 88.0229C18.9668 87.9518 19.0385 87.8863 19.1153 87.8271L18.915 88.0368C18.7891 88.1813 18.6027 88.4003 18.3837 88.7032C17.7569 89.6022 17.2582 90.584 16.9018 91.6204C16.3553 93.2643 16.0615 94.9817 16.0304 96.7138C15.9512 98.7362 16.2727 101.029 16.6362 103.559C16.9997 106.09 17.4377 108.848 18.0342 111.794C18.3278 113.266 18.654 114.785 19.0641 116.328C19.4468 117.921 19.9869 119.473 20.6764 120.96C20.8619 121.335 21.0835 121.69 21.3382 122.022C21.4671 122.181 21.6123 122.327 21.7715 122.456C21.8528 122.515 21.9385 122.568 22.0278 122.614L22.3168 122.745C23.1197 123.061 23.9708 123.237 24.8332 123.266C26.6224 123.309 28.4072 123.07 30.1223 122.558C31.0111 122.315 31.8829 122.013 32.7319 121.654C33.5846 121.286 34.3955 120.825 35.2343 120.377L40.323 117.637L50.6915 112.045L50.6449 112.208L45.6354 103.317L45.7705 103.364L29.5957 109.613L29.4978 109.655V109.543C28.7243 104.3 27.9973 100.078 27.4055 97.1891C27.1119 95.7398 26.8416 94.6261 26.6226 93.8851C26.5667 93.6987 26.5201 93.5356 26.4735 93.3912L26.343 93.0463C26.2545 92.8646 26.2218 92.7668 26.2218 92.7668Z" fill="#263238"/>
<path d="M27.6151 98.051L38.1141 97.3613L40.4348 101.728L28.6683 103.843L27.6151 98.051Z" fill="#008C96"/>
<path d="M27.6152 98.0505C27.6556 98.1884 27.6883 98.3284 27.713 98.4699C27.769 98.7635 27.8482 99.1503 27.946 99.6349C28.1418 100.655 28.412 102.081 28.7569 103.829L28.6497 103.754L39.2419 101.82L40.4162 101.611L40.3277 101.783C39.5168 100.245 38.7339 98.7775 37.9977 97.4168L38.1048 97.4727L30.5836 97.9107L28.4027 98.0272H27.8156H27.6012C27.6632 98.022 27.7256 98.022 27.7876 98.0272L28.3468 97.976L30.4997 97.8036L38.0909 97.249H38.1654L38.198 97.3143L40.528 101.676L40.6073 101.82L40.4442 101.853L39.2745 102.063L28.6683 103.927H28.5798V103.838C28.2816 102.058 28.0346 100.604 27.8575 99.565C27.7783 99.099 27.7177 98.7029 27.6711 98.4187C27.6455 98.2971 27.6268 98.1742 27.6152 98.0505Z" fill="#263238"/>
<path d="M29.5677 109.533C29.6329 109.584 28.6916 110.689 27.9087 112.264C27.1258 113.839 26.7903 115.256 26.7064 115.232C26.7192 114.915 26.7789 114.601 26.8835 114.3C27.0805 113.561 27.3506 112.843 27.6897 112.157C28.0318 111.472 28.4424 110.824 28.9153 110.223C29.0964 109.961 29.3164 109.729 29.5677 109.533Z" fill="#263238"/>
<path d="M40.1132 89.5275C39.9058 89.4088 39.7107 89.2699 39.5307 89.1128L38.0069 87.9012H38.1374C37.5491 88.8521 36.8498 89.7296 36.0544 90.5154L35.9798 90.59L35.8959 90.5201L34.2882 89.1827C32.564 87.7847 30.9517 86.5544 29.7773 85.6877L28.3793 84.6578C28.2022 84.5421 28.0368 84.4095 27.8854 84.2617C28.0787 84.3508 28.2628 84.4585 28.4353 84.5833C28.7801 84.8023 29.2741 85.1285 29.8752 85.5479C31.0775 86.382 32.7085 87.5843 34.4373 88.9963C35.0012 89.4623 35.5464 89.9283 36.045 90.343H35.8819C36.6705 89.5729 37.3736 88.7198 37.9789 87.7987L38.0349 87.7101L38.1094 87.78L39.6099 89.0336C39.7893 89.186 39.9575 89.3511 40.1132 89.5275Z" fill="#263238"/>
<path d="M44.4286 87.3233C44.4906 87.511 44.519 87.7082 44.5124 87.9058C44.543 88.4251 44.5259 88.9461 44.4612 89.4623L44.4286 89.7372L44.2701 89.5042C43.8828 88.945 43.4659 88.4067 43.0212 87.8919C42.8348 87.6728 42.6438 87.4678 42.4574 87.2721C42.372 87.1759 42.2818 87.0842 42.1871 86.9971C42.0939 86.9366 42.1079 86.9366 42.024 87.0251L41.2504 88.1016C41.0286 88.4478 40.7726 88.771 40.4862 89.0662C40.6591 88.6924 40.8682 88.3366 41.1106 88.0037L41.8469 86.89C41.8694 86.8506 41.9004 86.8169 41.9376 86.7911C41.9748 86.7653 42.0174 86.7483 42.0621 86.7411C42.1068 86.734 42.1525 86.7369 42.1959 86.7498C42.2393 86.7626 42.2793 86.7851 42.3129 86.8154C42.4341 86.9179 42.5086 87.0018 42.6112 87.1043C42.8022 87.3 42.9979 87.5097 43.189 87.7334C43.641 88.2547 44.0552 88.8075 44.4286 89.3877L44.2328 89.4343C44.4425 88.1808 44.3773 87.3233 44.4286 87.3233Z" fill="#263238"/>
<path d="M25.7418 91.3361C25.5021 91.0979 25.2838 90.839 25.0894 90.5625C24.5986 89.9274 24.0196 89.3656 23.3699 88.8942C22.6998 88.4679 21.947 88.1883 21.1611 88.0741C20.8254 88.0464 20.4922 87.995 20.1638 87.9203C20.5015 87.8625 20.8466 87.8625 21.1844 87.9203C22.0175 88.0039 22.8175 88.2903 23.5144 88.7545C24.1872 89.2368 24.7707 89.8329 25.2386 90.5159C25.4437 90.7646 25.6131 91.0406 25.7418 91.3361Z" fill="#263238"/>
<path d="M48.5526 97.7943C48.2003 97.0791 47.9223 96.3296 47.7231 95.5575C47.4451 94.803 47.2437 94.0224 47.1219 93.2275C47.4755 93.9444 47.755 94.6954 47.9561 95.469C48.2331 96.2219 48.433 97.001 48.5526 97.7943Z" fill="#263238"/>
<path d="M52.6812 118.364C52.7484 118.67 52.7796 118.983 52.7744 119.296C52.8117 119.865 52.8769 120.648 52.9142 121.519C52.9559 122.266 52.9404 123.016 52.8676 123.761C52.8587 124.081 52.7908 124.397 52.6672 124.693C52.6515 124.382 52.6608 124.07 52.6952 123.761C52.6952 123.192 52.6952 122.409 52.6952 121.542C52.6952 120.676 52.6206 119.888 52.63 119.315C52.595 118.997 52.6124 118.676 52.6812 118.364Z" fill="#263238"/>
<path d="M33.6312 101.122C33.5334 101.225 33.4781 101.361 33.4761 101.502C33.4742 101.644 33.5258 101.782 33.6207 101.887C33.7156 101.993 33.8468 102.059 33.9881 102.072C34.1294 102.085 34.2704 102.044 34.383 101.958C34.4956 101.871 34.5715 101.746 34.5956 101.606C34.6197 101.466 34.5902 101.322 34.5129 101.203C34.4357 101.084 34.3164 100.999 34.1789 100.964C34.0413 100.929 33.8957 100.947 33.771 101.015" fill="#E0E0E0"/>
<g opacity="0.3">
<path opacity="0.3" d="M26.9161 94.9053L29.8613 103.629L39.568 101.886L30.2108 105.553L29.4232 108.578L26.9161 94.9053Z" fill="black"/>
</g>
<g opacity="0.3">
<path opacity="0.3" d="M28.1371 84.416L36.814 92.2681L38.1561 88.596L39.5541 89.062L38.0489 87.8132C38.0489 87.8132 36.3993 90.3482 35.9612 90.3948L28.1371 84.416Z" fill="black"/>
</g>
<path d="M44.6755 103.224C44.5969 103.056 44.5375 102.879 44.4984 102.697C44.3912 102.306 44.2514 101.817 44.0883 101.239C43.7435 100.008 43.2448 98.3169 42.6344 96.4622C42.0239 94.6076 41.4088 92.9579 40.9521 91.7603C40.7424 91.2011 40.5607 90.7304 40.4162 90.3623C40.3393 90.1917 40.28 90.0137 40.2391 89.8311C40.3445 89.9853 40.4321 90.151 40.5001 90.325C40.6539 90.6466 40.8636 91.1219 41.1152 91.723C41.6092 92.902 42.2476 94.5563 42.8627 96.411C43.4778 98.2657 43.9532 99.9759 44.2607 101.22C44.4145 101.84 44.5263 102.348 44.5962 102.697C44.6431 102.869 44.6697 103.046 44.6755 103.224Z" fill="#263238"/>
<path d="M44.5496 93.5356C46.1899 95.1713 50.3466 99.4398 50.3466 99.4398L51.4604 98.7688L45.6028 92.5151C45.4847 92.3909 45.327 92.3118 45.1569 92.2914C44.9868 92.271 44.8149 92.3105 44.6708 92.4032C44.5789 92.4624 44.5015 92.5413 44.4442 92.6343C44.3869 92.7273 44.3511 92.8319 44.3395 92.9405C44.3279 93.0491 44.3407 93.1589 44.3771 93.2619C44.4134 93.3649 44.4724 93.4584 44.5496 93.5356Z" fill="#263238"/>
<path d="M45.7333 103.261L47.1313 99.3276C47.2735 98.9002 47.5431 98.5265 47.9037 98.2567C48.2644 97.9868 48.6989 97.8336 49.1491 97.8177C49.2188 97.8108 49.289 97.8108 49.3588 97.8177C50.1976 97.9109 54.4848 98.1905 54.4848 98.1905L56.1391 100.055C56.2732 100.211 56.347 100.41 56.347 100.616C56.347 100.822 56.2732 101.021 56.1391 101.178L56.6051 104.519L55.6731 105.157L55.7663 107.487C55.7663 107.487 54.9275 108.046 54.5593 107.86L54.1865 107.674L53.6273 107.114L52.0476 109.347L49.862 110.609L45.7333 103.261Z" fill="#FFBE9D"/>
<path d="M56.1437 101.35C55.9564 101.121 55.7557 100.903 55.5426 100.698C55.3041 100.5 55.0349 100.343 54.7457 100.232C54.3664 100.142 53.9794 100.089 53.59 100.073C52.5637 100.017 51.5432 99.881 50.5377 99.6678C51.5656 99.6386 52.5943 99.6931 53.6133 99.8309C54.0216 99.848 54.4266 99.9121 54.8203 100.022C55.1346 100.152 55.4197 100.344 55.6591 100.586C55.8971 100.783 56.0667 101.051 56.1437 101.35Z" fill="#EB996E"/>
<path d="M56.0504 104.426C55.9555 104.133 55.8403 103.846 55.7055 103.569C55.3272 102.932 54.7465 102.44 54.0559 102.171C53.3543 101.922 52.6147 101.797 51.8704 101.803C51.5595 101.824 51.2473 101.815 50.9384 101.775C51.2385 101.674 51.5539 101.627 51.8704 101.635C52.6436 101.574 53.4208 101.68 54.1491 101.947C54.8885 102.23 55.4987 102.773 55.864 103.476C56.0322 103.762 56.098 104.097 56.0504 104.426Z" fill="#EB996E"/>
<path d="M55.6312 107.296C55.473 107.012 55.3957 106.689 55.4075 106.364C55.3894 106.035 55.3186 105.711 55.1978 105.404C55.1149 105.231 54.9917 105.08 54.8385 104.964C54.6852 104.848 54.5064 104.77 54.317 104.738C53.5843 104.58 52.8416 104.473 52.0942 104.416C51.7725 104.407 51.4557 104.334 51.1622 104.202C51.4736 104.197 51.7849 104.213 52.0942 104.249C52.8592 104.253 53.6215 104.339 54.3683 104.505C54.5948 104.559 54.8085 104.658 54.9974 104.794C55.1709 104.931 55.3058 105.111 55.3889 105.316C55.509 105.647 55.5674 105.998 55.5613 106.35C55.5799 106.942 55.6591 107.282 55.6312 107.296Z" fill="#EB996E"/>
<path d="M57.9564 99.9102L39.5308 118.942L40.2391 119.659L53.4409 118.173L71.2048 101.248L71.1861 100.437L57.9564 99.9102Z" fill="#455A64"/>
<g opacity="0.3">
<path opacity="0.3" d="M59.1494 111.868C58.7922 111.543 58.3711 111.295 57.9129 111.142C57.4547 110.989 56.9696 110.933 56.4885 110.978C55.5232 111.078 54.6097 111.465 53.865 112.087C53.2368 112.548 52.7782 113.203 52.5602 113.951C52.2526 115.27 53.1287 116.649 54.3216 117.288L54.4847 117.097L59.0236 113.452C59.2708 113.296 59.4567 113.059 59.5502 112.781C59.5632 112.608 59.5335 112.434 59.4636 112.275C59.3937 112.115 59.2858 111.976 59.1494 111.868Z" fill="black"/>
</g>
<path d="M57.2062 110.088C57.2062 110.088 58.991 110.125 59.5735 110.414C60.156 110.703 61.759 112.413 61.759 112.413C61.759 112.413 61.759 113.574 61.293 113.62C61.3478 113.879 61.379 114.143 61.3862 114.408C61.4328 115.06 61.526 115.433 60.6406 115.987C60.6406 115.987 60.7338 117.059 60.4076 117.334C60.1881 117.521 59.9561 117.692 59.7133 117.847C59.7133 117.847 58.6928 119.1 58.087 119.007C57.4812 118.914 56.6097 119.66 56.6097 119.66C56.6097 119.66 53.3477 118.299 53.6739 117.912L54.811 116.654C54.811 116.654 52.5602 115.014 52.6068 114.501C52.6534 113.988 52.8398 113.946 52.8398 113.946C52.8398 113.946 52.7466 112.968 53.5341 112.875C53.5341 112.875 54.1399 111.668 54.7411 111.621C55.3422 111.574 59.4337 113.061 59.4337 113.061L57.9006 111.761C57.9006 111.761 56.3674 111.528 56.414 111.02C56.4606 110.512 57.2062 110.088 57.2062 110.088Z" fill="#FFBE9D"/>
<path d="M56.9312 116.211C56.8939 116.267 55.9992 115.745 54.8622 115.204C54.1518 114.908 53.458 114.573 52.7838 114.202C53.5477 114.346 54.2838 114.61 54.9647 114.985C55.6828 115.283 56.3472 115.697 56.9312 116.211Z" fill="#EB996E"/>
<path d="M59.0608 114.785C58.1485 114.577 57.2565 114.289 56.3952 113.923C55.504 113.635 54.6401 113.269 53.8136 112.828C54.7252 113.045 55.6168 113.338 56.4791 113.704C57.3685 113.991 58.2321 114.353 59.0608 114.785Z" fill="#EB996E"/>
<path d="M71.1349 101.215C71.0543 101.222 70.9732 101.222 70.8926 101.215H70.1889L67.5467 101.182L58.3618 101.005L58.4457 100.973L53.8277 105.782C50.0997 109.626 46.7212 113.098 44.256 115.638L41.3342 118.602L40.542 119.394C40.4512 119.49 40.3531 119.579 40.2484 119.659C40.3273 119.552 40.4146 119.45 40.5094 119.356L41.2783 118.527L44.1442 115.507L53.6646 105.605L58.2919 100.828L58.3246 100.791H58.3758L67.5607 101.057L70.1982 101.155L70.9019 101.187C70.9805 101.186 71.0589 101.195 71.1349 101.215Z" fill="#263238"/>
<path d="M48.5571 63.3157C47.9756 62.6564 47.167 62.2404 46.2924 62.1507C45.8046 62.0202 45.2869 62.0597 44.8245 62.2626C44.5528 62.4466 44.3381 62.703 44.2046 63.0028C44.0712 63.3026 44.0244 63.6338 44.0696 63.9588C44.1707 64.6032 44.3605 65.2304 44.6334 65.8228C44.9072 66.4216 44.9995 67.0874 44.899 67.7381L46.572 71.7224C46.8594 71.6143 47.1197 71.4449 47.3349 71.2258C47.5501 71.0068 47.7149 70.7434 47.8178 70.4542C47.9207 70.1649 47.9593 69.8567 47.9309 69.5509C47.9024 69.2452 47.8076 68.9494 47.6531 68.6841C47.918 68.5405 48.1479 68.34 48.3261 68.097C48.5044 67.8541 48.6267 67.5747 48.6841 67.2789C48.7416 66.9831 48.7329 66.6782 48.6585 66.3862C48.5842 66.0941 48.4461 65.8222 48.2542 65.5898C49.0185 65.1798 49.0791 64.0101 48.5571 63.3157Z" fill="#263238"/>
<path d="M33.1234 73.7161L32.9277 65.6637L27.8296 65.4307C27.5188 65.509 27.2364 65.6737 27.015 65.9056C26.7937 66.1375 26.6424 66.4272 26.5786 66.7414C26.5148 67.0556 26.5411 67.3814 26.6544 67.6813C26.7677 67.9812 26.9635 68.2429 27.2192 68.4364C26.826 68.6135 26.497 68.9076 26.2771 69.2786C26.0571 69.6495 25.9568 70.0792 25.99 70.5092C26.0231 70.9392 26.1879 71.3485 26.4621 71.6814C26.7363 72.0143 27.1064 72.2545 27.5221 72.3694C27.2883 72.6592 27.1357 73.006 27.08 73.3742C27.0242 73.7424 27.0673 74.1187 27.2047 74.4648C27.3422 74.8109 27.5692 75.1142 27.8624 75.3437C28.1556 75.5733 28.5045 75.7208 28.8735 75.7712C28.8735 76.7032 29.4047 77.747 30.3181 78.008C31.2314 78.269 32.3032 77.5746 32.732 76.6706C33.1607 75.7665 33.1467 74.718 33.1234 73.7161Z" fill="#263238"/>
<path d="M27.6897 64.5407C27.6897 64.5407 28.193 71.2045 28.8454 73.2363C29.3774 74.7189 30.0779 76.1354 30.9331 77.4582L46.4788 72.6305C47.0054 69.033 47.5506 65.4168 47.3269 62.5835L42.3687 60.8174L27.6897 64.5407Z" fill="#263238"/>
<path d="M30.9797 73.2366C30.3205 71.4545 29.8138 69.6197 29.4652 67.7518C29.1206 65.8766 29.2487 63.9451 29.838 62.1319C29.9312 61.8569 30.77 60.0349 31.0496 60.0628C31.2547 60.0628 30.7514 61.773 30.8586 61.9501C31.8158 63.6796 32.2268 65.6584 32.0376 67.626C31.8913 69.5232 31.5365 71.3985 30.9797 73.218" fill="#263238"/>
<path d="M41.7723 85.7109V81.2C41.7723 81.2 46.3671 80.6688 46.6001 76.1066C46.7166 73.9025 46.6001 69.345 46.409 65.2255C46.3204 63.0883 45.4301 61.0629 43.9154 59.5526C42.4008 58.0422 40.3728 57.1577 38.2354 57.0752H37.7973C33.0395 57.1637 30.4578 61.2692 30.6815 66.0131V81.4656L40.0761 88.232L41.7723 85.7109Z" fill="#FFBE9D"/>
<path d="M41.7815 81.2002C39.6752 81.1149 37.6375 80.4276 35.9099 79.2197C35.9099 79.2197 37.2287 82.5982 41.8002 82.3652L41.7815 81.2002Z" fill="#EB996E"/>
<path d="M44.9271 69.1265C44.9222 69.2971 44.8507 69.459 44.7279 69.5775C44.6051 69.696 44.4407 69.7616 44.2701 69.7603C44.1871 69.7641 44.1043 69.7511 44.0264 69.7222C43.9486 69.6934 43.8774 69.6491 43.817 69.5922C43.7565 69.5353 43.7082 69.4668 43.6747 69.3908C43.6413 69.3148 43.6235 69.2329 43.6223 69.1498C43.6235 68.9784 43.6922 68.8144 43.8134 68.6932C43.9346 68.572 44.0986 68.5033 44.2701 68.5021C44.3549 68.497 44.4399 68.5094 44.5198 68.5385C44.5997 68.5677 44.6727 68.6129 44.7343 68.6715C44.7959 68.7301 44.8449 68.8007 44.878 68.879C44.9112 68.9573 44.9279 69.0415 44.9271 69.1265Z" fill="#263238"/>
<path d="M45.3697 67.1035C45.2858 67.1827 44.8058 66.8006 44.1022 66.7727C43.3985 66.7447 42.8719 67.0802 42.802 66.9917C42.7321 66.9031 42.8533 66.8006 43.0863 66.6468C43.3967 66.4474 43.7616 66.3497 44.1301 66.3672C44.4948 66.3799 44.8459 66.5089 45.132 66.7354C45.3417 66.8845 45.4116 67.0429 45.3697 67.1035Z" fill="#263238"/>
<path d="M38.6406 69.2386C38.6358 69.4084 38.5649 69.5696 38.4431 69.6879C38.3212 69.8063 38.1581 69.8724 37.9882 69.8724C37.9048 69.8755 37.8216 69.862 37.7435 69.8326C37.6654 69.8033 37.5939 69.7587 37.5332 69.7014C37.4725 69.6442 37.4238 69.5754 37.3899 69.4992C37.356 69.4229 37.3376 69.3407 37.3358 69.2572C37.3419 69.0871 37.4137 68.9259 37.5363 68.8076C37.6589 68.6894 37.8226 68.6234 37.9929 68.6235C38.076 68.6204 38.159 68.6339 38.2368 68.6633C38.3147 68.6927 38.3859 68.7374 38.4462 68.7947C38.5066 68.852 38.5549 68.9208 38.5882 68.997C38.6216 69.0733 38.6394 69.1554 38.6406 69.2386Z" fill="#263238"/>
<path d="M38.4869 67.1042C38.4031 67.1881 37.9231 66.8013 37.2194 66.778C36.5158 66.7547 35.9938 67.0809 35.9193 66.9924C35.8447 66.9039 35.9705 66.8013 36.2035 66.6476C36.5145 66.4493 36.879 66.3517 37.2474 66.368C37.6131 66.3828 37.965 66.5115 38.2539 66.7361C38.459 66.9039 38.5289 67.0576 38.4869 67.1042Z" fill="#263238"/>
<path d="M40.7936 72.5839C41.1672 72.4806 41.5525 72.4258 41.94 72.4208C42.1171 72.4208 42.2895 72.3835 42.3268 72.2623C42.3468 72.0775 42.3111 71.8908 42.2243 71.7264C42.0751 71.2853 41.9198 70.8193 41.7583 70.3284C41.1012 68.3573 40.6305 66.7402 40.7098 66.7123C40.789 66.6843 41.3901 68.2641 42.0472 70.2352C42.2056 70.7012 42.3594 71.1672 42.5132 71.6332C42.6172 71.8543 42.6419 72.1044 42.5831 72.3416C42.5535 72.4036 42.5106 72.4583 42.4575 72.5018C42.4043 72.5453 42.3422 72.5765 42.2755 72.5932C42.1746 72.6154 42.0712 72.6247 41.9679 72.6212C41.5764 72.6564 41.1821 72.6439 40.7936 72.5839Z" fill="#263238"/>
<path d="M38.7107 72.9896C38.8225 72.9896 38.7945 73.7492 39.4236 74.313C40.0527 74.8769 40.8682 74.8256 40.8729 74.9328C40.8776 75.04 40.6865 75.0726 40.3417 75.068C39.8966 75.0617 39.4685 74.8964 39.1347 74.602C38.8131 74.3181 38.6142 73.9205 38.5802 73.4929C38.5662 73.162 38.678 72.9803 38.7107 72.9896Z" fill="#263238"/>
<path d="M38.8085 64.6853C38.7339 64.8717 38.0349 64.7552 37.2101 64.8205C36.3853 64.8857 35.7096 65.0861 35.607 64.9137C35.5604 64.8298 35.6816 64.6527 35.9565 64.4803C36.3224 64.2638 36.7345 64.1376 37.1588 64.1122C37.5818 64.0758 38.0072 64.143 38.3984 64.3079C38.678 64.4384 38.8411 64.5968 38.8085 64.6853Z" fill="#263238"/>
<path d="M45.1694 64.7371C45.0389 64.8909 44.5636 64.7092 43.9811 64.6765C43.3986 64.6439 42.9046 64.7418 42.7975 64.5694C42.7509 64.4901 42.8347 64.3317 43.0584 64.1919C43.3513 64.0164 43.6922 63.9381 44.0324 63.9682C44.3719 63.9882 44.6972 64.1118 44.9644 64.3224C45.1647 64.4948 45.2253 64.6626 45.1694 64.7371Z" fill="#263238"/>
<path d="M30.9285 69.3918C30.8539 69.3545 27.8296 68.3386 27.8063 71.4655C27.783 74.5923 30.9238 73.9679 30.9331 73.8794C30.9425 73.7908 30.9285 69.3918 30.9285 69.3918Z" fill="#FFBE9D"/>
<path d="M29.9872 72.6962C29.9872 72.6962 29.9312 72.7335 29.838 72.7755C29.7739 72.8028 29.705 72.8168 29.6353 72.8168C29.5657 72.8168 29.4967 72.8028 29.4326 72.7755C29.2308 72.6472 29.0673 72.4671 28.9591 72.2539C28.8508 72.0408 28.8019 71.8024 28.8175 71.5639C28.8121 71.2959 28.8663 71.0301 28.9759 70.7856C29.0061 70.6887 29.0591 70.6005 29.1304 70.5283C29.2018 70.4561 29.2894 70.4021 29.386 70.3709C29.4491 70.3551 29.5158 70.3618 29.5745 70.3899C29.6332 70.418 29.6802 70.4656 29.7076 70.5247C29.7495 70.6086 29.7076 70.6738 29.7448 70.6785C29.7821 70.6831 29.8147 70.6272 29.7868 70.4967C29.7715 70.4189 29.7284 70.3493 29.6656 70.301C29.5806 70.236 29.4739 70.206 29.3674 70.2171C29.2404 70.2404 29.1213 70.2953 29.0212 70.3768C28.921 70.4582 28.8429 70.5636 28.7942 70.6831C28.6593 70.9534 28.5921 71.2525 28.5985 71.5545C28.5823 71.8329 28.6483 72.1099 28.7883 72.351C28.9283 72.5921 29.1362 72.7867 29.386 72.9106C29.4699 72.934 29.5579 72.9391 29.644 72.9254C29.73 72.9117 29.8121 72.8797 29.8846 72.8314C29.9778 72.7615 29.9965 72.6962 29.9872 72.6962Z" fill="#EB996E"/>
<path d="M44.3866 60.0536C44.8945 59.774 43.3753 58.1383 42.1311 57.5744C40.2671 56.7263 37.3826 56.2044 35.6491 56.6984C33.566 57.2948 31.8372 58.334 30.7933 60.2353C29.7872 62.1688 29.3143 64.3354 29.4233 66.5123C29.4057 67.1778 29.5666 67.836 29.8893 68.4183C30.3273 69.1079 31.1661 69.5413 31.1289 70.4966C31.1133 70.8377 31.2302 71.1717 31.4551 71.4286C32.0282 72.0391 32.7272 71.4659 33.0488 70.8927C33.7338 69.6671 33.8084 68.2039 33.8643 66.8012C33.9593 65.8075 33.8916 64.8048 33.6639 63.8328C33.5101 63.3109 33.2631 62.8216 33.1373 62.2904C33.0601 62.0296 33.0396 61.7554 33.0774 61.486C33.1152 61.2167 33.2103 60.9587 33.3563 60.7293C33.4345 60.6369 33.5203 60.5512 33.6126 60.473C34.0468 60.101 34.5711 59.8497 35.1329 59.7442C35.6948 59.6387 36.2746 59.6827 36.8141 59.8718C38.5755 60.4916 41.5812 61.4143 42.3641 60.8038C42.9212 60.4387 43.397 59.9629 43.7621 59.4058L44.3866 60.0536Z" fill="#263238"/>
<path d="M35.5511 53.4688C35.3321 53.4921 29.9871 54.5126 28.5239 58.4224C27.0606 62.3321 27.4148 63.5484 27.4148 63.5484C27.2032 63.6746 27.0116 63.8316 26.8463 64.0144C26.6179 64.266 26.8975 65.5195 27.5919 65.4124C32.853 63.2921 38.9949 63.2688 45.8218 63.7068L51.055 63.8187C52.5135 64.0377 53.0448 63.6649 52.453 63.2781C51.987 62.9798 47.8862 61.1718 47.8862 61.1718L47.066 60.538L45.0063 57.4717C45.0063 57.4717 45.2859 57.0617 44.7686 56.6982C44.2514 56.3347 39.8989 53.0121 35.5511 53.4688Z" fill="#008C96"/>
<path d="M47.066 60.5385C46.9977 60.5426 46.9293 60.5426 46.861 60.5385L46.2785 60.5058C45.7705 60.4686 45.0389 60.4499 44.1302 60.4406C41.77 60.4384 39.4141 60.6411 37.089 61.0464C34.7634 61.4675 32.4638 62.0214 30.2015 62.7054C29.3301 62.957 28.6311 63.1713 28.1464 63.3298L27.5872 63.4976L27.3868 63.5535L27.5779 63.4836L28.1324 63.2972C28.5984 63.1387 29.3161 62.9057 30.1828 62.6448C32.4438 61.9441 34.7455 61.3823 37.075 60.9625C39.4064 60.5445 41.771 60.3402 44.1395 60.352C45.9569 60.3986 47.066 60.5385 47.066 60.5385Z" fill="#263238"/>
<g opacity="0.3">
<path opacity="0.3" d="M30.6302 55.6359C30.6302 55.6359 36.376 54.9043 38.8971 56.2231L38.6035 56.0646L41.0081 57.2063C41.193 57.3317 41.4036 57.4143 41.6244 57.4481C41.8453 57.482 42.0709 57.4663 42.2849 57.4021C41.2189 56.4851 39.9909 55.7754 38.6641 55.3097C36.2828 54.4197 32.4942 53.9443 30.6302 55.6359Z" fill="black"/>
</g>
<path d="M30.5463 55.6632C30.7111 55.5433 30.8857 55.4373 31.0682 55.3463C31.561 55.0832 32.0835 54.8798 32.6246 54.7406C33.4275 54.5328 34.2564 54.4434 35.0851 54.4749C36.1059 54.4866 37.1121 54.7187 38.0349 55.1553C38.5048 55.3903 38.9593 55.6549 39.3956 55.9475C39.815 56.2271 40.2344 56.4787 40.6119 56.7583C40.9541 57.033 41.3171 57.2807 41.6976 57.4993C42.0404 57.6662 42.4162 57.7538 42.7974 57.7556C44.1954 57.8255 45.0715 57.5599 45.0156 57.4713C44.989 57.5184 44.9482 57.556 44.8991 57.5785C44.7582 57.6377 44.6113 57.6815 44.461 57.709C43.9106 57.8068 43.3512 57.8443 42.7927 57.8208C42.4022 57.8227 42.0164 57.7351 41.665 57.5645C41.2789 57.3479 40.9111 57.1001 40.5653 56.8236C40.1925 56.5486 39.7684 56.297 39.349 56.0174C38.9145 55.7298 38.4632 55.4684 37.9976 55.2345C37.0866 54.802 36.0934 54.57 35.0851 54.5542C34.262 54.5193 33.4381 54.6025 32.6386 54.8011C32.1007 54.9356 31.5788 55.1278 31.0822 55.3743C30.9051 55.4629 30.7746 55.5374 30.6861 55.5887L30.5463 55.6632Z" fill="#263238"/>
<g opacity="0.3">
<path opacity="0.3" d="M27.96 60.053C28.9181 60.0273 29.8702 59.8928 30.798 59.6523C31.8884 59.4519 32.9695 59.3028 34.06 59.0511C34.8801 58.8601 35.8494 58.6923 36.39 58.1191C36.4229 58.3214 36.4033 58.5288 36.3331 58.7213C36.2629 58.9139 36.1445 59.0852 35.9892 59.2189C35.4452 59.5506 34.85 59.7899 34.2277 59.9272C32.0971 60.508 29.9095 60.8548 27.7037 60.9617C27.7679 60.6451 27.8552 60.3336 27.9647 60.0297" fill="black"/>
</g>
<path d="M28.7057 57.9941C28.0486 58.2551 27.6432 58.4322 27.6059 58.982C27.5733 59.448 27.6479 60.0119 28.0999 60.1051C28.2387 60.1283 28.3805 60.1283 28.5193 60.1051L35.6398 58.9168C35.886 58.9029 36.1199 58.8041 36.3015 58.6372C36.4021 58.4792 36.4364 58.288 36.3972 58.1049C36.358 57.9218 36.2483 57.7615 36.0918 57.6586C35.7676 57.4633 35.3936 57.3661 35.0153 57.379C32.8934 57.304 30.771 57.5156 28.7057 58.0081" fill="#008C96"/>
<path d="M36.1895 58.7164C36.2823 58.6353 36.3515 58.5306 36.3899 58.4135C36.4352 58.2534 36.4347 58.0839 36.3886 57.9241C36.3425 57.7643 36.2525 57.6207 36.1289 57.5094C35.717 57.2347 35.2245 57.1066 34.7309 57.1459C34.1624 57.1459 33.5379 57.1739 32.8669 57.2158C31.7478 57.2727 30.6359 57.4286 29.5443 57.6818C29.1296 57.7797 28.7941 57.8869 28.5657 57.9568L28.3001 58.0407L28.2069 58.0686C28.2069 58.0686 28.2349 58.0686 28.2955 58.0267L28.5564 57.9242C28.8754 57.8058 29.2005 57.7047 29.5303 57.6213C30.6218 57.3445 31.7378 57.1759 32.8622 57.118C33.5193 57.076 34.1484 57.0621 34.7262 57.0574C35.2421 57.0177 35.7558 57.1576 36.1802 57.4535C36.3083 57.5736 36.3999 57.7274 36.4444 57.8972C36.4889 58.067 36.4845 58.246 36.4318 58.4135C36.3991 58.5033 36.3466 58.5845 36.278 58.6511L36.1895 58.7164Z" fill="#263238"/>
<path d="M45.6587 58.4318L41.213 58.1895L41.5439 59.457L46.3903 59.5176L45.6587 58.4318Z" fill="white"/>
<path d="M38.7946 62.155C38.7946 62.155 40.7844 61.9174 43.2449 61.689C45.7053 61.4607 47.7091 61.2696 47.7091 61.2929C47.7091 61.3162 45.7193 61.5306 43.2542 61.7589C40.789 61.9873 38.7946 62.1783 38.7946 62.155Z" fill="#263238"/>
<path d="M53.6552 125.037H19.4182V130.755H53.6552V125.037Z" fill="#455A64"/>
<path d="M20.4667 127.801H36.3107V143.868C36.3107 144.724 35.9709 145.544 35.3662 146.149C34.7614 146.753 33.9412 147.093 33.086 147.093H23.6914C23.2679 147.093 22.8486 147.01 22.4573 146.848C22.0661 146.686 21.7106 146.448 21.4112 146.149C21.1117 145.849 20.8742 145.494 20.7121 145.103C20.5501 144.711 20.4667 144.292 20.4667 143.868V127.801Z" fill="#455A64"/>
<path d="M36.3201 133.025C36.2743 132.696 36.2525 132.364 36.2549 132.032C36.2423 131.135 36.125 130.242 35.9054 129.371C35.8288 129.097 35.6882 128.845 35.4953 128.635C35.2683 128.415 35.0183 128.219 34.7497 128.052C34.1431 127.698 33.4649 127.483 32.7646 127.423C31.2734 127.311 29.6004 127.363 27.8576 127.377C26.1147 127.391 24.4325 127.237 22.9739 127.558C22.2826 127.662 21.6443 127.99 21.1565 128.49C20.8036 128.986 20.6028 129.574 20.5787 130.182C20.4715 131.314 20.4948 132.242 20.4761 132.88C20.4761 133.178 20.4761 133.421 20.4761 133.616C20.483 133.702 20.483 133.787 20.4761 133.873C20.455 133.789 20.4456 133.703 20.4482 133.616C20.4482 133.421 20.4482 133.178 20.4249 132.88C20.4249 132.242 20.369 131.319 20.4528 130.168C20.4708 129.522 20.6765 128.896 21.0447 128.365C21.5578 127.823 22.2365 127.467 22.9739 127.353C23.7587 127.194 24.5593 127.125 25.3598 127.148C26.18 127.148 27.0328 127.148 27.9042 127.148C29.6517 127.148 31.306 127.088 32.8345 127.214C33.5649 127.283 34.2704 127.515 34.8988 127.894C35.179 128.073 35.4385 128.282 35.6724 128.518C35.8935 128.747 36.0537 129.027 36.1384 129.334C36.349 130.22 36.443 131.131 36.418 132.041C36.418 132.34 36.418 132.582 36.418 132.778C36.3929 132.863 36.3601 132.945 36.3201 133.025Z" fill="#263238"/>
<path d="M36.2036 134.716C36.2036 134.786 32.7179 134.837 28.4167 134.837C24.1156 134.837 20.6299 134.786 20.6299 134.716C20.6299 134.646 24.1156 134.595 28.4167 134.595C32.7179 134.595 36.2036 134.674 36.2036 134.716Z" fill="#263238"/>
<path d="M25.0056 147.256C24.9357 147.256 24.8844 144.437 24.8844 140.96C24.8844 137.484 24.9357 134.66 25.0056 134.66C25.0755 134.66 25.1267 137.479 25.1267 140.96C25.1267 144.441 25.0708 147.256 25.0056 147.256Z" fill="#263238"/>
<path d="M32.154 147.214C32.0888 147.214 32.0328 144.418 32.0328 140.979C32.0328 137.54 32.0888 134.739 32.154 134.739C32.2192 134.739 32.2752 137.535 32.2752 140.979C32.2752 144.423 32.2192 147.214 32.154 147.214Z" fill="#263238"/>
<path d="M53.6553 125.037L55.6311 127.8C55.6311 127.8 57.3973 144.269 56.6097 145.042C55.8222 145.816 53.1753 145.797 53.1753 145.797L52.453 126.081L53.6553 125.037Z" fill="#455A64"/>
<path d="M47.4528 130.526C47.1423 128.69 47.1172 126.816 47.3783 124.972C47.4503 125.902 47.4721 126.835 47.4435 127.768C47.4961 128.686 47.4992 129.607 47.4528 130.526Z" fill="#263238"/>
<path d="M53.6925 125.13C53.8071 125.429 53.8777 125.743 53.9022 126.062C53.9954 126.64 54.0886 127.46 54.1399 128.341C54.1797 128.767 54.1624 129.196 54.0886 129.617C54.0215 129.98 53.8324 130.309 53.5527 130.549C53.3671 130.712 53.1325 130.807 52.8863 130.82C52.7092 130.82 52.6254 130.778 52.6254 130.768C52.9273 130.747 53.2131 130.624 53.4362 130.419C53.6685 130.194 53.8208 129.9 53.8696 129.58C53.9265 129.174 53.9359 128.763 53.8975 128.355C53.8043 126.57 53.6226 125.139 53.6925 125.13Z" fill="#263238"/>
<path d="M210.87 127.731L213.051 125.671C215.412 126.026 217.82 125.485 219.802 124.155C221.785 122.824 223.198 120.801 223.765 118.482C224.332 116.163 224.011 113.715 222.865 111.62C221.72 109.526 219.833 107.935 217.574 107.161C215.316 106.386 212.85 106.484 210.66 107.436C208.47 108.387 206.715 110.123 205.74 112.302C204.764 114.481 204.639 116.946 205.388 119.213C206.137 121.48 207.707 123.384 209.789 124.553L210.87 127.731Z" fill="white"/>
<path d="M210.87 127.731L210.8 127.517C210.753 127.377 210.688 127.172 210.604 126.906C210.427 126.366 210.166 125.573 209.83 124.539L209.793 124.576C209.798 124.581 209.805 124.583 209.812 124.583C209.819 124.583 209.825 124.581 209.83 124.576C209.834 124.571 209.836 124.566 209.836 124.56C209.836 124.554 209.834 124.548 209.83 124.543C208.443 123.757 207.275 122.636 206.433 121.281C206.172 120.864 205.945 120.426 205.753 119.972C205.562 119.484 205.406 118.982 205.287 118.472C204.699 116.074 205.067 113.542 206.313 111.412C207.56 109.282 209.587 107.72 211.965 107.059C214.343 106.397 216.885 106.687 219.053 107.868C221.22 109.048 222.843 111.026 223.577 113.383C224.001 114.706 224.124 116.107 223.936 117.484C223.615 119.934 222.353 122.163 220.418 123.7L220.092 123.947C219.99 124.033 219.881 124.109 219.766 124.175L219.099 124.59C218.659 124.818 218.206 125.022 217.743 125.201C216.253 125.741 214.651 125.902 213.083 125.667H213.06C212.361 126.338 211.82 126.85 211.457 127.204L211.037 127.605L210.898 127.745L211.037 127.619L211.452 127.232L213.097 125.708H213.074C214.653 125.96 216.271 125.808 217.776 125.266C218.244 125.092 218.7 124.888 219.141 124.655L219.817 124.245C219.935 124.179 220.047 124.103 220.152 124.017L220.479 123.765C222.01 122.557 223.138 120.911 223.714 119.047C224.29 117.184 224.286 115.189 223.703 113.327C223.245 111.903 222.467 110.602 221.429 109.524C220.336 108.398 218.984 107.557 217.491 107.073C217.308 107.005 217.119 106.95 216.928 106.91L216.364 106.775L215.795 106.691C215.606 106.655 215.414 106.634 215.222 106.63L214.654 106.602C214.463 106.591 214.271 106.591 214.08 106.602C213.894 106.602 213.703 106.602 213.517 106.635L212.962 106.719C211.513 106.952 210.138 107.518 208.945 108.373C207.379 109.486 206.183 111.044 205.513 112.844C204.843 114.645 204.73 116.606 205.189 118.472C205.316 118.988 205.482 119.494 205.683 119.986C205.879 120.442 206.11 120.883 206.373 121.305C207.23 122.664 208.416 123.786 209.821 124.567V124.511C209.813 124.509 209.805 124.511 209.798 124.515C209.791 124.52 209.786 124.526 209.784 124.534L210.599 126.911L210.804 127.512C210.842 127.684 210.87 127.731 210.87 127.731Z" fill="#263238"/>
<path d="M209.514 116.057L210.954 114.766L213.461 117.245L218.009 113.005L219.202 114.436L213.125 119.869L209.514 116.057Z" fill="#263238"/>
<path d="M105.148 151.604C105.148 151.332 105.211 151.088 105.336 150.872C105.464 150.656 105.636 150.488 105.852 150.368C106.071 150.245 106.309 150.184 106.568 150.184C106.864 150.184 107.127 150.257 107.356 150.404C107.588 150.548 107.756 150.753 107.86 151.02H107.312C107.24 150.873 107.14 150.764 107.012 150.692C106.884 150.62 106.736 150.584 106.568 150.584C106.384 150.584 106.22 150.625 106.076 150.708C105.932 150.791 105.819 150.909 105.736 151.064C105.656 151.219 105.616 151.399 105.616 151.604C105.616 151.809 105.656 151.989 105.736 152.144C105.819 152.299 105.932 152.419 106.076 152.504C106.22 152.587 106.384 152.628 106.568 152.628C106.736 152.628 106.884 152.592 107.012 152.52C107.14 152.448 107.24 152.339 107.312 152.192H107.86C107.756 152.459 107.588 152.664 107.356 152.808C107.127 152.952 106.864 153.024 106.568 153.024C106.307 153.024 106.068 152.964 105.852 152.844C105.636 152.721 105.464 152.552 105.336 152.336C105.211 152.12 105.148 151.876 105.148 151.604ZM109.662 153.028C109.403 153.028 109.164 152.968 108.946 152.848C108.73 152.725 108.558 152.556 108.43 152.34C108.304 152.121 108.242 151.876 108.242 151.604C108.242 151.332 108.304 151.088 108.43 150.872C108.558 150.656 108.73 150.488 108.946 150.368C109.164 150.245 109.403 150.184 109.662 150.184C109.923 150.184 110.162 150.245 110.378 150.368C110.596 150.488 110.768 150.656 110.894 150.872C111.019 151.088 111.082 151.332 111.082 151.604C111.082 151.876 111.019 152.121 110.894 152.34C110.768 152.556 110.596 152.725 110.378 152.848C110.162 152.968 109.923 153.028 109.662 153.028ZM109.662 152.632C109.846 152.632 110.01 152.591 110.154 152.508C110.298 152.423 110.41 152.303 110.49 152.148C110.572 151.991 110.614 151.809 110.614 151.604C110.614 151.399 110.572 151.219 110.49 151.064C110.41 150.909 110.298 150.791 110.154 150.708C110.01 150.625 109.846 150.584 109.662 150.584C109.478 150.584 109.314 150.625 109.17 150.708C109.026 150.791 108.912 150.909 108.83 151.064C108.75 151.219 108.71 151.399 108.71 151.604C108.71 151.809 108.75 151.991 108.83 152.148C108.912 152.303 109.026 152.423 109.17 152.508C109.314 152.591 109.478 152.632 109.662 152.632ZM114.458 150.22V153H114.002V151.096L113.154 153H112.838L111.986 151.096V153H111.53V150.22H112.022L112.998 152.4L113.97 150.22H114.458ZM115.514 150.22V153H115.058V150.22H115.514ZM118.397 153H117.941L116.569 150.924V153H116.113V150.216H116.569L117.941 152.288V150.216H118.397V153ZM121.007 151.02C120.935 150.881 120.835 150.777 120.707 150.708C120.579 150.636 120.431 150.6 120.263 150.6C120.079 150.6 119.915 150.641 119.771 150.724C119.627 150.807 119.514 150.924 119.431 151.076C119.351 151.228 119.311 151.404 119.311 151.604C119.311 151.804 119.351 151.981 119.431 152.136C119.514 152.288 119.627 152.405 119.771 152.488C119.915 152.571 120.079 152.612 120.263 152.612C120.511 152.612 120.713 152.543 120.867 152.404C121.022 152.265 121.117 152.077 121.151 151.84H120.107V151.476H121.639V151.832C121.61 152.048 121.533 152.247 121.407 152.428C121.285 152.609 121.123 152.755 120.923 152.864C120.726 152.971 120.506 153.024 120.263 153.024C120.002 153.024 119.763 152.964 119.547 152.844C119.331 152.721 119.159 152.552 119.031 152.336C118.906 152.12 118.843 151.876 118.843 151.604C118.843 151.332 118.906 151.088 119.031 150.872C119.159 150.656 119.331 150.488 119.547 150.368C119.766 150.245 120.005 150.184 120.263 150.184C120.559 150.184 120.822 150.257 121.051 150.404C121.283 150.548 121.451 150.753 121.555 151.02H121.007ZM124.044 153.028C123.857 153.028 123.689 152.996 123.54 152.932C123.391 152.865 123.273 152.772 123.188 152.652C123.103 152.532 123.06 152.392 123.06 152.232H123.548C123.559 152.352 123.605 152.451 123.688 152.528C123.773 152.605 123.892 152.644 124.044 152.644C124.201 152.644 124.324 152.607 124.412 152.532C124.5 152.455 124.544 152.356 124.544 152.236C124.544 152.143 124.516 152.067 124.46 152.008C124.407 151.949 124.339 151.904 124.256 151.872C124.176 151.84 124.064 151.805 123.92 151.768C123.739 151.72 123.591 151.672 123.476 151.624C123.364 151.573 123.268 151.496 123.188 151.392C123.108 151.288 123.068 151.149 123.068 150.976C123.068 150.816 123.108 150.676 123.188 150.556C123.268 150.436 123.38 150.344 123.524 150.28C123.668 150.216 123.835 150.184 124.024 150.184C124.293 150.184 124.513 150.252 124.684 150.388C124.857 150.521 124.953 150.705 124.972 150.94H124.468C124.46 150.839 124.412 150.752 124.324 150.68C124.236 150.608 124.12 150.572 123.976 150.572C123.845 150.572 123.739 150.605 123.656 150.672C123.573 150.739 123.532 150.835 123.532 150.96C123.532 151.045 123.557 151.116 123.608 151.172C123.661 151.225 123.728 151.268 123.808 151.3C123.888 151.332 123.997 151.367 124.136 151.404C124.32 151.455 124.469 151.505 124.584 151.556C124.701 151.607 124.8 151.685 124.88 151.792C124.963 151.896 125.004 152.036 125.004 152.212C125.004 152.353 124.965 152.487 124.888 152.612C124.813 152.737 124.703 152.839 124.556 152.916C124.412 152.991 124.241 153.028 124.044 153.028ZM126.81 153.028C126.552 153.028 126.313 152.968 126.094 152.848C125.878 152.725 125.706 152.556 125.578 152.34C125.453 152.121 125.39 151.876 125.39 151.604C125.39 151.332 125.453 151.088 125.578 150.872C125.706 150.656 125.878 150.488 126.094 150.368C126.313 150.245 126.552 150.184 126.81 150.184C127.072 150.184 127.31 150.245 127.526 150.368C127.745 150.488 127.917 150.656 128.042 150.872C128.168 151.088 128.23 151.332 128.23 151.604C128.23 151.876 128.168 152.121 128.042 152.34C127.917 152.556 127.745 152.725 127.526 152.848C127.31 152.968 127.072 153.028 126.81 153.028ZM126.81 152.632C126.994 152.632 127.158 152.591 127.302 152.508C127.446 152.423 127.558 152.303 127.638 152.148C127.721 151.991 127.762 151.809 127.762 151.604C127.762 151.399 127.721 151.219 127.638 151.064C127.558 150.909 127.446 150.791 127.302 150.708C127.158 150.625 126.994 150.584 126.81 150.584C126.626 150.584 126.462 150.625 126.318 150.708C126.174 150.791 126.061 150.909 125.978 151.064C125.898 151.219 125.858 151.399 125.858 151.604C125.858 151.809 125.898 151.991 125.978 152.148C126.061 152.303 126.174 152.423 126.318 152.508C126.462 152.591 126.626 152.632 126.81 152.632ZM129.947 153.028C129.688 153.028 129.45 152.968 129.231 152.848C129.015 152.725 128.843 152.556 128.715 152.34C128.59 152.121 128.527 151.876 128.527 151.604C128.527 151.332 128.59 151.088 128.715 150.872C128.843 150.656 129.015 150.488 129.231 150.368C129.45 150.245 129.688 150.184 129.947 150.184C130.208 150.184 130.447 150.245 130.663 150.368C130.882 150.488 131.054 150.656 131.179 150.872C131.304 151.088 131.367 151.332 131.367 151.604C131.367 151.876 131.304 152.121 131.179 152.34C131.054 152.556 130.882 152.725 130.663 152.848C130.447 152.968 130.208 153.028 129.947 153.028ZM129.947 152.632C130.131 152.632 130.295 152.591 130.439 152.508C130.583 152.423 130.695 152.303 130.775 152.148C130.858 151.991 130.899 151.809 130.899 151.604C130.899 151.399 130.858 151.219 130.775 151.064C130.695 150.909 130.583 150.791 130.439 150.708C130.295 150.625 130.131 150.584 129.947 150.584C129.763 150.584 129.599 150.625 129.455 150.708C129.311 150.791 129.198 150.909 129.115 151.064C129.035 151.219 128.995 151.399 128.995 151.604C128.995 151.809 129.035 151.991 129.115 152.148C129.198 152.303 129.311 152.423 129.455 152.508C129.599 152.591 129.763 152.632 129.947 152.632ZM134.1 153H133.644L132.272 150.924V153H131.816V150.216H132.272L133.644 152.288V150.216H134.1V153Z" fill="black"/>
</svg>
