<svg width="273" height="180" viewBox="0 0 273 180" fill="none" xmlns="http://www.w3.org/2000/svg">
<path d="M256.286 168.998C256.286 169.049 202.716 169.092 136.65 169.092C70.5844 169.092 17 169.049 17 168.998C17 168.948 70.559 168.905 136.65 168.905C202.742 168.905 256.286 168.944 256.286 168.998Z" fill="#263238"/>
<path d="M207.781 33.17H120.498C119.368 33.17 118.285 33.5994 117.486 34.3636C116.687 35.1279 116.238 36.1645 116.238 37.2454V135.319C116.238 136.4 116.687 137.437 117.486 138.201C118.285 138.965 119.368 139.395 120.498 139.395H122.526C123.171 139.394 123.808 139.535 124.388 139.805C124.968 140.075 125.476 140.467 125.874 140.953C127.006 142.332 128.317 143.977 129.555 145.473C129.957 145.967 130.472 146.366 131.06 146.639C131.649 146.912 132.296 147.051 132.95 147.046C133.604 147.04 134.248 146.891 134.832 146.609C135.416 146.326 135.923 145.919 136.316 145.418L139.786 141.015C140.183 140.511 140.698 140.103 141.288 139.821C141.879 139.54 142.53 139.394 143.19 139.395H207.797C208.924 139.391 210.003 138.959 210.798 138.196C211.594 137.432 212.04 136.397 212.04 135.319V37.2454C212.04 36.1645 211.592 35.1279 210.793 34.3636C209.994 33.5994 208.91 33.17 207.781 33.17Z" fill="white"/>
<path d="M212.04 65.3132H116.238V122.033H212.04V65.3132Z" fill="#EBEBEB"/>
<path d="M116.238 122.073L141.488 93.2877C143.067 91.6112 145.252 90.5697 147.603 90.3731C149.953 90.1764 152.294 90.8393 154.153 92.228L157.908 95.1111C158.72 95.7181 159.747 95.999 160.772 95.8943C161.797 95.7896 162.738 95.3075 163.398 94.5501L173.84 81.4902C177.497 76.9395 185.512 77.3213 188.55 82.1993C197.705 96.9501 212.04 122.073 212.04 122.073H116.238Z" fill="#E0E0E0"/>
<path d="M180.632 50.804H154.152C153.72 50.804 153.306 50.6398 153 50.3475C152.695 50.0552 152.523 49.6588 152.523 49.2455C152.523 48.8322 152.695 48.4358 153 48.1435C153.306 47.8512 153.72 47.687 154.152 47.687H180.632C181.064 47.687 181.478 47.8512 181.783 48.1435C182.089 48.4358 182.261 48.8322 182.261 49.2455C182.261 49.6588 182.089 50.0552 181.783 50.3475C181.478 50.6398 181.064 50.804 180.632 50.804Z" fill="#E0E0E0"/>
<path d="M201.443 44.796C201.456 45.0557 201.387 45.3132 201.246 45.5352C201.105 45.7572 200.897 45.9337 200.65 46.0418C200.403 46.1499 200.128 46.1848 199.86 46.1418C199.592 46.0989 199.343 45.9801 199.146 45.8008C198.95 45.6216 198.813 45.39 198.755 45.1361C198.697 44.8821 198.72 44.6173 198.821 44.3759C198.922 44.1344 199.096 43.9274 199.321 43.7815C199.546 43.6355 199.811 43.5574 200.083 43.5571C200.257 43.5519 200.431 43.5799 200.595 43.6396C200.758 43.6992 200.907 43.7893 201.034 43.9046C201.16 44.0198 201.261 44.158 201.332 44.311C201.402 44.4641 201.44 44.6289 201.443 44.796V44.796Z" fill="#E0E0E0"/>
<path d="M201.443 48.3728C201.457 48.6327 201.39 48.8908 201.25 49.1138C201.11 49.3368 200.903 49.5145 200.656 49.6238C200.409 49.7332 200.133 49.7691 199.865 49.7271C199.596 49.6851 199.347 49.5671 199.15 49.3882C198.952 49.2093 198.815 48.9778 198.756 48.7237C198.697 48.4695 198.72 48.2044 198.82 47.9625C198.921 47.7206 199.095 47.513 199.32 47.3667C199.545 47.2204 199.81 47.142 200.082 47.1416C200.433 47.1332 200.773 47.258 201.028 47.4887C201.283 47.7194 201.432 48.0372 201.443 48.3728Z" fill="#E0E0E0"/>
<path d="M201.443 51.9415C201.457 52.2014 201.39 52.4596 201.25 52.6826C201.11 52.9056 200.903 53.0833 200.656 53.1926C200.409 53.3019 200.133 53.3379 199.865 53.2959C199.596 53.2539 199.347 53.1358 199.15 52.9569C198.952 52.778 198.815 52.5466 198.756 52.2924C198.697 52.0383 198.72 51.7731 198.82 51.5312C198.921 51.2893 199.095 51.0818 199.32 50.9355C199.545 50.7891 199.81 50.7107 200.082 50.7103C200.256 50.7051 200.43 50.7329 200.592 50.7921C200.755 50.8513 200.904 50.9406 201.03 51.0551C201.157 51.1695 201.258 51.3068 201.329 51.4589C201.4 51.611 201.438 51.7751 201.443 51.9415V51.9415Z" fill="#E0E0E0"/>
<path d="M141.551 58.7775C146.883 55.2663 148.231 48.2845 144.56 43.1833C140.89 38.0821 133.592 36.7931 128.26 40.3043C122.928 43.8156 121.581 50.7973 125.251 55.8986C128.921 60.9998 136.219 62.2888 141.551 58.7775Z" fill="#EBEBEB"/>
<path d="M140.346 54.8872C140.175 54.7859 137.903 54.3261 137.903 54.3261L132.405 54.4664L130.434 54.817C130.434 54.817 130.621 59.6249 130.678 59.7262C130.735 59.8275 134.359 60.4431 134.465 60.5054C135.638 60.3647 136.802 60.1618 137.951 59.8976L141.657 55.417L140.346 54.8872Z" fill="#AE7461"/>
<path d="M131.647 37.6661C130.729 37.9563 129.886 38.4264 129.169 39.0463C128.452 39.6661 127.879 40.4222 127.485 41.2661C126.833 42.7411 126.641 44.3645 126.931 45.9415C127.069 46.9701 127.371 48.0065 127.566 48.9883C127.666 50.1561 127.353 51.3222 126.678 52.3C126.466 52.6351 126.165 52.9935 126.271 53.3676C126.348 53.535 126.469 53.6809 126.621 53.7913C126.774 53.9018 126.953 53.9732 127.142 53.9987C127.91 54.1905 128.72 54.1634 129.472 53.9208L129.374 54.7C131.38 54.5582 133.35 54.1192 135.214 53.3987C135.865 53.2371 136.464 52.9239 136.957 52.487C137.191 52.2172 137.38 51.9151 137.519 51.5909C138.132 50.32 138.676 49.0195 139.148 47.6948" fill="#263238"/>
<path d="M140.673 39.9804C139.962 39.109 139.056 38.4011 138.021 37.9089C136.987 37.4167 135.85 37.1526 134.695 37.1362C133.705 37.1375 132.723 37.3063 131.795 37.6349C130.815 37.8652 129.95 38.4166 129.351 39.1934C128.619 40.1035 128.137 41.1754 127.95 42.3103C127.777 43.4817 127.717 44.666 127.771 45.848C127.832 47.0374 128.232 48.1882 128.928 49.1753L132.064 49.6974C133.793 49.8255 135.532 49.7338 137.236 49.4247C138.088 49.2692 138.9 48.9544 139.626 48.4985C140.351 48.0426 140.975 47.4544 141.463 46.7675C142.717 44.8116 142.196 41.7648 140.673 39.9804Z" fill="#263238"/>
<path d="M137.887 39.9649L133.7 38.4064L132.609 38.5233C130.165 38.5233 128.463 41.1259 128.446 43.0273C128.379 45.1125 128.513 47.1993 128.846 49.2611C128.979 50.1091 129.389 50.8949 130.019 51.5054C130.648 52.1159 131.463 52.5196 132.348 52.6586C132.348 52.6586 132.291 54.3339 132.267 55.3859L138.669 54.9417L138.986 41.048C138.982 40.7673 138.866 40.4986 138.662 40.2971C138.457 40.0957 138.18 39.9768 137.887 39.9649V39.9649Z" fill="#AE7461"/>
<path d="M129.937 45.6456C129.939 45.6978 129.952 45.7491 129.974 45.7965C129.997 45.844 130.03 45.8867 130.07 45.9221C130.11 45.9576 130.157 45.9851 130.208 46.0032C130.259 46.0213 130.314 46.0295 130.368 46.0274C130.422 46.0284 130.476 46.0191 130.527 46C130.577 45.9809 130.623 45.9524 130.662 45.9161C130.7 45.8798 130.731 45.8365 130.752 45.7887C130.773 45.7409 130.784 45.6896 130.784 45.6378C130.777 45.5331 130.729 45.4348 130.648 45.3636C130.568 45.2923 130.462 45.2538 130.352 45.256C130.298 45.2538 130.243 45.2624 130.192 45.2811C130.141 45.2998 130.095 45.3283 130.056 45.3648C130.017 45.4013 129.987 45.4451 129.966 45.4934C129.945 45.5416 129.935 45.5935 129.937 45.6456V45.6456Z" fill="#263238"/>
<path d="M129.139 44.5466C129.196 44.6012 129.514 44.3674 129.954 44.3518C130.393 44.3363 130.768 44.5311 130.825 44.4765C130.882 44.422 130.784 44.3596 130.638 44.2661C130.425 44.1515 130.182 44.0975 129.937 44.1103C129.697 44.1157 129.463 44.1919 129.269 44.3285C129.155 44.4376 129.115 44.5311 129.139 44.5466Z" fill="#263238"/>
<path d="M132.128 47.4767C131.882 47.42 131.631 47.3912 131.378 47.391C131.256 47.391 131.15 47.391 131.126 47.2975C131.108 47.1828 131.128 47.0658 131.183 46.9624C131.272 46.6819 131.378 46.3936 131.476 46.0897C131.752 45.3531 131.97 44.5977 132.128 43.8299C131.791 44.5414 131.518 45.2792 131.313 46.0351C131.215 46.339 131.126 46.6351 131.036 46.9079C130.982 47.0514 130.982 47.2085 131.036 47.352C131.058 47.3889 131.087 47.421 131.122 47.4465C131.157 47.472 131.197 47.4902 131.24 47.5001C131.304 47.511 131.371 47.511 131.435 47.5001C131.666 47.5212 131.899 47.5134 132.128 47.4767Z" fill="#263238"/>
<path d="M132.339 52.6507C133.898 52.5887 135.408 52.1168 136.705 51.2871C136.705 51.2871 135.646 53.539 132.323 53.4222L132.339 52.6507Z" fill="#6F4439"/>
<path d="M129.252 43.3701C129.334 43.4792 129.684 43.3701 130.067 43.3701C130.449 43.3701 130.824 43.4637 130.881 43.3701C130.938 43.2766 130.881 43.2221 130.718 43.1208C130.521 42.9948 130.288 42.9295 130.05 42.9338C129.812 42.9253 129.577 42.985 129.374 43.1052C129.268 43.2221 129.22 43.3234 129.252 43.3701Z" fill="#263238"/>
<path d="M135.126 45.474C135.13 45.5269 135.122 45.5798 135.104 45.6297C135.085 45.6797 135.057 45.7256 135.019 45.7648C134.982 45.804 134.937 45.8357 134.887 45.858C134.837 45.8803 134.783 45.8928 134.727 45.8948C134.618 45.9035 134.51 45.8707 134.426 45.8036C134.343 45.7365 134.29 45.6405 134.279 45.5364C134.277 45.4294 134.318 45.3258 134.394 45.2473C134.47 45.1689 134.575 45.1216 134.687 45.1156C134.74 45.1113 134.794 45.1172 134.845 45.133C134.896 45.1487 134.944 45.174 134.985 45.2073C135.025 45.2406 135.059 45.2813 135.083 45.3271C135.108 45.3729 135.122 45.4228 135.126 45.474V45.474Z" fill="#263238"/>
<path d="M135.622 44.3519C135.565 44.4142 135.199 44.1804 134.702 44.2116C134.205 44.2428 133.847 44.4999 133.79 44.4376C133.733 44.3753 133.79 44.3051 133.969 44.1882C134.178 44.0339 134.431 43.9442 134.694 43.9311C134.953 43.918 135.209 43.9834 135.427 44.1181C135.557 44.2194 135.647 44.3285 135.622 44.3519Z" fill="#263238"/>
<path d="M134.939 42.8246C134.858 42.9182 134.499 42.8246 134.076 42.8246C133.652 42.8246 133.261 42.9104 133.212 42.8246C133.163 42.7389 133.212 42.6766 133.383 42.5831C133.594 42.4599 133.837 42.3977 134.084 42.4039C134.328 42.4064 134.567 42.4709 134.776 42.5909C134.931 42.6688 134.98 42.7701 134.939 42.8246Z" fill="#263238"/>
<path d="M142.114 42.0687C140.64 39.1856 138.424 37.2687 134.458 37.1362L137.601 44.461C139.084 46.5181 139.084 49.0117 138.302 51.3883C138.082 52.0585 137.789 52.8299 138.196 53.4065C138.438 53.6699 138.775 53.8373 139.139 53.8762C139.504 53.9151 139.87 53.8227 140.167 53.6169C140.7 53.2364 141.124 52.7323 141.397 52.152C141.379 52.2556 141.399 52.362 141.452 52.4539C141.505 52.5458 141.589 52.6178 141.69 52.6585C141.835 52.7053 141.991 52.708 142.137 52.6661C142.283 52.6242 142.411 52.5398 142.505 52.4247C142.688 52.1963 142.811 51.929 142.863 51.6455C143.107 50.6826 143.247 49.6981 143.279 48.7078C143.481 46.4362 143.08 44.1527 142.114 42.0687V42.0687Z" fill="#263238"/>
<path d="M138.424 46.3545C138.424 46.1129 138.66 45.5753 138.905 45.4973C139.133 45.4181 139.379 45.3957 139.619 45.4324C139.859 45.469 140.086 45.5635 140.277 45.7069C140.469 45.8502 140.619 46.0378 140.713 46.252C140.808 46.4662 140.845 46.6999 140.819 46.9311C140.857 47.1997 140.825 47.4731 140.725 47.7266C140.624 47.9802 140.46 48.2058 140.245 48.383C140.031 48.5602 139.774 48.6834 139.497 48.7415C139.22 48.7996 138.933 48.7907 138.661 48.7156C138.652 48.661 138.465 47.1649 138.424 46.3545Z" fill="#AE7461"/>
<path d="M139.23 47.8896C139.23 47.8896 139.23 47.8896 139.336 47.9363C139.433 47.971 139.54 47.971 139.638 47.9363C139.776 47.8371 139.884 47.7051 139.953 47.5535C140.021 47.4018 140.047 47.2356 140.028 47.0714C140.024 46.8861 139.974 46.7044 139.882 46.5415C139.858 46.4749 139.817 46.4151 139.763 46.3674C139.709 46.3198 139.644 46.2859 139.572 46.2688C139.526 46.2614 139.479 46.2689 139.437 46.29C139.396 46.3112 139.363 46.3448 139.344 46.3857C139.34 46.4219 139.34 46.4585 139.344 46.4947C139.344 46.4947 139.287 46.4947 139.344 46.3701C139.356 46.3066 139.394 46.25 139.448 46.2122C139.503 46.1744 139.571 46.1584 139.638 46.1675C139.732 46.1791 139.821 46.2139 139.897 46.2686C139.972 46.3232 140.032 46.3958 140.069 46.4792C140.175 46.6604 140.234 46.8636 140.24 47.0714C140.266 47.262 140.231 47.4557 140.139 47.6268C140.048 47.7979 139.904 47.9384 139.727 48.0298C139.671 48.0566 139.61 48.0705 139.548 48.0705C139.486 48.0705 139.424 48.0566 139.369 48.0298C139.238 47.9441 139.222 47.8896 139.23 47.8896Z" fill="#6F4439"/>
<path d="M138.995 45.5052L138.425 46.1597C133.025 43.0428 131.095 38.1414 131.388 38.4765C132.515 38.0717 133.731 37.9457 134.923 38.1103C136.756 38.4064 140.242 39.2869 140.193 41.3597C140.085 42.8038 139.678 44.213 138.995 45.5052V45.5052Z" fill="#263238"/>
<path d="M140.004 49.0584C140.004 49.2125 139.956 49.3632 139.867 49.4913C139.777 49.6195 139.65 49.7193 139.501 49.7783C139.352 49.8373 139.189 49.8527 139.031 49.8227C138.873 49.7926 138.727 49.7184 138.614 49.6094C138.5 49.5004 138.422 49.3616 138.391 49.2104C138.359 49.0593 138.375 48.9026 138.437 48.7602C138.499 48.6178 138.603 48.4961 138.737 48.4105C138.871 48.3249 139.028 48.2792 139.19 48.2792C139.406 48.2792 139.613 48.3613 139.765 48.5074C139.918 48.6535 140.004 48.8517 140.004 49.0584Z" fill="#455A64"/>
<path d="M131.591 37.6661C131.591 37.783 133.643 37.37 134.531 37.8765C135.395 38.4295 136.133 39.1454 136.698 39.9805C137.986 41.5818 138.781 43.4951 138.995 45.5052C139.398 45.4131 139.822 45.46 140.192 45.6377C140.192 45.6377 141.3 39.1856 134.694 37.1363C134.694 37.1363 131.982 36.6142 131.591 37.6661Z" fill="#455A64"/>
<path d="M132.16 37.2609H132.282C132.401 37.2231 132.524 37.1944 132.648 37.1751H132.917H133.243C133.517 37.1836 133.79 37.2176 134.057 37.2764C134.718 37.4427 135.342 37.7226 135.898 38.1024C136.59 38.5524 137.206 39.1017 137.723 39.731C138.241 40.3589 138.663 41.0542 138.977 41.796C139.05 41.9752 139.116 42.1388 139.173 42.3025C139.23 42.4661 139.278 42.6376 139.327 42.7934C139.376 42.9492 139.401 43.1051 139.433 43.2531C139.466 43.4012 139.49 43.5492 139.515 43.6817C139.518 43.7492 139.518 43.8168 139.515 43.8843V44.0791C139.515 44.2038 139.515 44.3207 139.515 44.4298C139.515 44.6558 139.515 44.8428 139.515 44.9986V45.3571C139.515 45.435 139.515 45.4817 139.515 45.4817V44.9285C139.515 44.7726 139.515 44.5856 139.515 44.3596C139.515 44.2506 139.515 44.1337 139.474 44.0168V43.822C139.474 43.7596 139.474 43.6895 139.474 43.6194C139.474 43.5492 139.425 43.3389 139.392 43.1986C139.36 43.0583 139.319 42.8947 139.278 42.7389C139.238 42.583 139.181 42.4194 139.124 42.2557C139.067 42.0921 138.993 41.9284 138.928 41.757C138.616 41.0211 138.196 40.3311 137.682 39.7076C137.165 39.0863 136.556 38.5404 135.874 38.0868C135.322 37.7139 134.708 37.4345 134.057 37.2609C133.807 37.199 133.55 37.1598 133.292 37.144H132.974C132.885 37.1391 132.795 37.1391 132.705 37.144L132.339 37.2063L132.16 37.2609Z" fill="#263238"/>
<path d="M132.74 48.7156C132.878 48.849 133.049 48.948 133.236 49.0039C133.335 49.0434 133.444 49.0533 133.549 49.0324C133.653 49.0116 133.749 48.9609 133.823 48.887C133.877 48.8127 133.906 48.7243 133.906 48.6338C133.906 48.5433 133.877 48.4549 133.823 48.3805C133.765 48.3049 133.692 48.2411 133.608 48.193C133.524 48.1448 133.431 48.1132 133.334 48.1H133.114C133.034 48.1022 132.956 48.1242 132.888 48.1638C132.819 48.2034 132.763 48.2593 132.723 48.326C132.683 48.3852 132.662 48.4542 132.662 48.5247C132.662 48.5952 132.683 48.6642 132.723 48.7234L132.74 48.7156Z" fill="#6F4439"/>
<path d="M133.757 47.7415C133.692 47.7415 133.675 48.1856 133.26 48.5207C132.845 48.8558 132.364 48.7545 132.356 48.8168C132.348 48.8792 132.462 48.9103 132.674 48.9181C132.946 48.932 133.215 48.8518 133.431 48.6921C133.637 48.5385 133.774 48.3156 133.814 48.0688C133.838 47.8506 133.789 47.7415 133.757 47.7415Z" fill="#263238"/>
<path d="M125.335 56.0249C126.442 57.4614 127.863 58.6496 129.499 59.5069C131.135 60.3642 132.947 60.8698 134.808 60.9886C135.768 61.0696 136.735 60.9932 137.667 60.7626C139.189 60.4099 140.612 59.746 141.84 58.8164C143.067 57.8869 144.07 56.7139 144.778 55.3781L138.677 54.4119C138.677 54.4119 138.017 57.0612 135.419 57.0145C134.643 57.0252 133.885 56.787 133.266 56.3379C132.648 55.8889 132.204 55.2548 132.006 54.5365L125.335 56.0249Z" fill="#008C96"/>
<path d="M158.225 83.672C161.5 83.672 164.155 81.2648 164.155 78.2953C164.155 75.3258 161.5 72.9186 158.225 72.9186C154.95 72.9186 152.295 75.3258 152.295 78.2953C152.295 81.2648 154.95 83.672 158.225 83.672Z" fill="#E0E0E0"/>
<path d="M207.112 33.17H207.348C207.577 33.1772 207.806 33.2007 208.032 33.2401C208.941 33.3862 209.788 33.7752 210.475 34.3622C211.021 34.8416 211.45 35.4302 211.732 36.086C212.013 36.7418 212.141 37.4489 212.104 38.157C212.104 39.8246 212.104 41.7571 212.104 43.9234C212.104 52.6118 212.104 65.2119 212.17 80.8978C212.17 88.7447 212.17 97.363 212.17 106.651C212.17 111.296 212.17 116.101 212.17 121.067C212.17 123.545 212.17 126.07 212.17 128.626V134.439C212.215 135.113 212.13 135.789 211.917 136.434C211.686 137.089 211.304 137.686 210.8 138.181C210.295 138.676 209.68 139.056 209.001 139.293C208.319 139.52 207.597 139.618 206.875 139.582H141.047L141.218 139.504C138.652 142.753 135.891 146.252 133.073 149.79L132.91 150L132.739 149.79L125.539 140.953L124.366 139.504L124.537 139.582H121.865C120.956 139.655 120.04 139.557 119.169 139.293C118.304 138.984 117.548 138.447 116.988 137.744C116.429 137.04 116.089 136.2 116.009 135.319C116.009 131.922 116.009 128.595 116.009 125.275V105.662C116.009 92.8123 116.009 80.4225 116.009 68.6172C116.009 62.721 116.009 56.9755 116.009 51.3806C116.009 48.5806 116.009 45.8273 116.009 43.1207V39.0843C115.984 38.4132 116.011 37.7412 116.091 37.0739C116.218 36.3968 116.496 35.7538 116.905 35.1882C117.298 34.6281 117.808 34.1515 118.402 33.7881C118.996 33.4248 119.662 33.1825 120.359 33.0765C121.035 33.0109 121.715 32.9874 122.395 33.0063H132.169H146.83L190.952 33.0687H202.941H206.061C206.761 33.0687 207.12 33.0687 207.12 33.0687H206.061H202.941L190.944 33.2401L146.822 33.3102H122.387C121.726 33.2914 121.065 33.3122 120.407 33.3726C119.423 33.5195 118.512 33.9591 117.803 34.6289C117.094 35.2988 116.623 36.1651 116.457 37.1051C116.379 37.7542 116.355 38.4082 116.384 39.061V43.0974C116.384 45.8091 116.384 48.5624 116.384 51.3572C116.384 56.9417 116.384 62.6872 116.384 68.5938C116.384 80.3991 116.384 92.7499 116.384 105.638C116.384 112.07 116.384 118.607 116.384 125.252C116.384 128.563 116.384 131.93 116.384 135.265C116.452 136.073 116.761 136.846 117.273 137.492C117.786 138.138 118.48 138.631 119.275 138.912C120.099 139.156 120.966 139.243 121.825 139.169H124.594L124.659 139.247L125.832 140.688L133.114 149.556H132.78L140.876 139.278L140.941 139.192H206.916C207.593 139.232 208.272 139.142 208.912 138.927C209.537 138.709 210.104 138.359 210.569 137.903C211.035 137.447 211.387 136.897 211.599 136.293C211.806 135.688 211.886 135.05 211.836 134.415C211.836 133.761 211.836 133.114 211.836 132.46V128.563C211.836 126.007 211.836 123.483 211.836 121.005C211.836 116.039 211.836 111.233 211.836 106.589C211.836 97.3007 211.836 88.6668 211.836 80.8355C211.836 65.1496 211.885 52.5494 211.901 43.861C211.901 41.6948 211.901 39.7623 211.901 38.0947C211.958 36.9812 211.604 35.884 210.899 34.996C210.194 34.1081 209.185 33.4863 208.048 33.2401C207.429 33.1622 207.112 33.1934 207.112 33.17Z" fill="#263238"/>
<path d="M57.1353 128L46 164H53.9588L65 128H57.1353Z" fill="#EBEBEB"/>
<path d="M72.2901 128L60 163.988L68.801 164L81 128H72.2901Z" fill="#EBEBEB"/>
<path d="M45 142L47.7149 133H84L81.6297 142H45Z" fill="#EBEBEB"/>
<path d="M41 156L43.784 148H81L78.5632 156H41Z" fill="#EBEBEB"/>
<path d="M81.5725 56.0024C82.3333 50.7932 83.6764 45.08 91.1967 45.6128C91.1967 45.6128 96.8605 45.9908 98.5349 50.0372C99.4413 52.2261 98.8989 60.4196 99.1173 67.1948L99.929 75.9069L77.27 71.6877C77.27 71.6877 81.0993 59.2388 81.5725 56.0024Z" fill="#263238"/>
<path d="M92.1978 47.7152L91.7246 47.2724L86.6286 49.2992C86.2739 49.318 85.9393 49.468 85.6912 49.7194C85.443 49.9708 85.2995 50.3053 85.2891 50.6564L85.3364 67.0436C85.2802 68.1027 85.5966 69.1484 86.2318 70.0028L90.8983 75.9068C92.5254 78.0344 92.3761 73.3508 93.6647 71.0108C93.7557 70.8452 93.3662 70.2368 93.3917 70.1216C93.4248 70.0033 93.4504 69.8831 93.4681 69.7616C93.621 68.444 93.6283 67.2992 93.6283 67.2992C93.7193 65.8592 93.7484 65.258 93.7484 65.2724C93.7484 65.2868 96.8643 64.9124 97.7051 60.9524C98.1237 58.9868 98.0436 56.2724 97.9271 53.6192C97.7743 49.9364 95.1899 47.7116 92.1978 47.7152Z" fill="#FFBF9D"/>
<path d="M91.9429 56.4597C91.9373 56.5927 91.8793 56.7183 91.7814 56.8098C91.6835 56.9012 91.5534 56.9513 91.4188 56.9493C91.3529 56.9512 91.2872 56.9401 91.2257 56.9165C91.1642 56.893 91.1081 56.8576 91.0606 56.8123C91.0131 56.767 90.9753 56.7128 90.9493 56.6529C90.9233 56.593 90.9096 56.5285 90.9092 56.4633C90.9148 56.3299 90.9727 56.2039 91.0705 56.1119C91.1682 56.0199 91.2984 55.969 91.4333 55.9701C91.4994 55.9686 91.5652 55.9802 91.6267 56.0041C91.6882 56.028 91.7443 56.0638 91.7917 56.1094C91.8392 56.1549 91.877 56.2094 91.9029 56.2695C91.9289 56.3296 91.9425 56.3943 91.9429 56.4597V56.4597Z" fill="#263238"/>
<path d="M96.9259 56.5712C96.9211 56.7046 96.8634 56.8308 96.7653 56.9224C96.6672 57.014 96.5366 57.0637 96.4017 57.0608C96.3358 57.0627 96.2701 57.0516 96.2086 57.0281C96.1471 57.0046 96.091 56.9692 96.0435 56.9239C95.996 56.8786 95.9582 56.8244 95.9322 56.7645C95.9062 56.7045 95.8925 56.64 95.8921 56.5748C95.8986 56.4418 95.9567 56.3163 96.0543 56.2245C96.1519 56.1326 96.2815 56.0815 96.4163 56.0816C96.4825 56.0797 96.5484 56.0909 96.6102 56.1147C96.6719 56.1384 96.7282 56.1742 96.7758 56.2198C96.8233 56.2655 96.861 56.3201 96.8868 56.3805C96.9126 56.4408 96.9259 56.5057 96.9259 56.5712V56.5712Z" fill="#263238"/>
<path d="M97.4067 54.674C97.3376 54.7388 96.9627 54.4328 96.4057 54.4076C95.8488 54.3824 95.4266 54.6344 95.372 54.566C95.3174 54.4976 95.4157 54.4184 95.5977 54.296C95.8473 54.1435 96.1383 54.0707 96.4312 54.0872C96.7206 54.1033 96.9978 54.2077 97.2247 54.386C97.3885 54.5228 97.4395 54.6488 97.4067 54.674Z" fill="#263238"/>
<path d="M91.7644 54.7316C91.6879 54.7892 91.3458 54.4472 90.7961 54.3717C90.2465 54.2961 89.7988 54.4976 89.7478 54.422C89.6969 54.3465 89.8061 54.2817 90.0026 54.1809C90.2672 54.0549 90.5641 54.0109 90.8544 54.0549C91.1407 54.0989 91.4057 54.2311 91.6115 54.4328C91.7607 54.5804 91.7971 54.7064 91.7644 54.7316Z" fill="#263238"/>
<path d="M93.7049 58.7348C94.0038 58.6613 94.3104 58.6226 94.6185 58.6197C94.7605 58.6197 94.8951 58.5909 94.9243 58.4973C94.9456 58.3528 94.9201 58.2053 94.8515 58.0761C94.735 57.7161 94.6149 57.3561 94.4875 56.9961C93.9815 55.4445 93.6248 54.17 93.6867 54.152C93.7485 54.134 94.2108 55.3724 94.7168 56.924C94.8405 57.3092 94.957 57.6728 95.0808 58.004C95.1613 58.1778 95.1781 58.3738 95.1281 58.5585C95.1046 58.6068 95.0706 58.6493 95.0284 58.6829C94.9862 58.7166 94.9369 58.7404 94.8842 58.7529C94.8038 58.7679 94.7222 58.7751 94.6403 58.7744C94.3281 58.8015 94.0136 58.7881 93.7049 58.7348V58.7348Z" fill="#263238"/>
<path d="M93.7594 65.2652C91.8604 65.1982 90.0173 64.6125 88.4341 63.5732C88.4341 63.5732 89.6535 66.3992 93.7048 66.2264L93.7594 65.2652Z" fill="#FF9A6C"/>
<path d="M93.4026 60.0489C93.3038 59.9122 93.1714 59.8028 93.0179 59.731C92.8643 59.6592 92.6948 59.6273 92.5254 59.6385C92.4018 59.643 92.2804 59.6721 92.1685 59.7241C92.0565 59.776 91.9563 59.8498 91.8738 59.9409C91.7948 60.0292 91.745 60.1394 91.7314 60.2566C91.7177 60.3737 91.7407 60.4922 91.7974 60.5961C91.8826 60.7004 91.9977 60.7768 92.1276 60.8153C92.2575 60.8539 92.3961 60.8527 92.5254 60.8121C92.7907 60.7326 93.0379 60.603 93.2534 60.4305C93.3175 60.3884 93.3741 60.3361 93.4208 60.2757C93.441 60.2452 93.4518 60.2095 93.4518 60.1731C93.4518 60.1366 93.441 60.1009 93.4208 60.0705" fill="#FF9A6C"/>
<path d="M92.0484 59.0372C92.1394 59.0372 92.1103 59.6312 92.6054 60.0812C93.1004 60.5312 93.7483 60.4952 93.7483 60.5816C93.7483 60.668 93.5991 60.6896 93.3261 60.6824C92.9727 60.6701 92.635 60.535 92.3724 60.3008C92.1217 60.0741 91.968 59.7611 91.9429 59.426C91.9356 59.174 92.0084 59.03 92.0484 59.0372Z" fill="#263238"/>
<path d="M92.2958 52.5896C92.2193 52.7264 91.6806 52.5896 91.0218 52.5536C90.3629 52.5176 89.8133 52.6292 89.7478 52.4816C89.7223 52.4132 89.8315 52.2872 90.0644 52.1756C90.3715 52.0389 90.7073 51.9771 91.0436 51.9956C91.381 52.0032 91.7112 52.0935 92.0046 52.2584C92.2266 52.388 92.3285 52.5212 92.2958 52.5896Z" fill="#263238"/>
<path d="M97.3264 52.3125C97.2208 52.4313 96.8459 52.2837 96.3836 52.2549C95.9214 52.2261 95.5319 52.2981 95.4482 52.1613C95.4118 52.0965 95.4773 51.9741 95.6556 51.8625C95.8907 51.7296 96.1614 51.6718 96.431 51.6969C96.6979 51.716 96.9523 51.8166 97.159 51.9849C97.3264 52.1217 97.3737 52.2549 97.3264 52.3125Z" fill="#263238"/>
<path d="M85.4019 57.6512C85.4019 57.6512 88.252 58.526 89.8646 51.5744C90.4142 49.1984 92.6419 47.2724 92.6419 47.2724L91.7392 47.0024C91.7392 47.0024 86.1226 48.5684 86.028 48.6368C85.9334 48.7052 84.6084 51.5168 84.6084 51.5168L85.4019 57.6512Z" fill="#263238"/>
<path d="M86.1043 57.392C86.1043 57.0932 85.8059 56.3768 85.5147 56.312C84.7284 56.1536 83.2979 56.1428 83.1851 58.1336C83.0285 60.8481 85.8168 60.4413 85.8277 60.3657C85.8386 60.2901 86.0534 58.4181 86.1043 57.392Z" fill="#FFBF9D"/>
<path d="M85.0486 59.2928C85.0486 59.2928 84.9977 59.3216 84.914 59.354C84.8563 59.378 84.7945 59.3903 84.732 59.3903C84.6694 59.3903 84.6076 59.378 84.55 59.354C84.3795 59.2326 84.2446 59.0687 84.159 58.879C84.0733 58.6893 84.0399 58.4806 84.0622 58.274C84.0692 58.0412 84.1276 57.8126 84.2333 57.6044C84.2621 57.5229 84.3102 57.4494 84.3735 57.3899C84.4368 57.3305 84.5135 57.2868 84.5973 57.2624C84.6526 57.2515 84.71 57.2599 84.7598 57.2861C84.8096 57.3124 84.8486 57.3549 84.8703 57.4064C84.903 57.4856 84.8703 57.5396 84.8994 57.5432C84.9285 57.5468 84.9613 57.5036 84.9431 57.3884C84.9317 57.3203 84.897 57.258 84.8448 57.212C84.8097 57.1815 84.7687 57.1584 84.7242 57.1442C84.6798 57.1299 84.6329 57.1249 84.5864 57.1292C84.4722 57.1446 84.3641 57.1887 84.2722 57.2575C84.1804 57.3262 84.1081 57.4172 84.0622 57.5216C83.9299 57.75 83.8573 58.0073 83.8511 58.2704C83.8511 58.8176 84.0913 59.3504 84.4808 59.4836C84.554 59.5084 84.6318 59.5167 84.7086 59.508C84.7854 59.4993 84.8593 59.4737 84.9249 59.4332C85.0377 59.3576 85.0559 59.2964 85.0486 59.2928Z" fill="#FF9A6C"/>
<path d="M87.3345 56.3192C87.4733 56.3022 87.6107 56.2758 87.7458 56.24C88.1109 56.1285 88.4457 55.9365 88.725 55.6784C88.9157 55.5002 89.0865 55.3023 89.2346 55.088C89.3988 54.8369 89.5378 54.5704 89.6495 54.2924C89.8878 53.6465 90.0848 52.9864 90.2392 52.316C90.4321 51.596 90.6432 50.9408 90.8726 50.3432C91.0753 49.8144 91.3187 49.3017 91.6006 48.8096C91.7859 48.4773 91.9952 48.1584 92.2266 47.8556C92.3104 47.7476 92.3795 47.6684 92.4268 47.6144C92.4742 47.5604 92.496 47.5316 92.4996 47.5352L92.4378 47.6216C92.3941 47.6792 92.3286 47.762 92.2521 47.87C92.0298 48.1791 91.8268 48.5013 91.6442 48.8348C91.3756 49.3294 91.1421 49.8418 90.9454 50.3684C90.7197 50.9624 90.5158 51.6284 90.3229 52.334C90.1662 53.0074 89.9656 53.67 89.7223 54.3176C89.607 54.5982 89.4643 54.8671 89.2964 55.1204C89.1443 55.338 88.9672 55.5373 88.7686 55.7144C88.483 55.9748 88.1385 56.1636 87.764 56.2652C87.6242 56.3038 87.4795 56.3219 87.3345 56.3192V56.3192Z" fill="#263238"/>
<path d="M83.5816 67.9113C83.5662 67.8693 83.5552 67.8259 83.5489 67.7817C83.5489 67.6845 83.5088 67.5585 83.4797 67.3929C83.4215 67.0329 83.3377 66.5505 83.2358 65.9205H83.3013C83.3013 66.0213 83.3305 66.1293 83.345 66.2409C83.345 66.2805 83.3851 66.3201 83.4033 66.3633L83.3341 66.3885C82.9144 64.953 82.6185 63.485 82.4496 62.0001C82.3433 61.0604 82.2874 60.1159 82.2821 59.1705C82.2472 58.129 82.3389 57.0871 82.5551 56.0673C82.6635 55.6362 82.8313 55.2219 83.0538 54.8361C83.2717 54.4628 83.5266 54.1119 83.8146 53.7885C84.3715 53.1513 84.9721 52.6005 85.5217 52.0569L88.4701 49.1769L90.4685 47.2509L91.0145 46.7325C91.0727 46.6749 91.1201 46.6317 91.1601 46.5993C91.1755 46.5831 91.1925 46.5686 91.2111 46.5561C91.2111 46.5561 91.2111 46.5561 91.1674 46.6065L91.0327 46.7469L90.5013 47.2833L88.5357 49.2381L85.6237 52.1181C85.074 52.6653 84.4734 53.2161 83.9238 53.8461C83.3388 54.4818 82.9168 55.2473 82.6935 56.0781C82.4811 57.0875 82.3906 58.1183 82.4241 59.1489C82.4259 60.0893 82.4782 61.0291 82.5806 61.9641C82.7392 63.44 83.0204 64.9006 83.4215 66.3309L83.3523 66.3561L83.2941 66.2337C83.2941 66.1185 83.2649 66.0105 83.2504 65.9133H83.3195L83.5343 67.3929C83.5561 67.5549 83.5743 67.6845 83.5853 67.7817C83.5962 67.8789 83.5816 67.9113 83.5816 67.9113Z" fill="#455A64"/>
<path d="M83.8438 60.9776C83.8438 61.1992 83.9102 61.4158 84.0348 61.6C84.1593 61.7842 84.3364 61.9277 84.5434 62.0123C84.7505 62.097 84.9783 62.1189 85.198 62.0754C85.4177 62.032 85.6194 61.925 85.7776 61.768C85.9357 61.6111 86.0433 61.4113 86.0865 61.1938C86.1298 60.9764 86.1069 60.7512 86.0206 60.5467C85.9344 60.3422 85.7887 60.1676 85.6021 60.045C85.4154 59.9224 85.1962 59.8573 84.9722 59.858C84.8237 59.858 84.6766 59.887 84.5395 59.9433C84.4023 59.9996 84.2778 60.0822 84.173 60.1862C84.0681 60.2902 83.9851 60.4136 83.9286 60.5495C83.8721 60.6853 83.8433 60.8308 83.8438 60.9776V60.9776Z" fill="#455A64"/>
<path d="M85.2236 157.044L86.5085 167.998L91.3643 167.268L91.6883 156.471L85.2236 157.044Z" fill="#263238"/>
<path d="M91.3678 165.097C91.3678 165.097 88.11 167.829 86.2937 165.817L86.2027 165.489L84.5101 174.41C84.4575 174.644 84.4928 174.889 84.6094 175.099C84.7259 175.309 84.9158 175.47 85.1434 175.551C85.3166 175.606 85.5021 175.609 85.6773 175.562C85.8525 175.514 86.0098 175.416 86.1299 175.281C87.4439 173.812 92.2669 168.142 92.2669 168.142L92.074 166.702C91.9446 166.123 91.7049 165.573 91.3678 165.082V165.097Z" fill="#263238"/>
<path d="M92.1247 167.077L85.3252 175.591C85.48 175.614 85.6382 175.597 85.7851 175.544C85.932 175.49 86.063 175.401 86.166 175.285C89.806 171.181 92.2776 168.146 92.2776 168.146L92.1247 167.077Z" fill="#E0E0E0"/>
<path d="M87.16 171.357C87.1091 171.39 86.8688 170.914 86.301 170.691C85.9491 170.578 85.5781 170.534 85.209 170.562C85.209 170.54 85.3109 170.461 85.522 170.414C85.8036 170.361 86.0948 170.391 86.3592 170.5C86.6263 170.61 86.8553 170.793 87.0181 171.03C87.1564 171.213 87.1819 171.35 87.16 171.357Z" fill="#3B9594" fill-opacity="0.560507"/>
<path d="M86.5848 172.657C86.3106 172.526 86.0286 172.412 85.7403 172.315C85.4396 172.279 85.1369 172.263 84.834 172.264C84.9685 172.164 85.1257 172.098 85.2919 172.072C85.4581 172.046 85.6283 172.06 85.7877 172.113C86.3409 172.236 86.6358 172.628 86.5848 172.657Z" fill="#3B9594" fill-opacity="0.560507"/>
<path d="M88.2739 169.665C88.2339 169.716 87.7497 169.276 87.0072 169.05C86.5504 168.939 86.0854 168.864 85.6167 168.826C86.0941 168.696 86.5997 168.705 87.0717 168.854C87.5436 169.003 87.9614 169.285 88.2739 169.665Z" fill="#3B9594" fill-opacity="0.560507"/>
<path d="M88.2776 167.408C88.2557 167.466 87.7316 167.289 87.0691 167.314C86.4066 167.34 85.8897 167.538 85.8643 167.48C86.2079 167.224 86.6322 167.096 87.0618 167.12C87.4887 167.071 87.9194 167.173 88.2776 167.408V167.408Z" fill="#263238"/>
<path d="M104.472 165.68C104.359 165.511 103.343 161.842 103.343 161.842L109.626 160.15L110.518 165.435L104.472 165.68Z" fill="#263238"/>
<path d="M110.241 163.88L110.456 164.812C110.456 164.812 117.372 167.602 117.459 168.956L103.791 169.057L103.962 164.078C106 165.039 107.908 164.874 110.241 163.88Z" fill="#263238"/>
<path d="M103.791 169.057L103.831 167.919L116.917 168.24C116.917 168.24 117.525 168.51 117.459 168.96L103.791 169.057Z" fill="#E0E0E0"/>
<path d="M110.503 164.852C110.503 164.924 110.168 164.956 109.841 165.183C109.513 165.41 109.342 165.702 109.28 165.673C109.218 165.644 109.313 165.244 109.713 164.978C110.114 164.712 110.518 164.791 110.503 164.852Z" fill="#3B9594" fill-opacity="0.560507"/>
<path d="M111.941 165.461C111.941 165.525 111.668 165.648 111.442 165.943C111.217 166.238 111.155 166.548 111.078 166.544C111.002 166.54 110.965 166.152 111.253 165.788C111.541 165.424 111.937 165.392 111.941 165.461Z" fill="#3B9594" fill-opacity="0.560507"/>
<path d="M112.768 167.235C112.706 167.253 112.611 166.908 112.768 166.515C112.924 166.123 113.248 165.979 113.277 166.036C113.306 166.094 113.113 166.299 112.979 166.616C112.844 166.933 112.844 167.228 112.768 167.235Z" fill="#3B9594" fill-opacity="0.560507"/>
<path d="M100.198 99.44C100.198 99.44 103.667 114.816 106.601 132.56C109.011 147.147 110.077 162.937 110.077 162.937L102.976 163.347C102.976 163.347 98.6476 145.236 95.2806 132.232C92.1721 120.241 89.6459 113.948 89.6459 113.948L88.2227 98.126L100.198 99.44Z" fill="#263238"/>
<path d="M80.6078 96.3656C80.6078 96.3656 74.3797 104.692 74.9039 113.383C75.2169 118.581 85.8639 164.791 85.8639 164.791L92.1684 164.578L90.1555 115.492L92.2885 99.44L80.6078 96.3656Z" fill="#263238"/>
<path d="M99.7398 73.9557C99.7608 74.0394 99.773 74.125 99.7762 74.2113C99.7762 74.4021 99.8089 74.6505 99.8308 74.9529C99.8817 75.6009 99.9145 76.5333 99.9363 77.6925C99.98 80.0037 99.8708 83.2005 99.6379 86.7177C99.4049 90.2349 99.2047 93.4209 99.1574 95.7177C99.1319 96.8733 99.1246 97.8057 99.1319 98.4501V99.1953C99.1405 99.2815 99.1405 99.3683 99.1319 99.4545C99.1147 99.3691 99.1061 99.2823 99.1064 99.1953C99.1064 99.0045 99.0846 98.7597 99.0664 98.4537C99.0336 97.8093 99.0227 96.8733 99.03 95.7141C99.03 93.4029 99.2156 90.2133 99.4486 86.6925C99.6815 83.1717 99.8126 79.9893 99.8126 77.6925C99.8126 76.5369 99.8126 75.6045 99.7689 74.9601C99.7689 74.6505 99.7689 74.4057 99.7689 74.2149C99.7513 74.1295 99.7415 74.0428 99.7398 73.9557Z" fill="#263238"/>
<path d="M103.937 81.7388L104.81 83.4344L102.226 73.9556C101.476 70.8416 100.369 69.9416 99.2882 69.6068L98.6694 70.2368L99.1244 87.974L99.7032 89.4464C99.5794 91.9664 100.588 93.3776 101.956 93.9932C103.973 94.904 106.346 93.8024 107.114 91.7468L109.797 83.8268L103.937 81.7388Z" fill="#008C96"/>
<path d="M81.0664 74.6288L83.6399 98.3888L97.8978 99.44L99.0335 98.4788L98.6476 80.5256L93.5189 67.76C93.5189 67.76 93.0748 72.3104 91.6661 72.206C90.7088 72.134 86.8322 69.398 86.0496 68.84L85.3216 66.5108L81.0664 74.6288Z" fill="white"/>
<path d="M85.3001 65.6541L83.0724 68.4801L75.4284 70.2801L80.2041 93.1185L76.5641 101.956C76.1833 102.896 75.866 103.859 75.6141 104.84L73.3755 113.509C73.3755 113.509 81.0886 115.586 83.0761 114.452C85.0635 113.318 87.4878 102.295 88.223 99.6921C88.9583 97.0893 90.0431 89.2953 89.5444 85.1481C89.0457 81.0009 87.7244 76.3569 87.2839 74.2473C86.8435 72.1377 85.3001 65.6541 85.3001 65.6541Z" fill="#008C96"/>
<path d="M77.7214 89.36L78.737 83.2976L75.4282 70.28C75.4282 70.28 73.8812 71.36 72.8548 75.3668C71.7628 79.5464 69.0146 90.5084 69 93.2048C69 95.1992 70.5288 99.2816 73.601 98.8064C79.5815 97.8812 89.071 94.2956 89.071 94.2956L87.7278 87.6968L77.7214 89.36Z" fill="#008C96"/>
<path d="M93.6976 66.3596L94.6513 67.8212L99.3505 69.6212C99.3505 69.6212 100.57 75.0896 100.57 76.76C100.57 78.4304 99.871 96.9704 99.871 97.8452C99.871 98.72 103.253 110.568 102.958 111.295C102.663 112.022 99.1357 112.533 99.1357 112.533C99.1357 112.533 97.8144 102.28 97.8144 98.7884C97.8144 95.2964 97.6652 86.7212 96.9299 82.502C96.1946 78.2828 93.5483 67.814 93.5483 67.814L93.6976 66.3596Z" fill="#008C96"/>
<path d="M97.8907 100.747C97.8907 100.747 97.8907 100.714 97.8907 100.657C97.8907 100.599 97.8907 100.506 97.8907 100.405C97.8907 100.164 97.8907 99.836 97.8907 99.4256C97.9126 98.558 97.938 97.334 97.9744 95.8256C98.0472 92.7836 98.171 88.586 98.2474 83.9456C98.2474 83.366 98.2474 82.7936 98.2474 82.2284C98.2474 81.6632 98.1892 81.116 98.1455 80.5724C98.0582 79.4924 97.9708 78.4304 97.8652 77.4296C97.7597 76.4288 97.6468 75.4856 97.5012 74.6072C97.3564 73.7948 97.1258 72.9997 96.8133 72.2348C96.3641 71.1262 95.8499 70.0444 95.2736 68.9948L94.8004 68.1344L94.6766 67.9112C94.6511 67.8608 94.6366 67.8356 94.6402 67.832C94.6621 67.8531 94.6805 67.8774 94.6948 67.904L94.8331 68.1164C94.9532 68.3072 95.128 68.588 95.3391 68.9588C95.9435 70.0028 96.4773 71.0851 96.937 72.1988C97.2642 72.9693 97.5082 73.7717 97.665 74.5928C97.8252 75.4784 97.9453 76.4252 98.0545 77.426C98.1637 78.4268 98.2511 79.4816 98.3457 80.5688C98.3858 81.1124 98.4513 81.6704 98.4476 82.2428C98.444 82.8152 98.4476 83.3804 98.4476 83.9636C98.3712 88.6004 98.2256 92.8016 98.12 95.8436C98.0618 97.3484 98.0145 98.576 97.9781 99.4436C97.9781 99.8576 97.9417 100.185 97.9308 100.423C97.9308 100.524 97.9308 100.61 97.9308 100.678C97.9202 100.703 97.9068 100.726 97.8907 100.747V100.747Z" fill="#263238"/>
<path d="M89.1839 93.7664C89.163 93.6801 89.1496 93.5922 89.1438 93.5037C89.1256 93.3345 89.1001 93.0789 89.0783 92.7513C89.0346 92.0961 88.9946 91.1457 89.0128 89.9685C89.0128 89.3817 89.0492 88.7373 89.0965 88.0497C89.1008 87.3207 89.0078 86.5945 88.8199 85.8897C88.3721 84.2632 87.8077 82.6703 87.1309 81.1233C86.4029 79.4637 85.6749 77.9085 85.0088 76.4973C84.6681 75.836 84.3667 75.1556 84.1061 74.4597C83.9102 73.8451 83.7498 73.2201 83.6256 72.5877C83.389 71.4357 83.2616 70.4925 83.1779 69.8409C83.1378 69.5133 83.1123 69.2613 83.0941 69.0885C83.0845 68.9999 83.0845 68.9106 83.0941 68.8221C83.1185 68.9081 83.1355 68.996 83.1451 69.0849C83.1742 69.2721 83.2143 69.5205 83.2616 69.8301C83.3671 70.4781 83.5164 71.4177 83.7675 72.5625C83.8998 73.1889 84.0663 73.8078 84.2662 74.4165C84.532 75.1038 84.8371 75.7757 85.1799 76.4289C85.8678 77.8365 86.6067 79.3952 87.3165 81.0548C87.9969 82.61 88.5602 84.2128 89.0019 85.8501C89.1861 86.5712 89.2742 87.3131 89.2639 88.0569C89.2093 88.7445 89.1766 89.3853 89.1584 89.9685C89.122 91.1421 89.1584 92.0888 89.1584 92.744C89.1584 93.0572 89.1802 93.3093 89.1875 93.5001C89.1946 93.5888 89.1934 93.678 89.1839 93.7664Z" fill="#263238"/>
<path d="M101.331 89.1044C101.382 88.736 101.472 88.374 101.6 88.0244C101.804 87.3548 102.128 86.4404 102.528 85.4504C102.929 84.4604 103.325 83.5784 103.62 82.9304C103.768 82.5827 103.95 82.2499 104.162 81.9368C104.048 82.296 103.907 82.6461 103.74 82.9844C103.464 83.6288 103.089 84.5144 102.688 85.5044C102.288 86.4944 101.96 87.3944 101.713 88.0496C101.606 88.4082 101.478 88.7604 101.331 89.1044V89.1044Z" fill="#263238"/>
<path d="M100.031 72.9476C100.079 73.0183 100.12 73.093 100.155 73.1708C100.235 73.3184 100.333 73.5308 100.457 73.8404C100.786 74.6831 101.03 75.5562 101.185 76.4468C101.411 77.7676 101.497 79.108 101.443 80.4464C101.389 81.9548 101.214 83.6036 101.006 85.328C100.566 88.7768 100.256 91.9052 100.115 94.1768C100.034 95.3108 99.9835 96.2288 99.9471 96.866C99.9471 97.1684 99.9107 97.4096 99.8997 97.586C99.8998 97.6721 99.8901 97.7578 99.8706 97.8416C99.8628 97.7566 99.8628 97.6711 99.8706 97.586C99.8706 97.3988 99.8706 97.1588 99.8706 96.866C99.8706 96.2288 99.9143 95.3072 99.9762 94.1696C100.085 91.8944 100.373 88.7696 100.813 85.31C101.025 83.5856 101.203 81.9404 101.265 80.4428C101.323 79.1191 101.251 77.7928 101.05 76.4828C100.909 75.5981 100.686 74.7281 100.384 73.8836C100.271 73.5848 100.184 73.3544 100.115 73.1996C100.079 73.1184 100.051 73.0341 100.031 72.9476V72.9476Z" fill="#263238"/>
<path d="M110.332 77.8437L107.919 75.9465L105.294 78.7509L104.177 81.9369L107.919 83.1501L108.203 81.3537L110.332 77.8437Z" fill="#FFBF9D"/>
<path d="M108.498 50.7969C108.829 47.2875 109.994 43.9052 111.897 40.9252C113.8 37.9452 116.388 35.4518 119.449 33.6479C122.511 31.844 125.96 30.7807 129.516 30.5445C133.072 30.3082 136.634 30.9058 139.912 32.2884C143.19 33.6711 146.092 35.7998 148.381 38.5013C150.67 41.2028 152.281 44.4007 153.084 47.8347C153.887 51.2686 153.859 54.8416 153.002 58.2628C152.145 61.684 150.483 64.8566 148.152 67.5225V67.5225C145.014 71.1077 140.807 73.6149 136.135 74.6824C131.464 75.7499 126.571 75.3226 122.161 73.4621C117.751 71.6016 114.053 68.404 111.599 64.3305C109.145 60.257 108.063 55.518 108.509 50.7969H108.498ZM152.054 54.8001C152.516 49.8433 151.173 44.8864 148.266 40.8228C145.359 36.7592 141.08 33.8564 136.2 32.6377C131.32 31.419 126.16 31.9646 121.651 34.1761C117.142 36.3876 113.58 40.1196 111.608 44.6991C109.635 49.2787 109.382 54.4045 110.894 59.1525C112.405 63.9005 115.582 67.9583 119.851 70.5943C124.121 73.2303 129.202 74.271 134.179 73.5289C139.155 72.7868 143.7 70.3106 146.994 66.5469C149.88 63.2498 151.649 59.1421 152.054 54.8001V54.8001Z" fill="#455A64"/>
<path d="M108.498 50.7969C108.829 47.2875 109.994 43.9052 111.897 40.9252C113.8 37.9452 116.388 35.4518 119.449 33.6479C122.511 31.844 125.96 30.7807 129.516 30.5445C133.072 30.3082 136.634 30.9058 139.912 32.2884C143.19 33.6711 146.092 35.7998 148.381 38.5013C150.67 41.2028 152.281 44.4007 153.084 47.8347C153.887 51.2686 153.859 54.8416 153.002 58.2628C152.145 61.684 150.483 64.8566 148.152 67.5225V67.5225C145.014 71.1077 140.807 73.6149 136.135 74.6824C131.464 75.7499 126.571 75.3226 122.161 73.4621C117.751 71.6016 114.053 68.404 111.599 64.3305C109.145 60.257 108.063 55.518 108.509 50.7969H108.498ZM152.054 54.8001C152.516 49.8433 151.173 44.8864 148.266 40.8228C145.359 36.7592 141.08 33.8564 136.2 32.6377C131.32 31.419 126.16 31.9646 121.651 34.1761C117.142 36.3876 113.58 40.1196 111.608 44.6991C109.635 49.2787 109.382 54.4045 110.894 59.1525C112.405 63.9005 115.582 67.9583 119.851 70.5943C124.121 73.2303 129.202 74.271 134.179 73.5289C139.155 72.7868 143.7 70.3106 146.994 66.5469C149.88 63.2498 151.649 59.1421 152.054 54.8001V54.8001Z" fill="#263238"/>
<path d="M107.828 49.7816C108.159 46.2715 109.323 42.8882 111.226 39.9074C113.129 36.9265 115.717 34.4323 118.78 32.6279C121.842 30.8236 125.292 29.76 128.848 29.5239C132.405 29.2878 135.967 29.8858 139.246 31.2692C142.524 32.6526 145.426 34.7824 147.715 37.4849C150.004 40.1875 151.615 43.3865 152.417 46.8215C153.219 50.2564 153.19 53.8302 152.331 57.2517C151.472 60.6732 149.808 63.8457 147.475 66.5108V66.5108C144.337 70.0956 140.128 72.6022 135.457 73.6692C130.785 74.7362 125.892 74.3084 121.482 72.4477C117.072 70.5869 113.374 67.3892 110.92 63.3156C108.466 59.242 107.383 54.503 107.828 49.7816ZM151.384 53.7812C151.844 48.8242 150.499 43.8677 147.59 39.8053C144.681 35.743 140.4 32.8421 135.52 31.6257C130.639 30.4093 125.48 30.9575 120.972 33.1713C116.464 35.3851 112.903 39.1189 110.933 43.6996C108.963 48.2803 108.713 53.4064 110.227 58.1537C111.741 62.901 114.92 66.9572 119.191 69.5909C123.462 72.2246 128.544 73.2626 133.52 72.5176C138.497 71.7727 143.04 69.2938 146.332 65.528C149.215 62.2301 150.981 58.1225 151.384 53.7812V53.7812Z" fill="#455A64"/>
<path d="M85.4454 101.308L84.6555 100.696C83.953 100.153 84.1641 98.7165 84.7611 97.9677L112.589 65.6541L116.294 68.5341L88.4994 100.808C87.7277 101.708 86.3518 102.01 85.4454 101.308Z" fill="#455A64"/>
<path d="M108.05 73.6821C108.101 73.6026 108.177 73.5417 108.267 73.5086C108.356 73.4755 108.454 73.472 108.545 73.4985C108.705 73.5394 108.851 73.62 108.971 73.7325C109.884 74.4809 110.468 75.551 110.598 76.7169C110.653 77.2101 110.58 77.7968 110.158 78.0632L109.623 77.8257C109.444 77.6421 108.942 77.3541 108.854 77.1057C108.49 76.1013 109.182 76.3173 108.338 74.5857C108.254 74.4345 107.901 73.9809 108.05 73.6821Z" fill="#FFBF9D"/>
<path d="M108.323 75.1365C108.148 74.8686 107.936 74.6262 107.693 74.4165C107.6 74.3424 107.489 74.2933 107.371 74.2738C107.253 74.2542 107.132 74.2649 107.02 74.3049C106.681 74.4525 106.707 74.7117 106.794 75.1689C106.908 75.6742 107.098 76.1597 107.358 76.6089C107.835 77.4729 108.29 78.4881 108.814 79.3305L109.036 79.1325C109.08 79.1633 109.131 79.1835 109.184 79.1913C109.237 79.1992 109.292 79.1945 109.343 79.1777C109.394 79.1608 109.44 79.1323 109.478 79.0944C109.516 79.0566 109.544 79.0104 109.56 78.9597C109.637 78.7272 109.651 78.479 109.6 78.2397C109.435 77.1181 108.997 76.0531 108.323 75.1365V75.1365Z" fill="#FFBF9D"/>
<path d="M107.995 77.8581C107.62 77.2315 107.146 76.6687 106.59 76.1913C106.399 76.0211 106.169 75.8978 105.921 75.8313C105.793 75.822 105.665 75.8543 105.557 75.9231C105.45 75.992 105.368 76.0937 105.324 76.2129C105.298 76.325 105.299 76.4413 105.326 76.553C105.353 76.6647 105.406 76.7688 105.48 76.8573C106.245 78.0802 107.097 79.2483 108.028 80.3529L108.691 79.5357C108.953 78.9201 108.348 78.4521 107.995 77.8581Z" fill="#FFBF9D"/>
<path d="M88.0664 88.6112L89.6353 88.4348L92.4016 85.5548L93.9159 84.0032C94.0443 83.8732 94.2049 83.7789 94.3818 83.7296L95.9943 83.2904C96.0864 83.4955 96.1002 83.7267 96.0333 83.9411C95.9664 84.1555 95.8232 84.3387 95.6303 84.4568L94.7749 85.0112L94.0469 86.0588L94.1743 86.2568C94.1743 86.2568 99.6671 86.5268 100.046 86.9012C100.108 86.9577 100.156 87.0273 100.188 87.1047C100.219 87.1822 100.232 87.2656 100.227 87.3488C100.221 87.4321 100.197 87.513 100.155 87.5857C100.114 87.6584 100.056 87.721 99.9874 87.7688C99.86 87.8274 99.7201 87.8546 99.5797 87.848C99.5797 87.848 99.9073 88.4528 99.1757 89.0504C99.1757 89.0504 99.86 89.7704 98.8481 90.2492C98.6913 90.6285 98.4001 90.9382 98.0291 91.1204C96.6767 91.523 95.3037 91.8546 93.9159 92.114L90.0393 92.5208L88.7362 93.5288L88.0664 88.6112Z" fill="#FFBF9D"/>
<path d="M99.7033 87.8516C99.2261 88.0158 98.7233 88.095 98.2182 88.0857C97.7161 88.115 97.2124 88.0933 96.7148 88.0208C97.2088 87.9368 97.7099 87.9018 98.2109 87.9164C98.7068 87.8686 99.205 87.8469 99.7033 87.8516V87.8516Z" fill="#FF9A6C"/>
<path d="M99.1757 89.0576C99.1757 89.0828 99.041 89.1152 98.8117 89.1692C98.5824 89.2232 98.2803 89.2952 97.9308 89.3528C97.6342 89.3963 97.3352 89.4215 97.0354 89.4284C96.9146 89.4441 96.7922 89.4441 96.6714 89.4284C96.6714 89.4068 96.8024 89.3456 97.0354 89.306C97.2683 89.2664 97.5814 89.2412 97.9199 89.1836C98.2584 89.126 98.5751 89.0684 98.8044 89.0468C99.0337 89.0252 99.1757 89.036 99.1757 89.0576Z" fill="#FF9A6C"/>
<path d="M98.9535 90.2204C98.4842 90.3965 97.9955 90.5174 97.4975 90.5804C97.16 90.6163 96.8298 90.7025 96.5184 90.836C96.289 90.9476 96.1944 91.0844 96.1544 91.07C96.1143 91.0556 96.2017 90.8864 96.4419 90.7316C96.7541 90.5588 97.0982 90.4499 97.4538 90.4112C97.9443 90.2887 98.4477 90.2246 98.9535 90.2204V90.2204Z" fill="#FF9A6C"/>
<path d="M77.7215 97.9064C77.7885 97.8746 77.8578 97.8481 77.929 97.8272L78.5405 97.622L80.841 96.884L88.849 94.364L88.7871 94.4576C88.5323 92.636 88.2521 90.6416 87.9609 88.5644C87.9063 88.2044 87.8553 87.812 87.8043 87.4448L87.9135 87.524L77.7215 89.4356H77.6196V89.3348C77.9436 87.4844 78.2057 85.976 78.3913 84.914C78.4859 84.4028 78.5587 83.9996 78.6133 83.708C78.6388 83.5784 78.6607 83.4776 78.6752 83.3948C78.6819 83.3581 78.6917 83.322 78.7043 83.2868C78.7084 83.3239 78.7084 83.3613 78.7043 83.3984L78.6607 83.7152L78.4787 84.9248C78.3076 86.0048 78.0637 87.5024 77.7507 89.36L77.6669 89.2772L87.8589 87.3224H87.9536V87.4196C88.0045 87.7796 88.0591 88.1612 88.1101 88.5356C88.3977 90.6164 88.6743 92.6108 88.9291 94.436V94.508L88.8563 94.5296L80.8228 96.9848L78.5078 97.676L77.889 97.856C77.8341 97.8757 77.7782 97.8925 77.7215 97.9064Z" fill="#263238"/>
<path d="M79.7196 80.432C79.6832 80.432 79.6832 79.8164 79.5522 78.8336C79.4755 78.2595 79.3673 77.6898 79.2282 77.1272C78.8826 75.7493 78.3434 74.426 77.6266 73.196C77.3352 72.6978 77.0143 72.2169 76.6656 71.756C76.0723 70.9568 75.6392 70.514 75.6646 70.4888C75.783 70.5755 75.8916 70.6745 75.9886 70.784C76.2665 71.0664 76.529 71.3632 76.7748 71.6732C77.1389 72.1326 77.4744 72.6135 77.7795 73.1132C78.1457 73.7336 78.468 74.3784 78.7441 75.0428C79.0113 75.7103 79.2291 76.3961 79.3956 77.0948C79.5324 77.6648 79.6296 78.2434 79.6868 78.8264C79.7286 79.2186 79.748 79.6129 79.7451 80.0072C79.7491 80.1493 79.7406 80.2914 79.7196 80.432V80.432Z" fill="#263238"/>
<path d="M74.3034 92.8953C74.2927 92.6496 74.3336 92.4045 74.4235 92.1753C74.6134 91.5924 74.9303 91.0578 75.3517 90.6093C75.7658 90.1624 76.274 89.8109 76.8405 89.5797C77.0669 89.4677 77.3154 89.4062 77.5685 89.3997C77.5685 89.4285 77.2991 89.5041 76.8951 89.6985C75.8254 90.2183 74.9934 91.1183 74.5655 92.2185C74.3871 92.6217 74.3362 92.8989 74.3034 92.8953Z" fill="#263238"/>
<path d="M109.546 77.588C109.488 77.6096 109.182 76.742 108.651 75.77C108.418 75.3564 108.142 74.9678 107.828 74.6108C107.738 74.5057 107.63 74.4178 107.508 74.3516C107.42 74.312 107.366 74.3264 107.358 74.312C107.351 74.2976 107.413 74.258 107.53 74.2832C107.678 74.3275 107.814 74.4079 107.923 74.5172C108.276 74.8584 108.576 75.249 108.814 75.6764C109.051 76.1002 109.248 76.5449 109.401 77.0048C109.484 77.189 109.533 77.3866 109.546 77.588V77.588Z" fill="#FF9A6C"/>
<path d="M108.203 78.2576C108.155 78.2792 107.784 77.6744 107.198 77.0192C106.612 76.364 106.077 75.8996 106.106 75.8564C106.587 76.1129 107.008 76.4675 107.34 76.8968C107.726 77.2815 108.021 77.7463 108.203 78.2576Z" fill="#FF9A6C"/>
<path d="M109.677 77.9084C109.677 77.9084 109.775 78.1064 109.677 78.4232C109.611 78.6075 109.492 78.7688 109.335 78.8876C109.139 79.0344 108.899 79.1118 108.654 79.1072C108.568 79.1064 108.482 79.0943 108.399 79.0712L108.512 79.0136C108.472 79.1156 108.411 79.2081 108.333 79.285C108.254 79.362 108.16 79.4216 108.057 79.46C107.892 79.5217 107.709 79.5217 107.544 79.46C107.271 79.3448 107.205 79.1648 107.224 79.1576C107.337 79.2337 107.459 79.2953 107.588 79.3412C107.724 79.3759 107.869 79.3658 107.999 79.3124C108.077 79.2779 108.147 79.2283 108.205 79.1664C108.263 79.1046 108.308 79.0318 108.337 78.9524L108.366 78.8732H108.45C108.519 78.8921 108.59 78.9018 108.661 78.902C108.866 78.9056 109.067 78.8465 109.236 78.7328C109.374 78.6342 109.484 78.503 109.557 78.3512C109.604 78.2057 109.644 78.0579 109.677 77.9084V77.9084Z" fill="#FF9A6C"/>
<path d="M73 45.4921C73.02 45.378 73.0458 45.265 73.0773 45.1534C73.1718 44.8489 73.3628 44.5822 73.6224 44.3923C73.7941 44.2605 73.9935 44.1682 74.2061 44.1221C74.4518 44.0725 74.7067 44.0937 74.9406 44.183C75.2131 44.2744 75.4508 44.4455 75.622 44.6735C75.7932 44.9014 75.8896 45.1754 75.8984 45.4587C75.9072 45.7421 75.828 46.0213 75.6714 46.2592C75.5147 46.4971 75.2881 46.6822 75.0217 46.7899C74.7948 46.8931 74.5426 46.9301 74.295 46.8965C74.0796 46.8619 73.8741 46.7827 73.692 46.6643C73.4238 46.4908 73.2171 46.2394 73.1005 45.945C73.0193 45.7357 73.0155 45.6063 73.0039 45.6101C72.9987 45.6404 72.9987 45.6712 73.0039 45.7015C73.0075 45.7387 73.014 45.7756 73.0232 45.8118C73.0325 45.8621 73.0454 45.9117 73.0618 45.9602C73.1546 46.2218 73.3162 46.4543 73.5301 46.6342C73.7441 46.8141 74.0027 46.9348 74.2795 46.984C74.5419 47.0241 74.8105 46.9884 75.0527 46.8812C75.3223 46.7622 75.5536 46.5727 75.7214 46.3332C75.908 46.0774 76.0056 45.769 75.9997 45.4541C75.9829 45.1407 75.8651 44.8408 75.6634 44.5978C75.4861 44.3687 75.248 44.1922 74.9754 44.0878C74.7288 43.9952 74.4601 43.9753 74.2022 44.0307C73.9774 44.0832 73.7674 44.1847 73.5876 44.3276C73.325 44.5311 73.1365 44.8128 73.0503 45.1306C73.037 45.1794 73.0267 45.229 73.0193 45.279C73.0159 45.3157 73.0159 45.3527 73.0193 45.3894C73.0074 45.4224 73.0009 45.4571 73 45.4921V45.4921Z" fill="#263238"/>
<path d="M77 48.4974C77.0067 48.4593 77.0153 48.4217 77.0258 48.3845C77.0573 48.283 77.1209 48.1941 77.2075 48.1308C77.2647 48.0868 77.3312 48.0561 77.402 48.0407C77.4839 48.0242 77.5689 48.0312 77.6469 48.061C77.7377 48.0915 77.8169 48.1485 77.874 48.2245C77.9311 48.3005 77.9632 48.3918 77.9661 48.4862C77.9691 48.5807 77.9427 48.6738 77.8905 48.7531C77.8382 48.8324 77.7627 48.8941 77.6739 48.93C77.5983 48.9644 77.5142 48.9767 77.4317 48.9655C77.3599 48.954 77.2914 48.9276 77.2307 48.8881C77.1413 48.8303 77.0724 48.7465 77.0335 48.6483C77.0064 48.5786 77.0052 48.5354 77.0013 48.5367C76.9996 48.5468 76.9996 48.5571 77.0013 48.5672C77.0025 48.5796 77.0047 48.5919 77.0077 48.6039C77.0108 48.6207 77.0151 48.6372 77.0206 48.6534C77.0515 48.7406 77.1054 48.8181 77.1767 48.8781C77.248 48.938 77.3342 48.9783 77.4265 48.9947C77.514 49.008 77.6035 48.9961 77.6842 48.9604C77.7741 48.9207 77.8512 48.8576 77.9071 48.7777C77.9693 48.6925 78.0019 48.5897 77.9999 48.4847C77.9943 48.3802 77.955 48.2803 77.8878 48.1993C77.8287 48.1229 77.7493 48.0641 77.6585 48.0293C77.5763 47.9984 77.4867 47.9918 77.4007 48.0102C77.3258 48.0277 77.2558 48.0616 77.1959 48.1092C77.1083 48.177 77.0455 48.2709 77.0168 48.3769C77.0123 48.3931 77.0089 48.4097 77.0064 48.4263C77.0053 48.4386 77.0053 48.4509 77.0064 48.4631C77.0025 48.4741 77.0003 48.4857 77 48.4974V48.4974Z" fill="#263238"/>
<path d="M65.3474 45.8738H65.1202L64.4616 45.9415L63.9756 45.9922C63.7939 45.9922 63.5986 45.9922 63.3851 45.9922H62.6947C62.5693 46.0026 62.4431 46.0026 62.3177 45.9922L61.9135 45.9584C60.5715 45.8615 59.253 45.5763 58.0026 45.1126C56.3421 44.5093 54.8205 43.6165 53.5195 42.4821L52.979 42C52.8064 41.8266 52.6428 41.6448 52.4748 41.4629C52.3885 41.3699 52.3022 41.2811 52.2204 41.188C52.1313 41.0978 52.0493 41.0017 51.9751 40.9005L51.5209 40.2915C51.4437 40.19 51.3619 40.0885 51.2847 39.9828L51.0849 39.6487L50.6715 38.9763C50.5398 38.7479 50.4399 38.5026 50.3172 38.2616L50.1446 37.8937C50.1112 37.8336 50.0824 37.7714 50.0583 37.7076L49.9902 37.5173C49.7864 37.0013 49.6209 36.4728 49.4951 35.9356C49.4361 35.665 49.3543 35.3901 49.3089 35.111L49.1999 34.2652C49.1999 34.1256 49.159 33.9818 49.1544 33.8423C49.1499 33.7027 49.1544 33.5505 49.1544 33.4194C49.1544 33.1276 49.1544 32.8358 49.1544 32.5397C49.1862 31.9409 49.2606 31.3447 49.377 30.7551C49.4088 30.6071 49.4361 30.4548 49.4678 30.3068C49.4678 30.2307 49.4951 30.1546 49.5133 30.0785L49.5814 29.8585C49.6722 29.5625 49.7676 29.2665 49.8585 28.9662C49.9493 28.666 50.1038 28.3868 50.2219 28.0908C50.29 27.947 50.3399 27.7948 50.4172 27.6679L50.6534 27.245C50.9643 26.6724 51.3164 26.12 51.7071 25.5915C51.9252 25.3377 52.1387 25.0798 52.3567 24.8218L52.5202 24.6273L52.7019 24.4496L53.0698 24.0902L53.4377 23.7307L53.842 23.4008L54.2462 23.0752L54.4506 22.9103L54.6687 22.7623L55.5771 22.1787L56.5264 21.6712C57.8465 21.03 59.2629 20.578 60.7279 20.3306C62.1975 20.1151 63.6934 20.1065 65.1657 20.3052L66.2467 20.4913L67.2914 20.7704L67.5503 20.8423L67.8001 20.9353L68.2998 21.1214L68.7994 21.3075L69.2536 21.5316L69.7079 21.76L69.9441 21.8699L70.1666 22.0053L71.0751 22.5297C71.6315 22.9105 72.161 23.3244 72.6603 23.7688L73.0282 24.0986C73.1508 24.2044 73.2553 24.3312 73.3689 24.4496C73.5869 24.6907 73.8231 24.9191 74.0229 25.1643C74.2228 25.4096 74.409 25.6676 74.5998 25.9171L74.7406 26.1074C74.786 26.1708 74.8269 26.2385 74.8678 26.3062C74.9495 26.4373 75.0313 26.5684 75.1085 26.7037C75.4297 27.2241 75.7135 27.7638 75.9579 28.3192C76.0715 28.5941 76.1578 28.8774 76.2622 29.165C76.3122 29.3045 76.3622 29.4441 76.4076 29.5879C76.453 29.7317 76.4803 29.8712 76.5166 30.0108C76.5847 30.2899 76.6529 30.569 76.7165 30.8566C76.7801 31.1442 76.7937 31.4148 76.8346 31.7024C76.9052 32.2468 76.9356 32.795 76.9254 33.3432V33.5462C76.9254 33.6139 76.9254 33.6816 76.9254 33.7492C76.9254 33.8169 76.9254 34.0157 76.8891 34.1468C76.8618 34.4132 76.8527 34.6754 76.8073 34.9333C76.7619 35.1913 76.7074 35.4451 76.6574 35.6946C76.6347 35.8214 76.6074 35.9483 76.5847 36.071L76.4757 36.4346C76.3985 36.6757 76.3258 36.9168 76.2532 37.1494C76.2196 37.2681 76.1755 37.3841 76.1214 37.4961C76.076 37.6103 76.026 37.7245 75.9806 37.8345C75.8852 38.0586 75.7944 38.2827 75.6945 38.4984C75.5945 38.7141 75.4628 38.9213 75.3538 39.1201C74.5308 40.5921 73.4094 41.9018 72.0516 42.9769L71.5974 43.3322L71.1432 43.6324L70.689 43.9242L70.4755 44.0595L70.2575 44.178L69.4172 44.6262C69.1492 44.7616 68.8766 44.8631 68.6268 44.973L68.2589 45.1253C68.1441 45.1762 68.0257 45.22 67.9046 45.2564L67.2505 45.4593C67.0507 45.5228 66.8644 45.5862 66.6918 45.6327L66.2376 45.73L65.5926 45.8738C65.4473 45.9034 65.3746 45.9245 65.3746 45.9245L65.5926 45.8823L66.2467 45.7554L66.7009 45.6581C66.8735 45.6158 67.0598 45.5524 67.2642 45.4932L67.9182 45.2944C68.0414 45.2614 68.1614 45.219 68.2771 45.1675L68.645 45.0153C68.8948 44.9053 69.1719 44.8081 69.4444 44.6728L70.2893 44.2499L70.5118 44.1314C70.5845 44.0892 70.6526 44.0384 70.7253 43.9919L71.1795 43.7043L71.6337 43.4041C71.7836 43.2899 71.9244 43.1715 72.088 43.0488C73.4582 41.9484 74.5845 40.6096 75.4038 39.1074L75.749 38.4815C75.8489 38.2658 75.9397 38.0586 76.0351 37.8175L76.1805 37.4792C76.2333 37.3648 76.2789 37.2476 76.3168 37.1282C76.3894 36.8914 76.4621 36.6503 76.5393 36.4093C76.5757 36.2866 76.6165 36.164 76.6529 36.0413C76.6892 35.9187 76.7028 35.7918 76.7255 35.665C76.7755 35.4112 76.83 35.1533 76.88 34.8953C76.9299 34.6373 76.9345 34.3709 76.9617 34.1045C76.9617 33.9691 76.9617 33.838 76.9981 33.7027C76.9981 33.635 76.9981 33.5674 76.9981 33.4997V33.2967C77.0083 32.7429 76.9779 32.189 76.9072 31.639C76.8664 31.3598 76.8482 31.0765 76.7937 30.7932L76.5893 29.9474C76.5529 29.8036 76.5302 29.6598 76.4848 29.5245L76.3349 29.1016C76.235 28.8267 76.1441 28.5391 76.0261 28.2557C75.7826 27.6958 75.4988 27.1519 75.1767 26.6276L74.9314 26.2258L74.8087 26.0271L74.6634 25.8368L74.082 25.0713C73.873 24.826 73.6278 24.5934 73.4234 24.3524C73.3098 24.234 73.2053 24.1071 73.0827 23.9971L72.7057 23.663C72.2052 23.2076 71.6725 22.7838 71.1114 22.3943L70.203 21.8615L69.9804 21.7262L69.7442 21.612L69.29 21.3836L68.8085 21.1552L68.3089 20.9692L67.8047 20.7831L67.5503 20.6858L67.2869 20.6139L66.2331 20.3306L65.1475 20.1445C63.6602 19.9437 62.1489 19.9522 60.6644 20.1699C59.1866 20.4196 57.7578 20.8759 56.4265 21.5232L55.4635 22.0349L54.5551 22.6269C54.4824 22.6777 54.4052 22.7242 54.3371 22.775L54.1281 22.9399L53.7193 23.274L53.3105 23.6038L52.9426 23.9675L52.5702 24.327C52.5111 24.3904 52.4475 24.4454 52.3885 24.5088L52.225 24.7034L51.5709 25.4815C51.1764 26.0153 50.8213 26.5734 50.508 27.152L50.2718 27.5749C50.1988 27.7126 50.1336 27.8537 50.0765 27.9978C49.9539 28.2938 49.8176 28.5856 49.7086 28.8816C49.5996 29.1777 49.5224 29.4822 49.4315 29.7782L49.3588 30.0023C49.3588 30.0784 49.3316 30.1546 49.3134 30.2307L49.2226 30.6832C49.1064 31.2786 49.032 31.8804 49 32.4848C49 32.7808 49 33.081 49 33.3728C49 33.5209 49 33.6689 49 33.7957C49 33.9226 49.0318 34.0875 49.0454 34.2186C49.0818 34.5062 49.1226 34.7938 49.159 35.0644C49.1953 35.3351 49.2862 35.6184 49.3452 35.9102C49.4741 36.4504 49.6425 36.9817 49.8494 37.5004L49.9175 37.6949C49.9448 37.7583 49.9766 37.8175 50.0038 37.881L50.181 38.2489C50.3036 38.4899 50.4081 38.7395 50.5398 38.9721L50.9577 39.6487L51.1621 39.9828L51.3983 40.2957C51.5527 40.4987 51.7117 40.7186 51.8525 40.9047C51.9285 41.0059 52.012 41.102 52.1023 41.1923L52.3612 41.4714C52.5338 41.649 52.6973 41.8351 52.8699 42.0085L53.4196 42.4948C54.737 43.6365 56.2794 44.5298 57.9617 45.1253C59.2203 45.5839 60.5468 45.8606 61.8953 45.9457L62.295 45.9753C62.4219 45.9857 62.5496 45.9857 62.6765 45.9753H63.367C63.5804 45.9753 63.7803 45.9753 63.9574 45.9753L64.4435 45.9203L65.1021 45.84L65.3474 45.8738Z" fill="#263238"/>
<path d="M59.0004 31.0927H61.1421C61.1405 30.843 61.1878 30.5956 61.2811 30.3652C61.3744 30.1347 61.5118 29.9259 61.6852 29.7512C61.8585 29.5765 62.0642 29.4394 62.2901 29.3481C62.5159 29.2569 62.7573 29.2132 62.9999 29.2199C63.3588 29.2051 63.7132 29.3059 64.0136 29.5084C64.314 29.7108 64.5455 30.0047 64.6757 30.3491C64.7891 30.637 64.8341 30.9486 64.8071 31.258C64.7801 31.5674 64.6819 31.8657 64.5205 32.1282C64.1617 32.7452 63.3693 33.3015 61.9291 33.0426V38H64.0386V35.0972C64.9049 34.8355 65.6638 34.2886 66.1986 33.5403C66.7335 32.792 67.0148 31.8837 66.9994 30.955C66.9994 27.7437 64.1992 27.0001 62.9999 27.0001C62.079 26.9946 58.9576 27.2369 59.0004 31.0927Z" fill="#008C96"/>
<path d="M64 39H62V40H64V39Z" fill="#008C96"/>
<path d="M201.508 128.432C201.508 128.432 201.508 128.875 201.535 129.661C202.068 129.173 202.694 128.799 203.375 128.56V128.56C203.375 128.56 207.087 126.226 208.771 123.308C209.562 121.833 210.113 120.241 210.405 118.593C210.405 118.465 210.405 117.336 210.405 116.411C210.41 116.046 210.555 115.697 210.81 115.436C211.065 115.176 211.41 115.023 211.775 115.01C213.37 114.948 217.61 115.088 217.925 118.029C218.384 122.425 215.132 126.312 214.867 127.576C214.817 127.813 214.778 128.008 214.747 128.163C216 128.163 216.968 128.163 216.968 128.194L225.216 128.156C225.216 128.156 227.982 127.965 228.262 130.82C228.542 133.676 225.352 133.878 225.352 133.878C225.352 133.878 226.78 134.139 226.612 136.64C226.445 139.142 223.683 139.333 223.683 139.333C223.683 139.333 225.29 139.593 225.212 141.822C225.134 143.993 222.263 144.658 222.1 144.693C222.316 144.687 222.533 144.695 222.749 144.717C222.582 144.739 222.413 144.748 222.244 144.744C223.411 145.176 223.259 146.65 223.259 146.65C223.364 149.763 220.956 149.875 220.956 149.875L205.9 149.949C204.398 149.956 202.921 149.562 201.621 148.809C201.621 149.447 201.621 149.809 201.621 149.809L191.117 149.86C191.093 149.86 191.051 145.079 191.023 139.177C190.996 133.275 190.988 128.494 191.023 128.494L201.508 128.432Z" fill="#008C96"/>
<g opacity="0.3">
<path opacity="0.3" d="M201.508 128.432C201.508 128.432 201.508 128.875 201.535 129.661C202.068 129.173 202.694 128.799 203.375 128.56V128.56C203.375 128.56 207.087 126.226 208.771 123.308C209.562 121.833 210.113 120.241 210.405 118.593C210.405 118.465 210.405 117.336 210.405 116.411C210.41 116.046 210.555 115.697 210.81 115.436C211.065 115.176 211.41 115.023 211.775 115.01C213.37 114.948 217.61 115.088 217.925 118.029C218.384 122.425 215.132 126.312 214.867 127.576C214.817 127.813 214.778 128.008 214.747 128.163C216 128.163 216.968 128.163 216.968 128.194L225.216 128.156C225.216 128.156 227.982 127.965 228.262 130.82C228.542 133.676 225.352 133.878 225.352 133.878C225.352 133.878 226.78 134.139 226.612 136.64C226.445 139.142 223.683 139.333 223.683 139.333C223.683 139.333 225.29 139.593 225.212 141.822C225.134 143.993 222.263 144.658 222.1 144.693C222.316 144.687 222.533 144.695 222.749 144.717C222.582 144.739 222.413 144.748 222.244 144.744C223.411 145.176 223.259 146.65 223.259 146.65C223.364 149.763 220.956 149.875 220.956 149.875L205.9 149.949C204.398 149.956 202.921 149.562 201.621 148.809C201.621 149.447 201.621 149.809 201.621 149.809L191.117 149.86C191.093 149.86 191.051 145.079 191.023 139.177C190.996 133.275 190.988 128.494 191.023 128.494L201.508 128.432Z" fill="black"/>
</g>
<path d="M202.788 131.723L202.298 132.98L202.368 147.374C203.162 148.209 204.118 148.873 205.177 149.324C206.237 149.776 207.378 150.006 208.53 150L223.586 149.926C223.586 149.926 225.994 149.825 225.889 146.701C225.889 146.701 226.06 145.094 224.722 144.756C224.722 144.756 227.752 144.118 227.834 141.885C227.916 139.652 226.305 139.395 226.305 139.395C226.305 139.395 229.071 139.2 229.239 136.703C229.406 134.205 227.974 133.941 227.974 133.941C227.974 133.941 231.188 133.746 230.904 130.894C230.62 128.043 227.857 128.229 227.857 128.229L217.147 128.28L207.76 128.327C206.687 128.33 205.639 128.656 204.753 129.262C203.866 129.867 203.182 130.724 202.788 131.723Z" fill="#008C96"/>
<path d="M205.997 128.622C205.997 128.622 209.708 126.308 211.397 123.37C212.185 121.894 212.735 120.303 213.027 118.655C213.027 118.527 213.027 117.395 213.027 116.473C213.032 116.108 213.177 115.759 213.432 115.499C213.686 115.238 214.032 115.085 214.396 115.072C215.991 115.01 218.532 116.376 218.839 119.321C219.302 123.713 217.754 126.374 217.489 127.638L217.229 128.902L205.997 128.622Z" fill="#008C96"/>
<path d="M204.138 128.489L193.623 128.541L193.727 149.906L204.242 149.855L204.138 128.489Z" fill="#008C96"/>
<path d="M204.243 149.86C204.266 149.86 204.262 145.075 204.243 139.177C204.223 133.279 204.173 128.494 204.15 128.494C204.126 128.494 204.15 133.275 204.15 139.177C204.15 145.079 204.22 149.86 204.243 149.86Z" fill="#263238"/>
<path d="M193.727 149.91C193.75 149.91 193.727 145.125 193.727 139.227C193.727 133.33 193.657 128.545 193.634 128.545C193.61 128.545 193.614 133.326 193.634 139.227C193.653 145.129 193.704 149.91 193.727 149.91Z" fill="#263238"/>
<path d="M200.454 133.404C200.458 133.794 200.347 134.176 200.134 134.503C199.921 134.829 199.615 135.085 199.256 135.238C198.898 135.391 198.501 135.434 198.118 135.361C197.735 135.288 197.382 135.104 197.104 134.83C196.826 134.556 196.636 134.206 196.557 133.824C196.478 133.442 196.515 133.046 196.662 132.685C196.809 132.323 197.06 132.014 197.383 131.796C197.706 131.577 198.087 131.46 198.477 131.458C198.997 131.456 199.496 131.66 199.866 132.024C200.236 132.388 200.447 132.884 200.454 133.404Z" fill="white"/>
<path d="M219.61 128.257C219.61 128.233 218.462 128.222 217.046 128.229C215.63 128.237 214.486 128.261 214.486 128.284C214.486 128.307 215.634 128.319 217.046 128.311C218.458 128.303 219.61 128.28 219.61 128.257Z" fill="#263238"/>
<path d="M226.519 139.484C225.974 139.445 225.427 139.433 224.881 139.449C224.335 139.438 223.788 139.454 223.243 139.5C223.243 139.519 223.978 139.535 224.881 139.531C225.784 139.527 226.519 139.504 226.519 139.484Z" fill="#263238"/>
<path d="M228.176 133.878C228.176 133.855 227.138 133.839 225.842 133.847C224.547 133.855 223.508 133.878 223.508 133.902C223.508 133.925 224.547 133.937 225.842 133.929C227.138 133.921 228.176 133.902 228.176 133.878Z" fill="#263238"/>
<path d="M225.379 144.771C225.379 144.748 224.336 144.736 223.045 144.744C221.753 144.752 220.71 144.771 220.71 144.795C220.71 144.818 221.749 144.83 223.045 144.826C224.34 144.822 225.379 144.791 225.379 144.771Z" fill="#263238"/>
<g opacity="0.3">
<path opacity="0.3" d="M214.268 116.095C214.09 116.223 213.95 116.396 213.862 116.597C213.775 116.797 213.743 117.018 213.77 117.235C213.827 117.666 213.921 118.092 214.05 118.507C214.267 119.455 214.164 120.448 213.759 121.332C213.634 121.6 213.482 121.908 213.611 122.172C213.794 122.561 214.35 122.487 214.727 122.312C215.442 121.97 216.045 121.431 216.465 120.758C216.886 120.086 217.106 119.308 217.1 118.515C217.105 117.842 216.88 117.188 216.462 116.659C216.224 116.319 215.872 116.076 215.469 115.972C215.067 115.869 214.641 115.913 214.268 116.095" fill="white"/>
</g>
<g opacity="0.3">
<path opacity="0.3" d="M228.71 128.786C228.363 128.664 227.994 128.619 227.628 128.654L221.244 128.809C220.548 128.809 219.28 128.692 219.112 129.362C219.026 129.542 219.008 129.748 219.062 129.941C219.117 130.134 219.24 130.3 219.408 130.408C219.754 130.613 220.15 130.718 220.552 130.712C221.388 130.77 222.229 130.762 223.065 130.754C224.75 130.78 226.435 130.671 228.103 130.428C228.352 130.396 228.594 130.323 228.819 130.214C228.931 130.158 229.029 130.077 229.106 129.978C229.183 129.879 229.236 129.764 229.262 129.642C229.274 129.459 229.226 129.277 229.127 129.123C229.027 128.969 228.881 128.851 228.71 128.786V128.786Z" fill="white"/>
</g>
<path d="M201.664 129.113C201.664 129.089 200.193 129.078 198.38 129.085C196.567 129.093 195.097 129.12 195.097 129.144C195.097 129.167 196.567 129.175 198.38 129.167C200.193 129.159 201.664 129.132 201.664 129.113Z" fill="white"/>
<path d="M228.075 137.559C228.075 137.559 228.102 137.524 228.141 137.45C228.195 137.346 228.238 137.238 228.27 137.127C228.32 136.962 228.353 136.793 228.367 136.621C228.384 136.409 228.376 136.197 228.344 135.987C228.309 135.778 228.252 135.573 228.173 135.376C228.105 135.216 228.022 135.064 227.924 134.921C227.852 134.826 227.773 134.738 227.686 134.656C227.628 134.602 227.593 134.571 227.589 134.575C227.585 134.579 227.706 134.715 227.857 134.964C228.054 135.284 228.186 135.639 228.246 136.01C228.277 136.214 228.288 136.419 228.278 136.625C228.265 136.793 228.239 136.959 228.2 137.123C228.138 137.38 228.075 137.555 228.075 137.559Z" fill="white"/>
<path d="M229.6 132.139C229.6 132.139 229.717 132.077 229.853 131.914C230.023 131.698 230.134 131.442 230.176 131.171C230.22 130.899 230.194 130.621 230.102 130.361C230.068 130.253 230.011 130.154 229.935 130.07C229.935 130.07 229.989 130.186 230.047 130.381C230.119 130.634 230.135 130.899 230.094 131.159C230.053 131.417 229.954 131.663 229.806 131.879C229.69 132.046 229.592 132.128 229.6 132.139Z" fill="white"/>
<path d="M226.247 143.359C226.37 143.316 226.482 143.245 226.574 143.153C226.813 142.94 226.972 142.652 227.025 142.336C227.074 142.02 227.016 141.697 226.862 141.418C226.806 141.3 226.722 141.199 226.616 141.122C226.616 141.122 226.706 141.239 226.811 141.445C226.942 141.718 226.988 142.024 226.943 142.324C226.895 142.617 226.759 142.888 226.554 143.102C226.371 143.277 226.239 143.343 226.247 143.359Z" fill="white"/>
<path d="M224.13 148.44C224.228 148.378 224.312 148.295 224.375 148.199C224.544 147.973 224.659 147.711 224.71 147.434C224.761 147.156 224.748 146.871 224.671 146.6C224.643 146.487 224.595 146.38 224.527 146.285C224.549 146.395 224.578 146.504 224.613 146.611C224.665 146.877 224.665 147.151 224.613 147.417C224.564 147.683 224.462 147.937 224.313 148.164C224.212 148.339 224.119 148.432 224.13 148.44Z" fill="white"/>
<path d="M217.871 124.152C217.915 124.084 217.953 124.011 217.983 123.935C218.027 123.849 218.066 123.76 218.1 123.67C218.139 123.565 218.19 123.448 218.232 123.316C218.339 123.003 218.425 122.683 218.489 122.359C218.563 121.961 218.608 121.558 218.625 121.153C218.637 120.747 218.617 120.342 218.567 119.939C218.528 119.611 218.464 119.286 218.376 118.967C218.345 118.83 218.302 118.71 218.267 118.601C218.241 118.509 218.208 118.42 218.17 118.332C218.145 118.254 218.112 118.179 218.073 118.107C218.09 118.186 218.113 118.265 218.143 118.34C218.166 118.418 218.197 118.507 218.225 118.616C218.252 118.725 218.291 118.842 218.322 118.982C218.397 119.3 218.454 119.622 218.493 119.947C218.587 120.745 218.56 121.553 218.415 122.343C218.355 122.665 218.275 122.984 218.178 123.297C218.139 123.433 218.092 123.549 218.057 123.654C218.022 123.759 217.983 123.849 217.956 123.923C217.922 123.997 217.893 124.074 217.871 124.152Z" fill="white"/>
<path d="M58 89.918C58.0019 88.7024 57.7201 87.5027 57.1765 86.4122C56.6329 85.3217 55.8422 84.3698 54.8657 83.6304C53.8893 82.8911 52.7535 82.3842 51.5466 82.1491C50.3397 81.9141 49.0942 81.9573 47.907 82.2754C46.7197 82.5934 45.6227 83.1777 44.7011 83.9829C43.7795 84.7881 43.0582 85.7925 42.5933 86.918C42.1284 88.0434 41.9324 89.2597 42.0206 90.4722C42.1087 91.6847 42.4785 92.8608 43.1014 93.9091V93.9091L43.1271 93.9381C43.4318 94.4497 43.8173 94.8161 44.2065 95.3531L48.8508 101.434C48.9857 101.61 49.16 101.752 49.36 101.851C49.56 101.949 49.7803 102 50.0037 102C50.227 102 50.4473 101.949 50.6473 101.851C50.8473 101.752 51.0216 101.61 51.1565 101.434L55.72 95.4728C56.135 94.9878 56.5224 94.4803 56.8802 93.9526V93.9308C57.6113 92.7169 57.9981 91.3307 58 89.918V89.918ZM49.9963 93.3612C49.2992 93.3612 48.6178 93.1569 48.0382 92.7742C47.4586 92.3915 47.0068 91.8475 46.7401 91.211C46.4733 90.5746 46.4035 89.8743 46.5395 89.1986C46.6755 88.523 47.0112 87.9023 47.5041 87.4152C47.997 86.9281 48.625 86.5964 49.3087 86.462C49.9924 86.3276 50.7011 86.3966 51.3451 86.6602C51.9891 86.9238 52.5396 87.3702 52.9269 87.943C53.3142 88.5158 53.5209 89.1892 53.5209 89.8781C53.5209 90.3355 53.4297 90.7885 53.2526 91.211C53.0755 91.6336 52.8158 92.0176 52.4886 92.341C52.1613 92.6645 51.7727 92.921 51.3451 93.0961C50.9175 93.2711 50.4592 93.3612 49.9963 93.3612V93.3612Z" fill="#F5F5F5"/>
</svg>
